<?xml version="1.0" encoding="UTF-8" standalone="no"?>
<!DOCTYPE svg PUBLIC "-//W3C//DTD SVG 1.1//EN" "http://www.w3.org/Graphics/SVG/1.1/DTD/svg11.dtd">
<svg width="100%" height="100%" viewBox="0 0 503 228" version="1.1" xmlns="http://www.w3.org/2000/svg" xmlns:xlink="http://www.w3.org/1999/xlink" xml:space="preserve" xmlns:serif="http://www.serif.com/" style="fill-rule:evenodd;clip-rule:evenodd;stroke-linejoin:round;stroke-miterlimit:2;">
    <g transform="matrix(0.16607,0,0,0.16607,-14.5922,-48.0832)">
        <path d="M3111.76,1113.96C3108.47,1225.24 3083.56,1381.98 3034.05,1499.96C3032.43,1503.82 3030.79,1507.63 3029.12,1511.4C3019.39,1533.35 3008.77,1553.79 2997.22,1572.15C2994.01,1577.29 2990.71,1582.27 2987.33,1587.07C2971.34,1609.86 2953.72,1628.67 2934.43,1642.16C2927.93,1646.73 2921.23,1650.68 2914.33,1653.96C2914.25,1654 2914.17,1654.04 2914.1,1654.06C2913.94,1654.15 2913.79,1654.22 2913.63,1654.29C2913.39,1654.41 2913.14,1654.52 2912.9,1654.63C2909.56,1656.19 2906.19,1657.58 2902.78,1658.81L2716.28,1659.8L2452.31,1661.21L2393.38,1661.52L1743.71,1659.63L807.689,1656.96L803.92,1656.95L291.262,1655.48C291.262,1655.48 161.937,1572.76 109.542,1424.1C108.197,1420.27 106.889,1416.4 105.652,1412.48C93.864,1375.44 86.986,1334.52 87.959,1289.96C91.188,1141.58 134.257,828.332 585.564,755.111C1008.83,686.439 896.287,249.571 1520.41,292.496C1766.67,309.433 1875.94,477.566 2066.27,432.769C2575.53,312.926 2833.12,426.767 2968.95,623.384L2968.95,623.396L2969.9,624.753C2974.42,631.355 2978.81,638.041 2983.07,644.811C3000.78,672.947 3016.2,702.571 3029.72,733.289C3039.22,754.895 3047.78,777.029 3055.51,799.584C3056.64,802.885 3057.76,806.198 3058.85,809.511C3058.87,809.583 3058.9,809.655 3058.92,809.727C3058.93,809.739 3058.93,809.763 3058.93,809.775C3069.04,840.36 3077.68,871.653 3085.15,903.27C3086.42,908.66 3087.66,914.061 3088.86,919.463L3088.86,919.475C3090.63,927.433 3092.34,935.392 3093.97,943.374L3093.97,943.386C3095.16,949.159 3096.31,954.921 3097.43,960.695C3098.6,966.78 3099.74,972.866 3100.85,978.952C3103.27,992.36 3105.54,1005.76 3107.67,1019.15C3109.38,1029.96 3110.61,1042.5 3111.33,1056.5C3112.23,1073.66 3112.37,1093 3111.76,1113.96Z" style="fill:rgb(235,243,250);fill-rule:nonzero;"/>
    </g>
    <g transform="matrix(0.16607,0,0,0.16607,-14.5922,-48.0832)">
        <path d="M2369.25,732.197C2369.25,732.197 2391.84,681.616 2445.87,687.236C2445.87,687.236 2524.31,602.933 2607.95,675.996C2607.95,675.996 2696.87,657.893 2762.71,691.671C2806.62,714.192 2821.12,737.817 2821.12,737.817L2369.25,732.197Z" style="fill:rgb(248,252,255);fill-rule:nonzero;"/>
    </g>
    <g transform="matrix(0.16607,0,0,0.16607,-14.5922,-48.0832)">
        <path d="M1324.27,561.181C1324.27,561.181 1350.37,510.187 1412.77,515.853C1412.77,515.853 1503.36,430.86 1599.96,504.521C1599.96,504.521 1702.65,486.27 1778.7,520.324C1829.4,543.029 1846.15,566.847 1846.15,566.847L1324.27,561.181Z" style="fill:rgb(248,252,255);fill-rule:nonzero;"/>
    </g>
    <g transform="matrix(0.16607,0,0,0.16607,-14.5922,-48.0832)">
        <path d="M1708.73,694.519C1708.73,694.519 1725.98,660.807 1767.23,664.552C1767.23,664.552 1827.12,608.363 1890.98,657.061C1890.98,657.061 1958.87,644.994 2009.15,667.508C2042.67,682.519 2053.74,698.265 2053.74,698.265L1708.73,694.519Z" style="fill:rgb(248,252,255);fill-rule:nonzero;"/>
    </g>
    <g transform="matrix(0.16607,0,0,0.16607,-14.5922,-48.0832)">
        <path d="M761.965,1656.95L280.663,1655.48C280.663,1655.48 159.246,1572.76 110.061,1424.1C287.42,1474.37 349.732,1606.99 411.792,1585.57C477.812,1562.8 756.109,1562.78 761.965,1656.95Z" style="fill:rgb(168,210,159);fill-rule:nonzero;"/>
    </g>
    <g transform="matrix(0.16607,0,0,0.16607,-14.5922,-48.0832)">
        <path d="M3097.43,960.695C3094.97,987.943 3091.53,1020.65 3087.45,1056.82C3085.41,1074.93 3083.2,1093.91 3080.86,1113.5C3067,1229.8 3048.68,1367.85 3034.05,1475.31C3032.36,1487.78 3030.7,1499.84 3029.12,1511.4C3016.67,1539.49 3002.76,1565.12 2987.33,1587.07C2971.34,1609.86 2953.72,1628.67 2934.43,1642.16C2927.93,1646.73 2921.23,1650.68 2914.33,1653.96L2590.03,1653.96L2463.16,1653.95L2042.1,1653.95C2042.1,1653.95 2022.38,1577.95 2147.38,1574.31C2367.57,1567.9 2244.44,1464.71 2378.3,1461.36C2389.92,1461.06 2403.49,1461.53 2419.41,1462.87C2434.51,1464.15 2449.11,1463.53 2463.16,1461.29C2466.3,1460.8 2469.41,1460.22 2472.48,1459.56C2475.17,1458.98 2477.83,1458.36 2480.47,1457.65C2480.8,1457.58 2481.13,1457.5 2481.46,1457.4C2486.1,1456.17 2490.7,1454.76 2495.21,1453.17C2496.14,1452.85 2497.07,1452.53 2497.99,1452.19C2504.62,1449.75 2511.11,1446.98 2517.43,1443.87C2522.99,1441.16 2528.44,1438.19 2533.76,1435C2536.4,1433.42 2539.01,1431.78 2541.59,1430.09C2542.58,1429.46 2543.55,1428.81 2544.52,1428.15C2545.47,1427.51 2546.42,1426.86 2547.37,1426.2C2554.56,1421.2 2561.51,1415.81 2568.19,1410.08C2568.72,1409.64 2569.24,1409.18 2569.75,1408.73C2570.27,1408.29 2570.79,1407.84 2571.29,1407.39C2572.73,1406.12 2574.16,1404.84 2575.58,1403.54C2577.9,1401.4 2580.2,1399.24 2582.44,1397.03C2587.58,1392.02 2592.52,1386.83 2597.29,1381.49C2601.05,1377.3 2604.67,1373.03 2608.19,1368.67C2619.24,1354.99 2629.17,1340.61 2637.89,1326.08C2673.79,1266.14 2688.99,1203.66 2677.58,1177.73C2677.52,1177.59 2677.45,1177.43 2677.39,1177.29C2677.39,1177.27 2677.38,1177.27 2677.38,1177.26C2673.94,1169.81 2668.23,1165.5 2660.09,1165.32C2644.16,1164.97 2626.18,1163.85 2608.19,1160.66C2546.36,1149.71 2484.38,1114.27 2504.97,1001.1C2531.56,855.004 2646.71,886.405 2684.58,823.615C2722.46,760.813 2774.53,684.926 2910.49,699.318C2960.2,704.576 2999.78,715.223 3029.72,733.289C3039.22,754.895 3047.78,777.029 3055.51,799.584C3056.64,802.885 3057.76,806.198 3058.85,809.511C3058.87,809.583 3058.9,809.655 3058.92,809.727C3058.93,809.739 3058.93,809.763 3058.93,809.775C3069.04,840.36 3077.68,871.653 3085.15,903.27C3086.42,908.66 3087.66,914.061 3088.86,919.463L3088.86,919.475C3090.63,927.433 3092.34,935.392 3093.97,943.374L3093.97,943.386C3095.16,949.159 3096.31,954.921 3097.43,960.695Z" style="fill:rgb(168,210,159);fill-rule:nonzero;"/>
    </g>
    <g transform="matrix(0.16607,0,0,0.16607,-14.5922,-48.0832)">
        <path d="M2608.19,1057.53L2608.19,1654.63L2912.9,1654.63C2913.14,1654.52 2913.39,1654.41 2913.63,1654.29C2913.79,1654.22 2913.94,1654.15 2914.1,1654.06L2934.43,1654.06L2934.43,1653.96L2914.33,1653.96C2921.23,1650.68 2927.93,1646.73 2934.43,1642.16C2953.72,1628.67 2971.34,1609.86 2987.33,1587.07C3002.76,1565.12 3016.67,1539.49 3029.12,1511.4C3030.79,1507.63 3032.43,1503.82 3034.05,1499.96L3034.05,1057.53L2608.19,1057.53Z" style="fill:rgb(249,221,191);fill-rule:nonzero;"/>
    </g>
    <g transform="matrix(0.16607,0,0,0.16607,-14.5922,-48.0832)">
        <path d="M3111.76,1113.96C3108.47,1225.24 3083.56,1381.98 3034.05,1499.96L3034.05,1057.53L3038.56,1057.48L3087.45,1056.82L3111.33,1056.5C3112.23,1073.66 3112.37,1093 3111.76,1113.96Z" style="fill:rgb(255,243,233);fill-rule:nonzero;"/>
    </g>
    <g transform="matrix(0.16607,0,0,0.16607,-14.5922,-48.0832)">
        <path d="M3085.15,903.27C3086.42,908.66 3087.66,914.061 3088.86,919.463L3088.86,919.475L3085.7,925.969L3021.81,1057.53L3007.26,1087.48L3002.76,1096.73L3002.76,1096.74L2578.87,1096.74L2608.19,1058.75L2609.14,1057.53L2798.73,809.463L2799.86,810.519L2927.64,810.135L2999.83,809.907L3058.92,809.727C3058.93,809.739 3058.93,809.763 3058.93,809.775C3069.04,840.36 3077.68,871.653 3085.15,903.27Z" style="fill:rgb(237,159,74);fill-rule:nonzero;"/>
    </g>
    <g transform="matrix(0.16607,0,0,0.16607,-14.5922,-48.0832)">
        <path d="M3093.97,943.374L3093.97,943.386L3038.56,1057.48L3038.53,1057.53L3034.05,1066.76L3034.05,1066.77L3019.49,1096.73L2595.59,1096.73L2608.18,1080.42L2608.19,1080.41L2625.86,1057.53L2807.93,821.73L2816.59,810.507L2927.7,810.171L2999.88,809.955L3058.93,809.775C3069.04,840.36 3077.68,871.653 3085.15,903.27C3086.42,908.66 3087.66,914.061 3088.86,919.463L3088.86,919.475C3090.63,927.433 3092.34,935.392 3093.97,943.374Z" style="fill:rgb(249,221,191);fill-rule:nonzero;"/>
    </g>
    <g transform="matrix(0.16607,0,0,0.16607,-14.5922,-48.0832)">
        <path d="M3111.33,1056.5C3110.61,1042.5 3109.38,1029.96 3107.67,1019.15C3105.54,1005.76 3103.27,992.36 3100.85,978.952C3099.74,972.866 3098.6,966.78 3097.43,960.695C3096.31,954.921 3095.16,949.159 3093.97,943.386L3093.97,943.374C3092.34,935.392 3090.63,927.433 3088.86,919.475L3088.86,919.463C3087.66,914.061 3086.42,908.66 3085.15,903.27C3077.68,871.653 3069.04,840.36 3058.93,809.775C3058.93,809.763 3058.93,809.739 3058.92,809.727C3058.9,809.655 3058.87,809.583 3058.85,809.511L2926.77,809.499L2798.73,809.463L2799.68,810.747L2807.93,821.73L2984.79,1057.53L3007.26,1087.48L3014.2,1096.73L3026.16,1112.67L3034.05,1112.79L3080.86,1113.5L3111.76,1113.96C3112.37,1093 3112.23,1073.66 3111.33,1056.5Z" style="fill:rgb(237,159,74);fill-rule:nonzero;"/>
    </g>
    <g transform="matrix(0.16607,0,0,0.16607,-14.5922,-48.0832)">
        <path d="M2740.26,990.977L2734.15,990.977C2713.39,990.977 2696.56,1007.81 2696.56,1028.57L2696.56,1124.09L2776.63,1124.09L2776.63,1027.35C2776.63,1007.26 2760.34,990.977 2740.26,990.977Z" style="fill:rgb(239,205,175);fill-rule:nonzero;"/>
    </g>
    <g transform="matrix(0.16607,0,0,0.16607,-14.5922,-48.0832)">
        <path d="M2774.29,1028.6L2698.89,1028.6L2698.89,1028.56C2698.89,1009.13 2714.71,993.308 2734.15,993.308L2740.26,993.308C2759.03,993.308 2774.29,1008.58 2774.29,1027.35L2774.29,1028.6ZM2698.89,1034.47L2732.77,1034.47L2732.77,1121.75L2698.89,1121.75L2698.89,1034.47ZM2774.29,1121.75L2738.76,1121.75L2738.76,1034.47L2774.29,1034.47L2774.29,1121.75ZM2740.26,988.651L2734.15,988.651C2712.14,988.651 2694.23,1006.56 2694.23,1028.56L2694.23,1126.42L2778.96,1126.42L2778.96,1027.35C2778.96,1006.01 2761.61,988.651 2740.26,988.651Z" style="fill:rgb(255,243,233);fill-rule:nonzero;"/>
    </g>
    <g transform="matrix(0.16607,0,0,0.16607,-14.5922,-48.0832)">
        <path d="M2864.53,990.977L2858.41,990.977C2837.65,990.977 2820.83,1007.81 2820.83,1028.57L2820.83,1124.09L2900.89,1124.09L2900.89,1027.35C2900.89,1007.26 2884.61,990.977 2864.53,990.977Z" style="fill:rgb(239,205,175);fill-rule:nonzero;"/>
    </g>
    <g transform="matrix(0.16607,0,0,0.16607,-14.5922,-48.0832)">
        <path d="M2898.57,1028.6L2823.16,1028.6L2823.16,1028.56C2823.16,1009.13 2838.97,993.308 2858.41,993.308L2864.52,993.308C2883.3,993.308 2898.57,1008.58 2898.57,1027.35L2898.57,1028.6ZM2823.16,1034.47L2857.03,1034.47L2857.03,1121.75L2823.16,1121.75L2823.16,1034.47ZM2898.57,1121.75L2863.04,1121.75L2863.04,1034.47L2898.57,1034.47L2898.57,1121.75ZM2864.52,988.651L2858.41,988.651C2836.4,988.651 2818.49,1006.56 2818.49,1028.56L2818.49,1126.42L2903.24,1126.42L2903.24,1027.35C2903.24,1006.01 2885.87,988.651 2864.52,988.651Z" style="fill:rgb(255,243,233);fill-rule:nonzero;"/>
    </g>
    <g transform="matrix(0.16607,0,0,0.16607,-14.5922,-48.0832)">
        <path d="M2770.38,1176.97L2671.05,1381.49L2369.25,1381.49L2526.59,1177.71L2770.38,1176.97Z" style="fill:rgb(237,159,74);fill-rule:nonzero;"/>
    </g>
    <g transform="matrix(0.16607,0,0,0.16607,-14.5922,-48.0832)">
        <path d="M2779.43,1176.97L2680.09,1381.49L2378.29,1381.49L2535.63,1177.71L2779.43,1176.97Z" style="fill:rgb(249,221,191);fill-rule:nonzero;"/>
    </g>
    <g transform="matrix(0.16607,0,0,0.16607,-14.5922,-48.0832)">
        <path d="M2679.43,1381.49L2679.43,1654.07L2378.3,1654.66L2378.3,1381.49L2679.43,1381.49Z" style="fill:rgb(249,221,191);fill-rule:nonzero;"/>
    </g>
    <g transform="matrix(0.16607,0,0,0.16607,-14.5922,-48.0832)">
        <path d="M2934.43,1381.49L2934.43,1642.16C2927.93,1646.73 2921.23,1650.68 2914.33,1653.96L2934.43,1653.96L2934.43,1654.06L2679.43,1654.06L2679.43,1381.49L2934.43,1381.49Z" style="fill:rgb(255,243,233);fill-rule:nonzero;"/>
    </g>
    <g transform="matrix(0.16607,0,0,0.16607,-14.5922,-48.0832)">
        <path d="M2962.45,1393.58L2688.51,1393.58L2526.59,1177.71L2608.19,1177.72L2795.82,1177.76L2962.45,1393.58Z" style="fill:rgb(237,159,74);fill-rule:nonzero;"/>
    </g>
    <g transform="matrix(0.16607,0,0,0.16607,-14.5922,-48.0832)">
        <path d="M2590.03,1426.89L2590.03,1654.66L2463.16,1654.66L2463.16,1428.99C2463.16,1410.19 2471.2,1393.26 2484.04,1381.49C2495.51,1370.93 2510.82,1364.5 2527.64,1364.5C2544.2,1364.5 2559.26,1370.96 2570.42,1381.49C2582.5,1392.86 2590.03,1408.99 2590.03,1426.89Z" style="fill:rgb(239,205,175);fill-rule:nonzero;"/>
    </g>
    <g transform="matrix(0.16607,0,0,0.16607,-14.5922,-48.0832)">
        <path d="M2962.45,1393.58L2944.58,1393.58L2696.56,1177.72L2795.82,1177.76L2962.45,1393.58Z" style="fill:rgb(229,134,56);fill-rule:nonzero;"/>
    </g>
    <g transform="matrix(0.16607,0,0,0.16607,-14.5922,-48.0832)">
        <path d="M2527.31,1372.49L2527.28,1372.49C2497.02,1372.49 2472.48,1397.02 2472.48,1427.29L2472.48,1645.66L2580.33,1645.66L2580.33,1425.51C2580.33,1396.22 2556.59,1372.49 2527.31,1372.49Z" style="fill:rgb(255,243,233);fill-rule:nonzero;"/>
    </g>
    <g transform="matrix(0.16607,0,0,0.16607,-14.5922,-48.0832)">
        <path d="M2573.22,1426.24L2573.22,1428.14L2479.97,1428.14L2479.97,1427.78C2479.97,1401.62 2501.19,1380.4 2527.36,1380.4L2527.38,1380.4C2552.7,1380.4 2573.22,1400.93 2573.22,1426.24Z" style="fill:rgb(249,221,191);fill-rule:nonzero;"/>
    </g>
    <g transform="matrix(0.16607,0,0,0.16607,-14.5922,-48.0832)">
        <path d="M2569.24,1407.51C2569.21,1407.46 2569.19,1407.42 2569.18,1407.37C2568.87,1406.7 2568.54,1406.04 2568.21,1405.38C2567.93,1404.84 2567.65,1404.31 2567.35,1403.79C2567.26,1403.61 2567.14,1403.42 2567.03,1403.23C2566.92,1403.04 2566.81,1402.86 2566.71,1402.68C2566.67,1402.62 2566.64,1402.57 2566.61,1402.51C2566.6,1402.5 2566.6,1402.48 2566.58,1402.47C2566.43,1402.21 2566.26,1401.94 2566.08,1401.68C2565.83,1401.27 2565.57,1400.86 2565.29,1400.47C2565.03,1400.06 2564.74,1399.67 2564.45,1399.28C2564.27,1399.03 2564.08,1398.77 2563.88,1398.52C2563.62,1398.16 2563.34,1397.81 2563.06,1397.47C2562.8,1397.14 2562.53,1396.82 2562.25,1396.49C2561.98,1396.16 2561.69,1395.83 2561.4,1395.52C2561.12,1395.22 2560.85,1394.92 2560.56,1394.62C2560.36,1394.41 2560.16,1394.2 2559.96,1394C2559.65,1393.68 2559.32,1393.36 2559,1393.06C2558.73,1392.81 2558.47,1392.56 2558.2,1392.32C2558.03,1392.16 2557.86,1392 2557.69,1391.86L2556.53,1393.43L2556.53,1393.45C2561.62,1397.97 2565.65,1403.66 2568.19,1410.08C2568.72,1409.64 2569.24,1409.18 2569.75,1408.73C2569.59,1408.32 2569.42,1407.91 2569.24,1407.51ZM2481.94,1426.2C2482.37,1413.68 2487.89,1402.44 2496.49,1394.46C2497.43,1393.59 2498.42,1392.75 2499.44,1391.96C2507.14,1385.93 2516.85,1382.34 2527.38,1382.34C2537.17,1382.34 2546.19,1385.56 2553.5,1390.97C2554.55,1391.75 2555.55,1392.58 2556.51,1393.43L2556.53,1393.43L2556.53,1393.45C2561.62,1397.97 2565.65,1403.66 2568.19,1410.08C2570.19,1415.08 2571.27,1420.51 2571.28,1426.2L2481.94,1426.2ZM2571.29,1407.39C2566.15,1395.49 2556.31,1386.06 2544.1,1381.49C2538.89,1379.52 2533.25,1378.45 2527.36,1378.45C2521.38,1378.45 2515.64,1379.52 2510.34,1381.49C2491.49,1388.44 2478.04,1406.56 2478.04,1427.79L2478.04,1430.09L2575.17,1430.09L2575.17,1426.24C2575.17,1419.55 2573.79,1413.18 2571.29,1407.39Z" style="fill:rgb(239,205,175);fill-rule:nonzero;"/>
    </g>
    <g transform="matrix(0.16607,0,0,0.16607,-14.5922,-48.0832)">
        <path d="M2558.34,1541.42C2558.34,1539.58 2559.83,1538.09 2561.66,1538.09C2563.5,1538.09 2564.99,1539.58 2564.99,1541.42C2564.99,1543.25 2563.5,1544.74 2561.66,1544.74C2559.83,1544.74 2558.34,1543.25 2558.34,1541.42Z" style="fill:rgb(239,205,175);fill-rule:nonzero;"/>
    </g>
    <g transform="matrix(0.16607,0,0,0.16607,-14.5922,-48.0832)">
        <path d="M2557.76,1391.77L2556.52,1393.44L2532.02,1426.2L2529.12,1430.08L2527.25,1430.08L2523.9,1426.2L2496.48,1394.47L2495.18,1392.96L2498.11,1390.43L2499.43,1391.95L2528.03,1425.04L2553.5,1390.98L2554.66,1389.44L2557.76,1391.77Z" style="fill:rgb(239,205,175);fill-rule:nonzero;"/>
    </g>
    <g transform="matrix(0.16607,0,0,0.16607,-14.5922,-48.0832)">
        <rect x="2469.43" y="1435" width="119.43" height="8.87" style="fill:rgb(239,205,175);fill-rule:nonzero;"/>
    </g>
    <g transform="matrix(0.16607,0,0,0.16607,-14.5922,-48.0832)">
        <path d="M2571.76,1636.32L2481.46,1636.32L2481.46,1453.17L2571.76,1453.17L2571.76,1636.32ZM2480.47,1452.19L2480.47,1637.3L2572.74,1637.3L2572.74,1452.19L2480.47,1452.19Z" style="fill:rgb(239,205,175);fill-rule:nonzero;"/>
    </g>
    <g transform="matrix(0.16607,0,0,0.16607,-14.5922,-48.0832)">
        <path d="M2997.22,1572.15C2994.01,1577.29 2990.71,1582.27 2987.33,1587.07C2971.34,1609.86 2953.72,1628.67 2934.43,1642.16C2927.93,1646.73 2921.23,1650.68 2914.33,1653.96C2914.25,1654 2914.17,1654.04 2914.1,1654.06C2913.94,1654.15 2913.79,1654.22 2913.63,1654.29C2913.39,1654.41 2913.14,1654.52 2912.9,1654.63C2909.56,1656.19 2906.19,1657.58 2902.78,1658.81L2716.28,1659.8C2723.24,1627.71 2741.5,1605.31 2767.13,1590.19C2767.14,1590.19 2767.14,1590.18 2767.15,1590.18C2771.94,1587.36 2776.96,1584.79 2782.23,1582.48L2782.24,1582.48C2783.85,1581.76 2785.47,1581.06 2787.14,1580.4C2789.97,1579.25 2792.84,1578.17 2795.79,1577.15L2795.8,1577.15C2798.29,1576.28 2800.81,1575.47 2803.38,1574.7C2809.09,1572.97 2815.01,1571.45 2821.08,1570.12C2845.55,1564.79 2872.71,1562.61 2900.99,1562.61C2917.78,1562.61 2934.96,1563.38 2952.2,1564.71C2969.06,1566 2983.54,1568.8 2997.22,1572.15Z" style="fill:rgb(130,179,120);fill-rule:nonzero;"/>
    </g>
    <g transform="matrix(0.16607,0,0,0.16607,-14.5922,-48.0832)">
        <path d="M2803.45,1602.53C2803.45,1602.53 2771.8,1486.66 2747.62,1492.76C2723.44,1498.87 2803.45,1602.53 2803.45,1602.53Z" style="fill:rgb(130,179,120);fill-rule:nonzero;"/>
    </g>
    <g transform="matrix(0.16607,0,0,0.16607,-14.5922,-48.0832)">
        <path d="M2813.5,1613.61C2813.5,1613.61 2731.76,1525.6 2713.16,1542.22C2694.57,1558.83 2813.5,1613.61 2813.5,1613.61Z" style="fill:rgb(130,179,120);fill-rule:nonzero;"/>
    </g>
    <g transform="matrix(0.16607,0,0,0.16607,-14.5922,-48.0832)">
        <path d="M2821.75,1633.12C2821.75,1633.12 2826.98,1513.12 2802.1,1511.55C2777.21,1509.99 2821.75,1633.12 2821.75,1633.12Z" style="fill:rgb(130,179,120);fill-rule:nonzero;"/>
    </g>
    <g transform="matrix(0.16607,0,0,0.16607,-14.5922,-48.0832)">
        <path d="M1062.22,850.951C1062.22,850.951 1137.63,982.735 1122.5,1028.18C1107.38,1073.63 1056.77,1076.54 1056.77,1076.54L1062.22,850.951Z" style="fill:rgb(249,221,191);fill-rule:nonzero;"/>
    </g>
    <g transform="matrix(0.16607,0,0,0.16607,-14.5922,-48.0832)">
        <path d="M1101.32,1661.96L996.039,1661.96C988.495,1656.84 998.073,1606.83 998.073,1606.83C998.073,1606.83 1026.81,1595.93 1031.77,1618.1C1036.75,1640.25 1068.37,1647.3 1085.1,1650C1096.56,1651.86 1100.18,1658.16 1101.32,1661.96Z" style="fill:rgb(35,56,98);fill-rule:nonzero;"/>
    </g>
    <g transform="matrix(0.16607,0,0,0.16607,-14.5922,-48.0832)">
        <path d="M945.177,1661.96L839.895,1661.96C832.352,1656.84 841.93,1606.83 841.93,1606.83C841.93,1606.83 870.664,1595.93 875.626,1618.1C880.604,1640.25 912.226,1647.3 928.961,1650C940.413,1651.86 944.032,1658.16 945.177,1661.96Z" style="fill:rgb(35,56,98);fill-rule:nonzero;"/>
    </g>
    <g transform="matrix(0.16607,0,0,0.16607,-14.5922,-48.0832)">
        <path d="M1072.99,1151.74C1072.99,1151.74 1068.26,1210.78 1062.7,1281.75C1055.14,1378.16 1034.75,1617.19 1034.75,1617.19C1034.75,1617.19 1021.38,1628.59 991.776,1622.35C991.776,1622.35 966.574,1539.89 959.038,1445.78C958.921,1444.23 958.804,1442.68 958.687,1441.13C951.677,1345.31 940.775,1143.56 940.775,1143.56L1072.99,1151.74Z" style="fill:rgb(43,71,139);fill-rule:nonzero;"/>
    </g>
    <g transform="matrix(0.16607,0,0,0.16607,-14.5922,-48.0832)">
        <path d="M1074.61,1131.34C1074.61,1131.34 1068.26,1210.78 1062.7,1281.75L959.038,1445.78C958.921,1444.23 958.804,1442.68 958.687,1441.13C951.677,1345.31 940.775,1143.56 940.775,1143.56L1074.61,1131.34Z" style="fill:rgb(35,56,98);fill-rule:nonzero;"/>
    </g>
    <g transform="matrix(0.16607,0,0,0.16607,-14.5922,-48.0832)">
        <path d="M1044.4,1131.34C1044.4,1131.34 969.212,1318.49 945.177,1389.42C928.057,1439.96 879.774,1617.22 879.774,1617.22C879.774,1617.22 858.778,1623.61 841.132,1611.26C841.132,1611.26 823.169,1430.15 859.454,1379.09C878.705,1351.99 864.237,1097.45 942.291,1095.27C1020.34,1093.09 1044.4,1131.34 1044.4,1131.34Z" style="fill:rgb(43,71,139);fill-rule:nonzero;"/>
    </g>
    <g transform="matrix(0.16607,0,0,0.16607,-14.5922,-48.0832)">
        <path d="M1010.81,855.453C999.335,861.498 988.134,861.875 978.423,859.813C969.539,857.944 961.912,854.023 956.479,850.551C950.904,846.987 947.626,843.883 947.626,843.883C947.626,843.883 948.014,843.322 948.667,842.219C952.058,836.419 962.34,815.568 957.766,782.064C957.705,781.625 961.023,782.249 966.037,783.433C980.956,786.966 1010.95,795.472 1012.27,795.85L1012.32,795.85C1012.32,795.85 1012.69,802.896 1013.93,815.527C1014.03,816.64 1014.14,817.804 1014.26,819.009C1014.42,820.489 1014.57,822.062 1014.75,823.675C1016.14,836.807 1010.81,855.453 1010.81,855.453Z" style="fill:rgb(255,178,125);fill-rule:nonzero;"/>
    </g>
    <g transform="matrix(0.16607,0,0,0.16607,-14.5922,-48.0832)">
        <path d="M1013.93,815.527C991.657,820.632 958.419,787.752 958.419,787.752C960.85,785.945 963.402,784.515 966.037,783.433C980.956,786.966 1010.95,795.472 1012.27,795.85L1012.32,795.85C1012.32,795.85 1012.69,802.896 1013.93,815.527Z" style="fill:rgb(237,151,93);fill-rule:nonzero;"/>
    </g>
    <g transform="matrix(0.16607,0,0,0.16607,-14.5922,-48.0832)">
        <path d="M1084.75,1099.82C1083.13,1121.27 1078.6,1136.63 1068.66,1136.63C1068.66,1136.63 1024.49,1152.18 971.702,1152.6C961.384,1152.67 946.764,1150.66 934.649,1148.63C922.273,1146.54 912.467,1144.42 912.467,1144.42C901.852,1141.97 890.137,1135.42 891.711,1123.31C892.54,1116.87 893.145,1108.6 893.555,1099.02C893.583,1098.4 893.61,1097.79 893.638,1097.16C894.802,1069.13 894.616,1030.5 894.756,993.52C894.858,970.808 895.082,948.729 895.845,930.104C895.845,930.104 885.425,856.948 896.991,844.945C910.549,830.902 950.349,826.591 952.845,827.131C953.59,826.973 954.344,826.786 955.108,826.656C955.108,826.656 989.721,845.547 1014.91,831.411C1014.91,831.411 1051.65,839.777 1062.22,850.951C1065.87,854.797 1080.42,878.413 1080.82,904.347C1081.37,940.506 1079.96,981.582 1079.96,981.591C1080.34,987.467 1080.97,995.038 1081.66,1003.68C1082.4,1012.89 1083.21,1023.29 1083.9,1034.14C1084.25,1039.61 1084.57,1045.18 1084.83,1050.76C1085.61,1067.98 1085.85,1085.3 1084.75,1099.82Z" style="fill:rgb(249,221,191);fill-rule:nonzero;"/>
    </g>
    <g transform="matrix(0.16607,0,0,0.16607,-14.5922,-48.0832)">
        <path d="M953.013,827.167C953.013,827.167 990.524,865.858 1017.34,857.932C1017.34,857.932 1020.92,852.707 1008.84,851.032C996.759,849.356 983.722,850.042 953.013,827.167Z" style="fill:rgb(242,204,170);fill-rule:nonzero;"/>
    </g>
    <g transform="matrix(0.16607,0,0,0.16607,-14.5922,-48.0832)">
        <path d="M1021.49,794.069C1021.49,794.069 1012.34,797.356 1000.66,798.926C983.587,801.231 961.137,799.872 954.084,779.214C942.204,744.444 927.03,723.597 961.988,709.398C980.702,701.797 992.674,701.394 1000.81,704.295C1007.87,706.798 1012.04,711.8 1015.19,716.747C1021.98,727.39 1035.63,787.983 1021.49,794.069Z" style="fill:rgb(255,178,125);fill-rule:nonzero;"/>
    </g>
    <g transform="matrix(0.16607,0,0,0.16607,-14.5922,-48.0832)">
        <path d="M1017.84,695.749C1025.73,697.667 1029.29,710.106 1021.77,715.278C1008.29,724.55 991.826,720.912 985.759,723.61C977.065,727.473 975.503,742.057 975.347,746.685C975.19,751.323 974.581,755.232 962.773,752.458C960.839,752.005 959.444,752.139 958.486,752.714C953.588,755.62 959.847,769.705 961.735,772.753C961.735,772.753 964.452,782.843 958.423,787.754C957.693,788.341 945.85,793.518 917.309,749.84C912.823,742.984 908.54,727.539 915.468,712.668C922.387,697.797 943.789,679.382 969.472,679.379C989.792,679.377 1001.13,691.688 1017.84,695.749Z" style="fill:rgb(22,53,96);fill-rule:nonzero;"/>
    </g>
    <g transform="matrix(0.16607,0,0,0.16607,-14.5922,-48.0832)">
        <path d="M1021.76,771.622C1021.76,771.622 1022.49,776.123 1012.03,779.715C1012.03,779.715 1003.24,782.732 1001.63,778.116C1001.63,778.116 1008.61,771.47 1021.76,771.622Z" style="fill:white;fill-rule:nonzero;"/>
    </g>
    <g transform="matrix(0.16607,0,0,0.16607,-14.5922,-48.0832)">
        <path d="M983.89,1074.21C983.89,1074.21 1012.1,1092.83 1023,1094.02C1030.41,1094.83 1059.68,1093.63 1059.84,1089.93C1060.07,1084.71 1041.96,1079.19 1037.27,1077.09C1032.58,1074.99 1028.91,1072.57 1028.94,1070.55C1028.98,1068.52 1047.08,1075.22 1045.13,1070.81C1043.18,1066.39 1026.45,1058.7 1022.4,1057.96C1018.36,1057.22 1005.33,1061.64 1000.26,1059.3C995.192,1056.96 983.89,1074.21 983.89,1074.21Z" style="fill:rgb(237,151,93);fill-rule:nonzero;"/>
    </g>
    <g transform="matrix(0.16607,0,0,0.16607,-14.5922,-48.0832)">
        <path d="M996.273,1057.88C1000.03,1064.92 983.89,1074.21 983.89,1074.21C983.89,1074.21 939.283,1095.42 893.555,1099.02C893.583,1098.4 893.61,1097.79 893.638,1097.16C894.802,1069.13 894.616,1030.5 894.756,993.52C894.756,993.52 990.087,1046.27 996.273,1057.88Z" style="fill:rgb(242,204,170);fill-rule:nonzero;"/>
    </g>
    <g transform="matrix(0.16607,0,0,0.16607,-14.5922,-48.0832)">
        <path d="M906.768,838.145C906.768,838.145 887.446,846.306 864.476,889.225C841.506,932.144 819.777,1023.03 829.09,1037.8C838.402,1052.58 916.824,1086.41 985.188,1077.39C985.188,1077.39 1002.15,1061.95 998.726,1056C998.726,1056 884.103,1009.27 884.031,1003.68C883.96,998.091 924.923,949.936 927.251,925.961C929.579,901.986 906.768,838.145 906.768,838.145Z" style="fill:rgb(249,221,191);fill-rule:nonzero;"/>
    </g>
    <g transform="matrix(0.16607,0,0,0.16607,-14.5922,-48.0832)">
        <path d="M1020.18,946.708C1020.18,946.708 1018.82,961.411 1020.18,965.223C1021.54,969.035 1060.58,969.89 1061.57,966.312C1062.55,962.734 1064.02,951.882 1061.57,949.976C1059.12,948.07 1020.18,946.708 1020.18,946.708Z" style="fill:rgb(255,178,125);fill-rule:nonzero;"/>
    </g>
    <g transform="matrix(0.16607,0,0,0.16607,-14.5922,-48.0832)">
        <path d="M1045.94,1083.23L1037.17,1083.23C1015.44,1083.23 997.662,1065.45 997.662,1043.72L997.662,1005.86C997.662,984.13 998.134,964.822 1021.5,957.647L1062.57,960.748C1098.05,970.542 1085.45,984.13 1085.45,1005.86L1085.45,1043.72C1085.45,1065.45 1067.67,1083.23 1045.94,1083.23Z" style="fill:rgb(255,178,125);fill-rule:nonzero;"/>
    </g>
    <g transform="matrix(0.16607,0,0,0.16607,-14.5922,-48.0832)">
        <path d="M1061.61,960.214C1061.61,960.214 1071.29,962.696 1078.21,958.877C1088.19,953.37 1100.13,950.286 1102.21,947.769C1105.75,943.507 1122.97,925.961 1122.97,925.961L1131.25,931.487C1131.25,931.487 1123.27,963.898 1116.82,969.686C1110.37,975.474 1098.81,996.027 1079.32,998.937C1069.2,1000.45 1061.61,960.214 1061.61,960.214Z" style="fill:rgb(255,178,125);fill-rule:nonzero;"/>
    </g>
    <g transform="matrix(0.16607,0,0,0.16607,-14.5922,-48.0832)">
        <path d="M1122.97,925.961C1122.97,925.961 1119.95,917.811 1122.44,916.742C1124.94,915.673 1126.39,921.607 1126.39,921.607C1126.39,921.607 1132.89,908.123 1139.5,913.945C1146.11,919.768 1131.25,931.487 1131.25,931.487L1122.97,925.961Z" style="fill:rgb(255,178,125);fill-rule:nonzero;"/>
    </g>
    <g transform="matrix(0.16607,0,0,0.16607,-14.5922,-48.0832)">
        <path d="M1020.01,958.089C1020.01,958.089 1010.33,960.571 1003.41,956.752C993.429,951.245 981.489,948.161 979.402,945.644C975.868,941.382 958.645,923.836 958.645,923.836L950.368,929.362C950.368,929.362 958.34,961.773 964.794,967.561C971.249,973.349 982.809,993.902 1002.29,996.812C1012.41,998.324 1020.01,958.089 1020.01,958.089Z" style="fill:rgb(255,178,125);fill-rule:nonzero;"/>
    </g>
    <g transform="matrix(0.16607,0,0,0.16607,-14.5922,-48.0832)">
        <path d="M958.645,923.836C958.645,923.836 961.667,915.686 959.172,914.617C956.676,913.548 955.22,919.482 955.22,919.482C955.22,919.482 948.722,905.998 942.115,911.82C935.509,917.643 950.368,929.362 950.368,929.362L958.645,923.836Z" style="fill:rgb(255,178,125);fill-rule:nonzero;"/>
    </g>
    <g transform="matrix(0.16607,0,0,0.16607,-14.5922,-48.0832)">
        <path d="M1078.53,1028.18C1078.53,1028.18 1101.51,1038.26 1113.63,1041.83C1124.94,1045.15 1138.92,1053.08 1139.21,1054.37C1139.5,1055.65 1139.65,1066.87 1133.92,1069.07C1128.19,1071.27 1066,1080.16 1056.77,1076.54C1056.77,1076.54 1063.41,1031.95 1078.53,1028.18Z" style="fill:rgb(255,178,125);fill-rule:nonzero;"/>
    </g>
    <g transform="matrix(0.16607,0,0,0.16607,-14.5922,-48.0832)">
        <path d="M1138.35,1031.01C1138.35,1031.01 1127.39,1031.78 1120.95,1039.83C1120.95,1039.83 1118.32,1043.33 1113.63,1041.83C1113.63,1041.83 1096.39,1052.84 1107.38,1073.63C1107.38,1073.63 1130.61,1072.18 1133.92,1069.07C1137.23,1065.96 1138.35,1031.01 1138.35,1031.01Z" style="fill:white;fill-rule:nonzero;"/>
    </g>
    <g transform="matrix(0.16607,0,0,0.16607,-14.5922,-48.0832)">
        <path d="M1133.92,1069.07C1133.92,1069.07 1145.52,1066.32 1147.61,1054.71C1149.71,1043.09 1147.55,1032.11 1139.9,1031.14C1132.26,1030.17 1127.43,1034.31 1125.34,1039.85C1123.24,1045.38 1117.09,1069.62 1133.92,1069.07Z" style="fill:rgb(175,205,251);fill-rule:nonzero;"/>
    </g>
    <g transform="matrix(0.16607,0,0,0.16607,-14.5922,-48.0832)">
        <path d="M1044.69,868.296C1044.69,868.296 1067.86,867.256 1076.69,889.285C1085.53,911.314 1087.26,949.194 1066.77,955.166C1052.8,959.239 1037.75,956.366 1024.27,951.201C1017.14,948.474 1014.72,942.471 1010.65,937.724C984.515,907.23 992.955,871.019 1044.69,868.296Z" style="fill:rgb(255,178,125);fill-rule:nonzero;"/>
    </g>
    <g transform="matrix(0.16607,0,0,0.16607,-14.5922,-48.0832)">
        <path d="M997.662,1022.71C997.662,1022.71 1043.21,1032.47 1085.4,1022.71C1085.4,1022.71 1090.23,1030.93 1090.85,1033.39C1092.18,1038.6 1089.79,1047.16 1080.4,1058.06C1066.6,1074.09 1019.43,1086.05 1002.89,1075.8C988.394,1066.81 985.127,1036.22 997.662,1022.71Z" style="fill:white;fill-rule:nonzero;"/>
    </g>
    <g transform="matrix(0.16607,0,0,0.16607,-14.5922,-48.0832)">
        <path d="M1048.63,1042.11C1057.1,1045.05 1069.37,1051.9 1080.4,1058.06C1090.7,1063.8 1102.57,1074.63 1102.57,1075.95C1102.57,1077.27 1100.23,1088.24 1094.16,1089.12C1088.09,1090 1025.47,1084.91 1017.27,1079.33C1017.27,1079.33 1007.79,1076.62 1006.57,1065.79C1004.79,1050.05 1012.52,1029.53 1048.63,1042.11Z" style="fill:rgb(255,178,125);fill-rule:nonzero;"/>
    </g>
    <g transform="matrix(0.16607,0,0,0.16607,-14.5922,-48.0832)">
        <path d="M1106.9,1052.99C1106.9,1052.99 1096.04,1051.31 1087.98,1057.73C1087.98,1057.73 1084.64,1060.57 1080.4,1058.06C1080.4,1058.06 1061.15,1064.98 1067.26,1087.7C1067.26,1087.7 1090.25,1091.42 1094.16,1089.12C1098.07,1086.81 1106.9,1052.99 1106.9,1052.99Z" style="fill:white;fill-rule:nonzero;"/>
    </g>
    <g transform="matrix(0.16607,0,0,0.16607,-14.5922,-48.0832)">
        <path d="M1094.16,1089.12C1094.16,1089.12 1106.08,1089.01 1110.69,1078.14C1115.3,1067.28 1115.63,1056.09 1108.39,1053.45C1101.14,1050.82 1095.53,1053.78 1092.26,1058.72C1088.99,1063.66 1077.63,1085.93 1094.16,1089.12Z" style="fill:rgb(175,205,251);fill-rule:nonzero;"/>
    </g>
    <g transform="matrix(0.16607,0,0,0.16607,-14.5922,-48.0832)">
        <path d="M1053.95,934.625C1053.95,934.625 1058.63,940.135 1064.77,938.132C1070.92,936.13 1071.86,929.453 1071.86,929.453C1071.86,929.453 1062.91,929.453 1053.95,934.625Z" style="fill:white;fill-rule:nonzero;"/>
    </g>
    <g transform="matrix(0.16607,0,0,0.16607,-14.5922,-48.0832)">
        <path d="M1024.54,920.576C1024.54,920.576 1015.55,912.696 1012.69,918.413C1009.83,924.131 1016.37,932.501 1021.68,932.604C1026.99,932.707 1028.07,923.094 1024.54,920.576Z" style="fill:rgb(237,151,93);fill-rule:nonzero;"/>
    </g>
    <g transform="matrix(0.16607,0,0,0.16607,-14.5922,-48.0832)">
        <path d="M1025.87,920.268C1025.87,920.268 1019.01,914.251 1016.83,918.617C1014.64,922.982 1019.63,929.374 1023.69,929.452C1027.74,929.531 1028.57,922.19 1025.87,920.268Z" style="fill:rgb(255,178,125);fill-rule:nonzero;"/>
    </g>
    <g transform="matrix(0.16607,0,0,0.16607,-14.5922,-48.0832)">
        <path d="M1017.79,879.856C1017.79,879.856 1028.91,894.977 1052.29,894.42C1052.29,894.42 1061.48,893.091 1065.37,887.146C1065.37,887.146 1058,890.106 1054.1,888.854C1054.1,888.854 1076.14,885.488 1075.86,879.595C1075.58,873.703 1064.02,867.098 1055.58,866.087C1048.86,865.282 1028.55,865.416 1022.4,868.785C1016.25,872.155 1016.07,877.889 1017.79,879.856Z" style="fill:rgb(255,152,67);fill-rule:nonzero;"/>
    </g>
    <g transform="matrix(0.16607,0,0,0.16607,-14.5922,-48.0832)">
        <path d="M1027.71,867.098C1027.71,867.098 1002.2,871.241 997.662,891.575C995.836,899.755 999.696,911.688 999.696,911.688C999.696,911.688 999.182,887.484 1019.58,886.47C1034.42,885.732 1044.14,884.224 1044.14,884.224L1027.71,867.098Z" style="fill:rgb(255,152,67);fill-rule:nonzero;"/>
    </g>
    <g transform="matrix(0.16607,0,0,0.16607,-14.5922,-48.0832)">
        <path d="M1031.38,988.978C1031.38,989.824 1030.69,990.509 1029.85,990.509C1029,990.509 1028.32,989.824 1028.32,988.978C1028.32,988.132 1029,987.446 1029.85,987.446C1030.69,987.446 1031.38,988.132 1031.38,988.978Z" style="fill:rgb(237,151,93);fill-rule:nonzero;"/>
    </g>
    <g transform="matrix(0.16607,0,0,0.16607,-14.5922,-48.0832)">
        <path d="M1069.73,988.978C1069.73,989.824 1069.05,990.509 1068.2,990.509C1067.36,990.509 1066.67,989.824 1066.67,988.978C1066.67,988.132 1067.36,987.446 1068.2,987.446C1069.05,987.446 1069.73,988.132 1069.73,988.978Z" style="fill:rgb(237,151,93);fill-rule:nonzero;"/>
    </g>
    <g transform="matrix(0.16607,0,0,0.16607,-14.5922,-48.0832)">
        <path d="M1101.9,1017.96C1100.7,1013.4 1097.48,1009.64 1093.2,1007.65C1087.75,1005.13 1080.02,1001.74 1076.49,1001.1C1070.75,1000.06 1059.01,993.151 1058.05,996.739C1057.09,1000.33 1066.34,1004.48 1066.38,1008.44C1066.43,1012.39 1040.42,1022.07 1041.11,1026.17C1041.8,1030.27 1049.22,1039.45 1059.3,1037C1069.38,1034.55 1094.41,1028.68 1100.19,1027.06C1103.25,1026.2 1102.95,1021.95 1101.9,1017.96Z" style="fill:rgb(237,151,93);fill-rule:nonzero;"/>
    </g>
    <g transform="matrix(0.16607,0,0,0.16607,-14.5922,-48.0832)">
        <path d="M1387.67,1593.9C1387.67,1593.9 1383.51,1601.31 1386.7,1609.5C1388.71,1614.65 1388.92,1620.07 1387.23,1624.65C1385.79,1628.52 1380.58,1629.15 1378.3,1625.71L1354.21,1589.4C1352.16,1586.31 1353.22,1582.13 1356.51,1580.4C1359.38,1578.88 1362.7,1577.09 1365.18,1575.62C1370.6,1572.41 1378.31,1574.86 1378.31,1574.86L1387.67,1593.9Z" style="fill:rgb(44,58,100);fill-rule:nonzero;"/>
    </g>
    <g transform="matrix(0.16607,0,0,0.16607,-14.5922,-48.0832)">
        <path d="M1454.71,1520.57C1448.33,1540.61 1389.97,1603.62 1389.97,1603.62C1389.97,1603.62 1365.01,1585.29 1365.61,1572.03C1365.61,1572.03 1396.35,1514.79 1396.67,1507.77C1396.74,1506.11 1393.25,1499.24 1387.92,1489.66C1387.2,1488.36 1386.44,1487.01 1385.66,1485.61C1376.44,1469.25 1363.19,1446.82 1352.8,1428.11C1352.55,1427.66 1352.3,1427.22 1352.06,1426.77C1342.76,1409.94 1335.98,1396.39 1336.91,1393.49C1339.64,1385.02 1419.66,1373.61 1419.66,1373.61C1419.66,1373.61 1461.09,1500.54 1454.71,1520.57Z" style="fill:rgb(53,72,139);fill-rule:nonzero;"/>
    </g>
    <g transform="matrix(0.16607,0,0,0.16607,-14.5922,-48.0832)">
        <path d="M1385.66,1485.61C1376.44,1469.25 1363.19,1446.82 1352.8,1428.11C1352.55,1427.66 1352.3,1427.22 1352.06,1426.77L1352.1,1406.78L1379.83,1402.53L1385.66,1485.61Z" style="fill:rgb(44,58,100);fill-rule:nonzero;"/>
    </g>
    <g transform="matrix(0.16607,0,0,0.16607,-14.5922,-48.0832)">
        <path d="M1284.76,1613.5C1284.76,1613.5 1280.39,1631.65 1284.83,1639.24C1287.62,1644.01 1288.69,1649.33 1287.73,1654.12C1286.93,1658.17 1281.88,1659.61 1279.08,1656.57L1249.58,1624.5C1247.07,1621.77 1247.47,1617.47 1250.44,1615.24C1253.03,1613.3 1256.03,1611 1258.25,1609.16C1263.1,1605.14 1271.1,1606.34 1271.1,1606.34L1284.76,1613.5Z" style="fill:rgb(44,58,100);fill-rule:nonzero;"/>
    </g>
    <g transform="matrix(0.16607,0,0,0.16607,-14.5922,-48.0832)">
        <path d="M1380.6,1385.41C1380.6,1385.41 1349.55,1493.42 1337.99,1520.58C1329.94,1539.49 1291.1,1626.87 1291.1,1626.87C1291.1,1626.87 1252.33,1615.05 1254.94,1603.09C1254.94,1603.09 1279.69,1513.49 1284.13,1503.36C1289.88,1490.22 1286.27,1400.75 1308.13,1384.63C1330,1368.52 1380.6,1385.41 1380.6,1385.41Z" style="fill:rgb(53,72,139);fill-rule:nonzero;"/>
    </g>
    <g transform="matrix(0.16607,0,0,0.16607,-14.5922,-48.0832)">
        <path d="M1380.42,1236.33C1380.42,1236.33 1429.48,1184.69 1432.17,1177.93C1434.87,1171.17 1445.1,1111.88 1445.1,1111.88L1457.85,1112.38C1457.85,1112.38 1461.2,1182.18 1457,1196.18C1452.81,1210.18 1395.18,1273 1395.18,1273L1380.42,1236.33Z" style="fill:rgb(255,178,125);fill-rule:nonzero;"/>
    </g>
    <g transform="matrix(0.16607,0,0,0.16607,-14.5922,-48.0832)">
        <path d="M1371.25,1221.12C1369.7,1218.82 1368.56,1216.26 1367.74,1213.6C1365.87,1207.59 1365.58,1201.12 1365.74,1196.3C1365.89,1191.83 1366.42,1188.77 1366.42,1188.77L1332.63,1174.85C1333.94,1183.28 1334.1,1190.98 1333.68,1197.64C1332.68,1213.48 1328.41,1223.45 1328.41,1223.45L1328.99,1224.98C1325.22,1225.69 1321.22,1226.51 1316.98,1227.46L1360.69,1250.55L1385.96,1224.28C1385.96,1224.28 1382.4,1221.8 1371.25,1221.12Z" style="fill:rgb(255,178,125);fill-rule:nonzero;"/>
    </g>
    <g transform="matrix(0.16607,0,0,0.16607,-14.5922,-48.0832)">
        <path d="M1367.74,1213.6C1349.26,1214.63 1333.68,1197.64 1333.68,1197.64L1365.74,1196.3C1365.58,1201.12 1365.87,1207.59 1367.74,1213.6Z" style="fill:rgb(234,156,104);fill-rule:nonzero;"/>
    </g>
    <g transform="matrix(0.16607,0,0,0.16607,-14.5922,-48.0832)">
        <path d="M1306.21,1238.26C1306.21,1238.26 1265.55,1193.75 1246.46,1180.47C1246.46,1180.47 1217.03,1122.22 1214.72,1118.42C1212.4,1114.61 1200.32,1122.94 1200.32,1122.94C1200.32,1122.94 1214.14,1180.79 1225.05,1197.37C1235.95,1213.96 1270.13,1269.82 1291.03,1270.26C1311.94,1270.71 1306.21,1238.26 1306.21,1238.26Z" style="fill:rgb(255,178,125);fill-rule:nonzero;"/>
    </g>
    <g transform="matrix(0.16607,0,0,0.16607,-14.5922,-48.0832)">
        <path d="M1375.83,1202.59C1375.83,1202.59 1339.86,1215.34 1324.76,1187.15C1308.46,1156.72 1321.57,1132.49 1333.93,1129.91C1358.58,1124.76 1373.83,1133.05 1379.03,1142.73C1384.24,1152.4 1395.69,1195.73 1375.83,1202.59Z" style="fill:rgb(255,178,125);fill-rule:nonzero;"/>
    </g>
    <g transform="matrix(0.16607,0,0,0.16607,-14.5922,-48.0832)">
        <path d="M1358.12,1187.21C1358.12,1187.21 1362.33,1192.47 1371.86,1189.53C1371.86,1189.53 1380.55,1187.21 1377.98,1181.4C1377.98,1181.4 1367.61,1180.13 1358.12,1187.21Z" style="fill:white;fill-rule:nonzero;"/>
    </g>
    <g transform="matrix(0.16607,0,0,0.16607,-14.5922,-48.0832)">
        <path d="M1332.17,1196.83C1332.17,1196.83 1326.81,1184.54 1326.77,1177.74C1326.77,1177.74 1316.16,1166.3 1321.5,1162.81C1326.84,1159.32 1330.45,1166.3 1331.62,1164.78C1332.78,1163.25 1332.79,1139.04 1339.65,1139.24C1346.5,1139.44 1372.26,1145.14 1382.49,1134.74C1392.71,1124.33 1362.93,1089.44 1318.84,1107.51C1274.75,1125.59 1288.16,1175.17 1332.17,1196.83Z" style="fill:rgb(44,58,100);fill-rule:nonzero;"/>
    </g>
    <g transform="matrix(0.16607,0,0,0.16607,-14.5922,-48.0832)">
        <path d="M1298.14,1129.1C1298.14,1129.1 1295.58,1123.16 1297.42,1118.6C1297.42,1118.6 1298.03,1124.61 1300.61,1127.1C1303.2,1129.58 1298.14,1129.1 1298.14,1129.1Z" style="fill:rgb(44,58,100);fill-rule:nonzero;"/>
    </g>
    <g transform="matrix(0.16607,0,0,0.16607,-14.5922,-48.0832)">
        <path d="M1298.73,1124.75C1298.73,1124.75 1293.07,1124.58 1290.79,1129.1C1290.79,1129.1 1294.51,1126.11 1298.73,1128.61L1298.73,1124.75Z" style="fill:rgb(44,58,100);fill-rule:nonzero;"/>
    </g>
    <g transform="matrix(0.16607,0,0,0.16607,-14.5922,-48.0832)">
        <path d="M1416.92,1400.09C1373.56,1414.59 1316.6,1413.18 1302.55,1412.57C1300.45,1412.48 1299.31,1412.41 1299.31,1412.41C1294.33,1411.75 1290.67,1408.07 1290.31,1403.68C1290.26,1403.12 1290.28,1402.53 1290.34,1401.95L1298.02,1335.14L1290.89,1302.51L1286.83,1283.9L1277.55,1241.41C1295.79,1231.15 1312.64,1225.07 1328.26,1221.72C1334.77,1226.81 1347.39,1234.05 1360.62,1231.37C1370.56,1229.35 1372.45,1224.46 1371.84,1219.31C1393.09,1220.69 1404.5,1225.16 1404.5,1225.16L1430.92,1378.5C1432.52,1387.71 1426.67,1396.82 1416.92,1400.09Z" style="fill:rgb(249,151,70);fill-rule:nonzero;"/>
    </g>
    <g transform="matrix(0.16607,0,0,0.16607,-14.5922,-48.0832)">
        <path d="M1255.36,1249.19C1255.36,1249.19 1282.66,1264.79 1285.68,1278.65C1285.68,1278.65 1323.51,1248.41 1328.26,1221.72C1328.26,1221.72 1320.12,1221.76 1310.22,1225.58C1310.22,1225.58 1305.12,1223.72 1299.87,1224.01L1278.91,1209.71C1278.91,1209.71 1256.4,1217.61 1255.36,1249.19Z" style="fill:rgb(249,151,70);fill-rule:nonzero;"/>
    </g>
    <g transform="matrix(0.16607,0,0,0.16607,-14.5922,-48.0832)">
        <path d="M1371.84,1219.31C1371.84,1219.31 1382.85,1217.43 1386.9,1218.07C1386.9,1218.07 1388.76,1216.38 1393.37,1215.75L1416.09,1198.36C1416.09,1198.36 1433.45,1213.38 1431.14,1236.42C1431.14,1236.42 1412.22,1250.21 1412.25,1253.22C1412.27,1256.22 1412.79,1273.25 1412.79,1273.25L1371.84,1219.31Z" style="fill:rgb(249,151,70);fill-rule:nonzero;"/>
    </g>
    <g transform="matrix(0.16607,0,0,0.16607,-14.5922,-48.0832)">
        <path d="M1445.1,1111.88C1445.1,1111.88 1444.9,1106.39 1442.75,1101.93C1440.6,1097.47 1440.65,1085.43 1442.96,1085.92C1445.28,1086.4 1444.62,1090.78 1447.11,1090.07C1449.59,1089.35 1452.48,1075.13 1455.87,1076.12C1459.26,1077.11 1462.03,1081.58 1461.86,1091.77C1461.69,1101.96 1457.85,1112.38 1457.85,1112.38L1445.1,1111.88Z" style="fill:rgb(255,178,125);fill-rule:nonzero;"/>
    </g>
    <g transform="matrix(0.16607,0,0,0.16607,-14.5922,-48.0832)">
        <path d="M1214.43,1118.34C1214.43,1118.34 1212.6,1112.44 1213.23,1106.9C1213.85,1101.37 1209.32,1088.61 1207.04,1089.99C1204.76,1091.36 1207.09,1095.77 1204.19,1095.93C1201.28,1096.1 1192.92,1082.07 1189.69,1084.38C1186.46,1086.7 1185.18,1092.48 1189.16,1103.23C1193.13,1113.98 1201.08,1123.61 1201.08,1123.61L1214.43,1118.34Z" style="fill:rgb(255,178,125);fill-rule:nonzero;"/>
    </g>
    <g transform="matrix(0.16607,0,0,0.16607,-14.5922,-48.0832)">
        <path d="M1653.2,1184.85C1653.2,1184.85 1635.21,1186.08 1627.88,1190.62C1620.55,1195.16 1613.91,1196.9 1615.22,1199C1616.53,1201.09 1629.37,1196.64 1629.63,1199C1629.89,1201.35 1618.29,1208.43 1615.06,1208.95C1611.82,1209.47 1604.48,1210.52 1605.79,1214.71C1607.1,1218.9 1619.52,1220.21 1629.42,1220.47C1639.32,1220.73 1663.41,1204.76 1663.41,1204.76L1653.2,1184.85Z" style="fill:rgb(255,178,125);fill-rule:nonzero;"/>
    </g>
    <g transform="matrix(0.16607,0,0,0.16607,-14.5922,-48.0832)">
        <path d="M1666.29,1207.38C1684.5,1207.37 1744.57,1167.23 1764.76,1151.02C1766.95,1149.26 1768.65,1147.78 1769.75,1146.66C1777.28,1138.99 1803.24,1101.15 1821.66,1067.44C1832.27,1048.03 1840.38,1030 1841.02,1019.89C1843.31,983.815 1824.34,933.364 1824.34,933.364C1768.2,952.902 1762.29,997.725 1762.29,997.725L1733.52,1104.8C1731.99,1110.49 1728.74,1115.58 1724.2,1119.35L1648.13,1182.58C1645.57,1193.41 1660.22,1207.38 1666.29,1207.38Z" style="fill:rgb(249,221,191);fill-rule:nonzero;"/>
    </g>
    <g transform="matrix(0.16607,0,0,0.16607,-14.5922,-48.0832)">
        <path d="M1764.76,1151.02C1766.95,1149.26 1768.65,1147.78 1769.75,1146.66C1777.28,1138.99 1803.24,1101.15 1821.66,1067.44C1824.04,1047.08 1822.41,1027.97 1814.01,1014.62C1814.01,1014.62 1766.29,1098.59 1764.76,1151.02Z" style="fill:rgb(242,204,170);fill-rule:nonzero;"/>
    </g>
    <g transform="matrix(0.16607,0,0,0.16607,-14.5922,-48.0832)">
        <path d="M1797.1,1484.73L1806.65,1524.53L1812.55,1549.16L1832.21,1631.15C1832.21,1631.15 1849.04,1636.34 1866.53,1631.15C1866.53,1631.15 1873.01,1604.02 1873.2,1570.18C1873.3,1552.48 1871.67,1532.94 1866.5,1514.49C1864.4,1506.98 1861.71,1499.66 1858.31,1492.71C1830.57,1436.06 1797.1,1484.73 1797.1,1484.73Z" style="fill:rgb(255,178,125);fill-rule:nonzero;"/>
    </g>
    <g transform="matrix(0.16607,0,0,0.16607,-14.5922,-48.0832)">
        <path d="M1780.81,1655.11L1873.21,1655.11C1873.21,1655.11 1874.67,1641.13 1870.6,1627.75C1870,1625.77 1869.27,1623.8 1868.4,1621.88C1868.4,1621.88 1847.77,1626.56 1829.99,1621.88C1829.99,1621.88 1813.26,1636.13 1803.15,1640.49C1793.05,1644.86 1781.88,1642.49 1780.81,1655.11Z" style="fill:rgb(43,71,139);fill-rule:nonzero;"/>
    </g>
    <g transform="matrix(0.16607,0,0,0.16607,-14.5922,-48.0832)">
        <path d="M1806.65,1524.53L1812.55,1549.16C1822.6,1555.57 1844.27,1567.18 1873.2,1570.18C1873.3,1552.48 1871.67,1532.94 1866.5,1514.49C1858,1510.18 1849.35,1507.92 1841.99,1509.21C1823.65,1512.41 1812.75,1519.11 1806.65,1524.53Z" style="fill:rgb(232,148,91);fill-rule:nonzero;"/>
    </g>
    <g transform="matrix(0.16607,0,0,0.16607,-14.5922,-48.0832)">
        <path d="M1828.8,1655.11L1873.21,1655.11C1873.21,1655.11 1874.67,1641.13 1870.6,1627.75C1859.45,1631.23 1836.76,1639.93 1828.8,1655.11Z" style="fill:rgb(31,57,109);fill-rule:nonzero;"/>
    </g>
    <g transform="matrix(0.16607,0,0,0.16607,-14.5922,-48.0832)">
        <path d="M1870.76,1484.73L1880.3,1524.53L1886.21,1549.16L1905.87,1631.15C1905.87,1631.15 1922.7,1636.34 1940.19,1631.15C1940.19,1631.15 1946.67,1604.02 1946.85,1570.18C1946.96,1552.48 1945.33,1532.94 1940.16,1514.49C1938.06,1506.98 1935.36,1499.66 1931.96,1492.71C1904.22,1436.06 1870.76,1484.73 1870.76,1484.73Z" style="fill:rgb(255,178,125);fill-rule:nonzero;"/>
    </g>
    <g transform="matrix(0.16607,0,0,0.16607,-14.5922,-48.0832)">
        <path d="M1942.06,1621.88C1942.06,1621.88 1921.43,1626.56 1903.64,1621.88C1903.64,1621.88 1886.92,1636.13 1876.81,1640.49C1866.7,1644.86 1855.53,1642.49 1854.46,1655.11L1946.86,1655.11C1946.86,1655.11 1948.79,1636.67 1942.06,1621.88Z" style="fill:rgb(43,71,139);fill-rule:nonzero;"/>
    </g>
    <g transform="matrix(0.16607,0,0,0.16607,-14.5922,-48.0832)">
        <path d="M1880.3,1524.53L1886.21,1549.16C1896.25,1555.57 1917.92,1567.18 1946.85,1570.18C1946.96,1552.48 1945.33,1532.94 1940.16,1514.49C1931.66,1510.18 1923.01,1507.92 1915.64,1509.21C1897.31,1512.41 1886.41,1519.11 1880.3,1524.53Z" style="fill:rgb(232,148,91);fill-rule:nonzero;"/>
    </g>
    <g transform="matrix(0.16607,0,0,0.16607,-14.5922,-48.0832)">
        <path d="M1783.78,1530.17C1818.29,1552.08 1962.07,1536.41 1963.24,1515.2C1963.24,1515.2 1956.13,1462.06 1953.71,1439.81C1952.7,1430.56 1952.24,1423.16 1952.82,1419.3C1967.78,1320.35 1980.33,1203.79 1978.8,1181.52C1978.59,1178.38 1978.44,1176.76 1978.44,1176.76C1978.44,1176.76 1967.65,1175.85 1951.23,1175.21C1903.52,1173.33 1808.28,1173.66 1792.46,1204.86C1776.34,1236.64 1775.94,1421.29 1775.94,1421.29C1775.94,1472.07 1783.78,1530.17 1783.78,1530.17Z" style="fill:rgb(249,151,70);fill-rule:nonzero;"/>
    </g>
    <g transform="matrix(0.16607,0,0,0.16607,-14.5922,-48.0832)">
        <path d="M1953.71,1439.81C1952.7,1430.56 1952.24,1423.16 1952.82,1419.3C1967.78,1320.35 1980.33,1203.79 1978.8,1181.52C1978.59,1178.38 1978.44,1176.76 1978.44,1176.76C1978.44,1176.76 1967.65,1175.85 1951.23,1175.21C1926.55,1189.75 1910.49,1214.52 1910.49,1214.52C1910.49,1214.52 1915.46,1399.69 1953.71,1439.81Z" style="fill:rgb(237,125,43);fill-rule:nonzero;"/>
    </g>
    <g transform="matrix(0.16607,0,0,0.16607,-14.5922,-48.0832)">
        <path d="M1887.7,789.999C1887.7,777.126 1880.3,767.837 1866.03,766.95C1855.56,766.3 1841.09,772.648 1841.09,785.52C1841.09,798.392 1851.52,813.305 1864.39,813.305C1877.27,813.305 1887.7,802.871 1887.7,789.999Z" style="fill:rgb(187,210,239);fill-rule:nonzero;"/>
    </g>
    <g transform="matrix(0.16607,0,0,0.16607,-14.5922,-48.0832)">
        <path d="M1867.82,883.035C1867.82,883.035 1923.84,832.579 1880.74,793.81C1876.56,790.053 1871.48,787.454 1865.99,786.257C1850.91,782.968 1817.4,778.346 1800.45,797.073C1782.2,817.24 1774.98,832.58 1790.2,850.967C1805.41,869.354 1867.82,883.035 1867.82,883.035Z" style="fill:rgb(213,229,251);fill-rule:nonzero;"/>
    </g>
    <g transform="matrix(0.16607,0,0,0.16607,-14.5922,-48.0832)">
        <path d="M1940.98,1217.21C1940.98,1217.21 1938.47,1226.92 1939.5,1238.46C1940.94,1254.69 1943.91,1263.6 1954.44,1268.88C1954.44,1268.88 1966.6,1277.2 1968.47,1266.38C1970.33,1255.57 1966.64,1255.19 1969.57,1240.03C1972.51,1224.86 1970.29,1213.33 1961.57,1206.5L1940.98,1217.21Z" style="fill:rgb(255,178,125);fill-rule:nonzero;"/>
    </g>
    <g transform="matrix(0.16607,0,0,0.16607,-14.5922,-48.0832)">
        <path d="M1817.32,882.519C1817.32,882.519 1818.07,890.834 1819.49,902.069C1820.17,907.56 1821.01,913.752 1822,920.008C1822.7,924.501 1823.48,929.033 1824.34,933.366L1843.43,997.834L1888.25,925.299C1888.25,925.299 1877.71,916.585 1863.44,869.353C1863.3,868.85 1863.21,868.578 1863.21,868.578L1817.32,882.519Z" style="fill:rgb(255,178,125);fill-rule:nonzero;"/>
    </g>
    <g transform="matrix(0.16607,0,0,0.16607,-14.5922,-48.0832)">
        <path d="M1791.2,1200.57C1790.62,1207.82 1792.45,1209.13 1792.45,1209.13C1792.45,1209.13 1820.01,1219.12 1889.33,1215.67C1896.83,1215.29 1903.89,1214.91 1910.49,1214.52C1955.16,1211.89 1979.05,1209.13 1979.05,1209.13C1979.05,1209.13 2015.64,1124.68 1946.9,1020.63C1939.13,1008.87 1930.01,996.854 1919.34,984.685C1908.21,971.989 1905.75,955 1901.54,938.856C1900.33,934.229 1903.82,933.207 1902.08,928.842C1902.08,928.842 1889.54,925.299 1888.25,925.299C1881.13,931.571 1871.74,943.764 1848.43,946.174C1832.67,947.818 1826.5,938.937 1824.26,933.614C1818.25,935.784 1812.03,939.535 1806.93,941.985C1764.69,962.262 1760.81,1001.59 1760.81,1001.59C1760.81,1001.59 1799.62,1129.21 1802.03,1145.15C1803.11,1152.24 1794.21,1163.26 1791.2,1200.57Z" style="fill:rgb(249,221,191);fill-rule:nonzero;"/>
    </g>
    <g transform="matrix(0.16607,0,0,0.16607,-14.5922,-48.0832)">
        <path d="M1819.49,902.069C1820.17,907.56 1821.01,913.752 1822,920.008C1870.96,900.953 1864.73,874.276 1863.44,869.353C1863.3,868.85 1863.21,868.578 1863.21,868.578C1863.21,868.578 1838.09,886.405 1819.49,902.069Z" style="fill:rgb(232,148,91);fill-rule:nonzero;"/>
    </g>
    <g transform="matrix(0.16607,0,0,0.16607,-14.5922,-48.0832)">
        <path d="M1809.31,908.448C1809.31,908.448 1864.13,910.207 1864.7,876.051C1865.27,841.895 1872.73,819.119 1837.75,816.551C1802.78,813.984 1795.76,826.904 1792.79,838.258C1789.83,849.612 1795.07,907.11 1809.31,908.448Z" style="fill:rgb(255,178,125);fill-rule:nonzero;"/>
    </g>
    <g transform="matrix(0.16607,0,0,0.16607,-14.5922,-48.0832)">
        <path d="M1804.52,811.435C1804.52,811.435 1807.96,876.516 1874.8,870.398C1874.8,870.398 1873.37,783.368 1804.52,811.435Z" style="fill:rgb(213,229,251);fill-rule:nonzero;"/>
    </g>
    <g transform="matrix(0.16607,0,0,0.16607,-14.5922,-48.0832)">
        <path d="M1817.32,817.104C1817.32,817.104 1797.51,829.192 1791.35,848.573C1791.35,848.573 1769.26,817.785 1817.32,817.104Z" style="fill:rgb(213,229,251);fill-rule:nonzero;"/>
    </g>
    <g transform="matrix(0.16607,0,0,0.16607,-14.5922,-48.0832)">
        <path d="M1910.49,1214.52C1955.16,1211.89 1979.05,1209.13 1979.05,1209.13C1979.05,1209.13 2015.64,1124.68 1946.9,1020.63C1932.98,1053.07 1900.16,1139.76 1910.49,1214.52Z" style="fill:rgb(242,204,170);fill-rule:nonzero;"/>
    </g>
    <g transform="matrix(0.16607,0,0,0.16607,-14.5922,-48.0832)">
        <path d="M1888.25,925.299C1888.25,925.299 1941.28,936.181 1964.91,963.54C1983.01,984.504 2002.82,1087 2002.82,1103.94C2002.82,1120.12 1984.21,1206.17 1972.6,1222.67C1971.79,1223.81 1970.45,1224.45 1969.06,1224.3L1939.19,1221.13C1936.7,1220.87 1934.93,1218.57 1935.31,1216.1L1952.09,1107.33L1893.19,1002.85C1893.19,1002.85 1858.46,961.686 1888.25,925.299Z" style="fill:rgb(249,221,191);fill-rule:nonzero;"/>
    </g>
    <g transform="matrix(0.16607,0,0,0.16607,-14.5922,-48.0832)">
        <path d="M1940.77,1224.32C1940.77,1224.32 1932.91,1246.92 1935,1249.02C1937.1,1251.12 1942.6,1241.95 1942.6,1241.95L1940.77,1224.32Z" style="fill:rgb(255,178,125);fill-rule:nonzero;"/>
    </g>
    <g transform="matrix(0.16607,0,0,0.16607,-14.5922,-48.0832)">
        <path d="M1802.51,885.414C1802.51,885.414 1804.13,891.001 1806.75,891.524C1809.37,892.048 1813.56,892.921 1817.23,891.524C1820.89,890.128 1821.94,887.16 1821.94,887.16C1821.94,887.16 1813.63,884.017 1802.51,885.414Z" style="fill:white;fill-rule:nonzero;"/>
    </g>
    <g transform="matrix(0.16607,0,0,0.16607,-14.5922,-48.0832)">
        <path d="M810.318,1223.98L795.863,1226.65C795.863,1226.65 756.307,1165.67 755.171,1147.08C754.076,1129.32 718.429,1051.61 760.16,1003.1C762.04,1000.9 764.085,998.758 766.306,996.692C766.378,996.609 766.461,996.537 766.543,996.465C766.543,996.465 766.616,996.578 766.75,996.806C767.597,998.221 770.913,1004.21 774.797,1017.45C780.881,1038.15 788.401,1076.58 790.178,1142.95C790.178,1142.95 799.886,1199.77 810.318,1223.98Z" style="fill:rgb(244,166,113);fill-rule:nonzero;"/>
    </g>
    <g transform="matrix(0.16607,0,0,0.16607,-14.5922,-48.0832)">
        <path d="M810.318,1223.98C810.318,1223.98 823.484,1238.63 823.887,1243.98C824.42,1251.06 818.939,1262.72 815.365,1261.59C811.786,1260.46 811.351,1254.72 810.318,1250.33C809.285,1245.94 804.593,1241.23 804.865,1243.21C805.138,1245.2 807.889,1253 807.038,1254.25C806.188,1255.5 805.155,1255.27 803.126,1251.53C800.69,1247.04 795.429,1240.78 796.115,1236.15C796.854,1231.17 796.954,1230.1 795.076,1224.1C793.198,1218.1 790.052,1210.9 790.052,1210.9L801.217,1208.52L810.318,1223.98Z" style="fill:rgb(244,166,113);fill-rule:nonzero;"/>
    </g>
    <g transform="matrix(0.16607,0,0,0.16607,-14.5922,-48.0832)">
        <path d="M500.404,1633.58L483.143,1642.52C483.143,1642.52 472.815,1629.07 463.593,1612.82C457.139,1601.45 451.209,1588.69 449.758,1578.24C446.233,1552.86 419.366,1511.15 422.161,1504.04C424.956,1496.94 478.237,1484.66 478.237,1484.66C478.237,1484.66 488.653,1555.96 495.579,1602.06C497.6,1615.51 499.318,1626.82 500.404,1633.58Z" style="fill:rgb(255,178,125);fill-rule:nonzero;"/>
    </g>
    <g transform="matrix(0.16607,0,0,0.16607,-14.5922,-48.0832)">
        <path d="M500.404,1633.58L483.143,1642.52C483.143,1642.52 472.815,1629.07 463.593,1612.82C470.777,1612.28 483.258,1610.13 495.579,1602.06C497.6,1615.51 499.318,1626.82 500.404,1633.58Z" style="fill:white;fill-rule:nonzero;"/>
    </g>
    <g transform="matrix(0.16607,0,0,0.16607,-14.5922,-48.0832)">
        <path d="M461.18,1500.95C461.18,1500.95 439.369,1531.72 426.158,1574.97C423.051,1585.16 412.457,1597.85 401.748,1609.12C391.358,1620.06 380.862,1629.67 376.981,1634.39L359.399,1625.94C359.399,1625.94 365.577,1608.21 374.72,1592.13C378.112,1586.14 381.904,1580.39 385.955,1575.86C391.554,1569.59 389.711,1490.44 395.285,1485.23C400.866,1480.01 461.18,1500.95 461.18,1500.95Z" style="fill:rgb(255,178,125);fill-rule:nonzero;"/>
    </g>
    <g transform="matrix(0.16607,0,0,0.16607,-14.5922,-48.0832)">
        <path d="M411.694,1359.79L411.781,1359.84C411.706,1359.87 411.694,1359.79 411.694,1359.79Z" style="fill:rgb(255,178,125);fill-rule:nonzero;"/>
    </g>
    <g transform="matrix(0.16607,0,0,0.16607,-14.5922,-48.0832)">
        <path d="M456.772,1386.99L411.781,1359.84C412.03,1359.74 412.94,1358.38 416.304,1348.65C417.737,1344.5 418.497,1340.9 418.871,1338.04C418.908,1337.76 418.945,1337.48 418.97,1337.21C419.431,1333.06 419.095,1330.67 419.095,1330.67L428.95,1334.23L447.179,1340.84C446.967,1345.46 447.615,1348.71 448.599,1350.94C450.979,1356.36 455.414,1356.4 455.539,1356.4L456.772,1386.99Z" style="fill:rgb(255,178,125);fill-rule:nonzero;"/>
    </g>
    <g transform="matrix(0.16607,0,0,0.16607,-14.5922,-48.0832)">
        <path d="M448.599,1350.94C430.981,1352.44 421.063,1340.95 418.871,1338.04C418.546,1337.62 418.385,1337.38 418.385,1337.38C418.385,1337.38 418.597,1337.32 418.97,1337.21C420.403,1336.79 424.291,1335.62 428.95,1334.23L447.179,1340.84C446.967,1345.46 447.615,1348.71 448.599,1350.94Z" style="fill:rgb(237,152,95);fill-rule:nonzero;"/>
    </g>
    <g transform="matrix(0.16607,0,0,0.16607,-14.5922,-48.0832)">
        <path d="M449.481,1344.61C449.481,1344.61 410.341,1348.91 409.54,1322.45C408.739,1295.98 402.952,1283.87 430.034,1281.51C457.115,1279.15 463.511,1288.91 465.107,1297.86C470.092,1325.83 460.508,1343.43 449.481,1344.61Z" style="fill:rgb(255,178,125);fill-rule:nonzero;"/>
    </g>
    <g transform="matrix(0.16607,0,0,0.16607,-14.5922,-48.0832)">
        <path d="M376.481,1254.77C375.935,1253.54 375.546,1252.75 375.546,1252.75C375.954,1253.31 376.259,1254 376.481,1254.77Z" style="fill:rgb(211,92,43);fill-rule:nonzero;"/>
    </g>
    <g transform="matrix(0.16607,0,0,0.16607,-14.5922,-48.0832)">
        <path d="M462.063,1359.05C462.063,1359.05 499.594,1330.21 503.6,1320.66C507.606,1311.12 524.835,1276.17 529.287,1272.61C529.287,1272.61 538.617,1271.41 539.952,1277.87C541.287,1284.33 531.067,1322.66 523.945,1334.23C516.823,1345.81 482.697,1385.04 471.491,1390.74L462.063,1359.05Z" style="fill:rgb(255,178,125);fill-rule:nonzero;"/>
    </g>
    <g transform="matrix(0.16607,0,0,0.16607,-14.5922,-48.0832)">
        <path d="M553.271,1254.95C552.652,1258.29 551.291,1261.88 549.682,1263.73C547.578,1266.21 544.237,1271.16 542.133,1274.38C540.772,1276.36 539.905,1277.84 539.905,1277.84L529.262,1272.65C529.262,1272.65 529.015,1254.58 536.069,1250.74C536.317,1250.62 536.44,1250.49 536.688,1250.49C539.658,1248.88 542.504,1247.77 544.979,1247.03C548.321,1246.16 550.92,1246.04 552.405,1246.9C553.766,1247.65 554.014,1251.24 553.271,1254.95Z" style="fill:rgb(255,178,125);fill-rule:nonzero;"/>
    </g>
    <g transform="matrix(0.16607,0,0,0.16607,-14.5922,-48.0832)">
        <path d="M432.137,1294.44C418.288,1290.93 423.583,1315.47 420.084,1313.79C416.168,1311.91 409.44,1311.94 410.501,1316.67C411.563,1321.4 413.096,1323.09 413.895,1326.04C414.694,1328.99 413.889,1334.83 410.669,1333.66C407.449,1332.48 377.497,1298.28 398.645,1271.64C419.793,1245 482.855,1261.41 462.998,1289.27C459.505,1294.17 441.999,1296.94 432.137,1294.44Z" style="fill:rgb(43,71,139);fill-rule:nonzero;"/>
    </g>
    <g transform="matrix(0.16607,0,0,0.16607,-14.5922,-48.0832)">
        <path d="M498.043,1552.13C498.043,1552.13 459.537,1560.2 441.185,1557.72C416.47,1554.37 394.561,1553.8 371.429,1541.32C371.429,1541.32 383.72,1480.27 384.477,1477.3C385.563,1473.03 393.424,1440.22 400.688,1409.87C407.33,1382.11 413.472,1356.4 413.472,1356.4C413.472,1356.4 431.802,1369.42 442.485,1364.83C453.168,1360.23 451.797,1355.04 451.797,1355.04C451.797,1355.04 458.785,1352.21 462.062,1353.26C465.337,1354.29 474.641,1349.02 474.641,1349.02C474.641,1349.02 484.914,1356.96 485.306,1374.01C485.368,1376.53 485.217,1379.26 484.771,1382.19L477.356,1390.74C477.356,1390.74 494.099,1492.97 498.043,1552.13Z" style="fill:rgb(249,151,70);fill-rule:nonzero;"/>
    </g>
    <g transform="matrix(0.16607,0,0,0.16607,-14.5922,-48.0832)">
        <path d="M528.99,1654.77L477.449,1654.77C477.449,1654.77 476.466,1646.39 477.65,1639.22C477.792,1638.35 478.246,1637.56 478.923,1636.87C481.94,1637.89 486.374,1638.61 491.306,1636.84C495.348,1635.39 498.339,1633.18 500.422,1631.17C500.956,1631.69 511.604,1641.84 516.526,1641.84C521.573,1641.84 529.284,1644.27 528.99,1654.77Z" style="fill:rgb(170,68,62);fill-rule:nonzero;"/>
    </g>
    <g transform="matrix(0.16607,0,0,0.16607,-14.5922,-48.0832)">
        <path d="M401.748,1609.12C391.358,1620.06 380.862,1629.67 376.981,1634.39L359.399,1625.94C359.399,1625.94 365.577,1608.21 374.72,1592.13C377.862,1597.02 386.115,1607.09 401.748,1609.12Z" style="fill:white;fill-rule:nonzero;"/>
    </g>
    <g transform="matrix(0.16607,0,0,0.16607,-14.5922,-48.0832)">
        <path d="M380.79,1629.85C380.79,1629.85 380.147,1641.04 383.877,1642.52C387.608,1644.01 394.561,1647.67 394.561,1654.77L368.744,1654.77C368.744,1654.77 350.938,1646.02 348.564,1642.3C346.191,1638.58 360.426,1622.7 360.426,1622.7C360.426,1622.7 369.173,1632.37 380.79,1629.85Z" style="fill:rgb(170,68,62);fill-rule:nonzero;"/>
    </g>
    <g transform="matrix(0.16607,0,0,0.16607,-14.5922,-48.0832)">
        <path d="M423.505,1448C423.505,1448 434.809,1445.89 439.231,1448.78C443.653,1451.67 444.96,1456.2 441.776,1458.05C431.799,1463.85 421.685,1457.44 421.685,1457.44L423.505,1448Z" style="fill:rgb(255,178,125);fill-rule:nonzero;"/>
    </g>
    <g transform="matrix(0.16607,0,0,0.16607,-14.5922,-48.0832)">
        <path d="M413.928,1359.94C413.928,1359.94 379.11,1367.31 365.378,1421.44C364.034,1426.73 365.423,1432.39 369.084,1436.44C375.397,1443.44 389.317,1453.67 421.685,1457.44C425.219,1457.85 425.694,1448.89 425.694,1448.89C425.342,1449.6 403.706,1434.91 394.497,1427.01C392.832,1425.58 392.902,1422.58 394.104,1420.75C397.216,1416 402.437,1407.79 404.191,1403.58C406.752,1397.43 423.659,1362.73 413.928,1359.94Z" style="fill:rgb(255,178,125);fill-rule:nonzero;"/>
    </g>
    <g transform="matrix(0.16607,0,0,0.16607,-14.5922,-48.0832)">
        <path d="M413.476,1356.4C413.476,1356.4 393.005,1357.85 376.313,1380.11C376.313,1380.11 381.961,1400.58 408.479,1406.05C408.479,1406.05 424.822,1369.19 413.476,1356.4Z" style="fill:rgb(249,151,70);fill-rule:nonzero;"/>
    </g>
    <g transform="matrix(0.16607,0,0,0.16607,-14.5922,-48.0832)">
        <path d="M408.479,1263.51C408.479,1263.51 388.786,1258.15 375.546,1272.52C362.306,1286.9 381.588,1313.25 363.073,1327.68C344.559,1342.11 351.878,1352.88 359.399,1356.4C376.313,1364.3 402.157,1354.46 396.899,1341.13C386.791,1315.49 401.748,1295.97 401.748,1295.97L408.479,1263.51Z" style="fill:rgb(43,71,139);fill-rule:nonzero;"/>
    </g>
    <g transform="matrix(0.16607,0,0,0.16607,-14.5922,-48.0832)">
        <path d="M676.029,1488.79C676.047,1488.96 676.065,1489.13 676.083,1489.29C676.119,1489.58 676.155,1489.85 676.164,1490.09C678.205,1509.42 682.432,1529 687.476,1547.2C700.63,1594.68 719.576,1630.86 719.576,1630.86L735.284,1629.4C735.284,1629.4 726.697,1592.87 725.951,1543.25C725.438,1508.56 728.756,1467.47 741.524,1428.01C748.997,1404.92 754.913,1382.93 759.58,1362.33C774.802,1295.12 776.763,1242.76 776.394,1215.5C776.214,1202.05 775.468,1194.7 775.468,1194.7L687.17,1207.17L683.052,1207.75C683.646,1248.43 683.915,1303.67 684.032,1346.87C684.059,1357.28 684.077,1367 684.095,1375.64C684.113,1387.63 684.122,1397.55 684.122,1404.42L684.122,1414.83C679.086,1426.38 676.344,1439.34 675.31,1453.03C674.447,1464.57 674.797,1476.63 676.029,1488.79Z" style="fill:rgb(249,151,70);fill-rule:nonzero;"/>
    </g>
    <g transform="matrix(0.16607,0,0,0.16607,-14.5922,-48.0832)">
        <path d="M709.92,1614.16C709.534,1612.1 708.991,1609.49 708.371,1606.64C702.004,1591.67 694.025,1570.84 687.482,1547.2C709.723,1549.06 720.68,1546.07 725.955,1543.25C726.241,1562.51 727.711,1579.8 729.402,1593.74C731.723,1602.43 735.988,1616.32 740.874,1622.14C748.649,1631.4 757.216,1639.36 767.553,1644.6C768.71,1645.18 741.678,1654.69 727.856,1653.24C714.034,1651.79 702.619,1649.33 703.882,1640.78C704.324,1637.77 705.099,1634.67 706.296,1631.94C708.516,1626.91 711.069,1620.28 709.92,1614.16Z" style="fill:rgb(255,178,125);fill-rule:nonzero;"/>
    </g>
    <g transform="matrix(0.16607,0,0,0.16607,-14.5922,-48.0832)">
        <path d="M676.029,1488.79C674.626,1472.61 702.258,1416.72 702.258,1416.72L684.122,1404.42L684.122,1414.83C679.086,1426.38 676.344,1439.34 675.31,1453.03C674.447,1464.57 674.797,1476.63 676.029,1488.79Z" style="fill:rgb(224,125,50);fill-rule:nonzero;"/>
    </g>
    <g transform="matrix(0.16607,0,0,0.16607,-14.5922,-48.0832)">
        <path d="M728.939,1655.66C742.818,1654.93 738.936,1658.19 758.21,1659.68C777.485,1661.16 784.537,1655.21 785.645,1652.51C786.632,1650.11 777.47,1647.47 767.683,1644.42L767.553,1644.6C767.553,1644.6 754.71,1650.48 738.924,1647.88C726.058,1645.77 713.187,1639.53 704.314,1637.99C703.56,1640.88 702.801,1643.84 702.836,1646.89C702.925,1655.53 715.061,1656.39 728.939,1655.66Z" style="fill:rgb(28,70,138);fill-rule:nonzero;"/>
    </g>
    <g transform="matrix(0.16607,0,0,0.16607,-14.5922,-48.0832)">
        <path d="M683.052,1207.75C683.646,1248.43 683.915,1303.67 684.032,1346.87C684.059,1357.28 702.242,1408.07 702.26,1416.71C716.961,1395.76 729.686,1250.91 750.042,1214.26C749.863,1200.81 775.468,1194.7 775.468,1194.7L687.17,1207.17L683.052,1207.75Z" style="fill:rgb(224,125,50);fill-rule:nonzero;"/>
    </g>
    <g transform="matrix(0.16607,0,0,0.16607,-14.5922,-48.0832)">
        <path d="M669.096,828.344C668.573,826.514 661.925,805.879 629.738,812.728C629.738,812.728 645.855,810.698 650.273,816.906C650.273,816.906 637.499,811.056 629.5,815.951C621.5,820.846 620.187,837.321 621.381,842.335C622.575,847.35 631.41,862.273 637.26,862.273C639.476,862.273 641.844,861.536 643.934,860.621C643.037,863.274 642.229,866.156 641.558,869.317C635.345,898.552 654.786,920.773 664.838,915.281C671.285,911.759 676.165,923.042 676.165,923.042L729.666,852.125C729.666,852.125 692.383,807.328 669.096,828.344Z" style="fill:rgb(35,56,98);fill-rule:nonzero;"/>
    </g>
    <g transform="matrix(0.16607,0,0,0.16607,-14.5922,-48.0832)">
        <path d="M753.147,1173C728.871,1095.4 755.475,1078.53 752.946,1039.7C750.417,1000.86 720.354,959.111 720.354,959.111C720.354,959.111 718.822,958.956 716.226,958.721C714.208,957.659 713.671,949.215 713.695,940.307C713.72,929.617 714.54,918.27 714.54,918.27L678.483,911.13L676.339,910.708C676.429,935.804 669.821,952.281 665.034,956.117C660.528,956.633 641.321,959.051 629.485,964C625.022,965.862 621.618,968.085 620.428,970.693C610.526,992.465 600.642,1047.41 593.693,1086.61C589.821,1108.45 586.868,1125.41 585.326,1129C581.027,1139.03 567.894,1194.19 556.671,1221.4L566.847,1233.91C566.847,1233.91 618.279,1147.26 622.577,1126.85C623.98,1120.21 627.417,1106.91 631.429,1092.01C632.035,1089.76 632.655,1087.47 633.282,1085.16C640.366,1104.37 643.983,1113.26 643.785,1121.56C643.506,1133.37 635.497,1143.99 618.757,1181.53C609.509,1202.27 777.932,1252.25 753.147,1173Z" style="fill:rgb(255,178,125);fill-rule:nonzero;"/>
    </g>
    <g transform="matrix(0.16607,0,0,0.16607,-14.5922,-48.0832)">
        <path d="M714.54,923.986C714.54,923.986 713.72,935.333 713.695,946.023C693.519,945.454 682.854,927.048 678.483,916.846L714.54,923.986Z" style="fill:rgb(232,148,91);fill-rule:nonzero;"/>
    </g>
    <g transform="matrix(0.16607,0,0,0.16607,-14.5922,-48.0832)">
        <path d="M674.759,912.921C674.759,912.921 664.186,896.214 661.648,881.928C659.836,871.729 665.031,833.924 703.021,839.369C703.021,839.369 714.055,840.456 724.427,847.461C732.675,853.032 744.579,865.059 731.269,898.048L727.812,909.192L674.759,912.921Z" style="fill:rgb(35,56,98);fill-rule:nonzero;"/>
    </g>
    <g transform="matrix(0.16607,0,0,0.16607,-14.5922,-48.0832)">
        <path d="M721.278,934.108C721.278,934.108 673.54,934.896 673.507,905.159C673.475,875.423 667.291,855.498 697.769,853.738C728.247,851.978 734.182,863.318 736.606,873.241C739.032,883.164 733.695,933.137 721.278,934.108Z" style="fill:rgb(255,178,125);fill-rule:nonzero;"/>
    </g>
    <g transform="matrix(0.16607,0,0,0.16607,-14.5922,-48.0832)">
        <path d="M697.4,1429.34C694.368,1435.02 664.327,1471.14 634.154,1511.13C631.569,1514.54 628.888,1518.23 626.145,1522.11C608.364,1547.15 587.892,1579.8 575.659,1595.7C564.538,1610.15 554.547,1592.05 560.156,1579.15C569.007,1558.78 576.508,1523.17 585.079,1496.97C587.051,1490.91 589.093,1485.35 591.213,1480.6C600.441,1459.96 616.003,1431.08 637.868,1408.7C641.662,1404.81 608.574,1318.41 610.94,1246.94C611.869,1218.62 615.813,1193.71 624.839,1178.54L714.655,1182.99C714.655,1182.99 726.941,1373.87 697.4,1429.34Z" style="fill:rgb(249,151,70);fill-rule:nonzero;"/>
    </g>
    <g transform="matrix(0.16607,0,0,0.16607,-14.5922,-48.0832)">
        <path d="M735.187,856.707C727.82,847.778 722.25,849.719 719.123,852.401C693.526,838.203 676.201,859.279 676.201,859.279C673.008,880.615 657.622,892.837 657.622,892.837C657.622,892.837 666.323,898.212 686.382,893.054C692.503,891.48 697.971,887.136 702.618,881.861C694.501,895.458 683.463,905.253 683.463,905.253C707.423,894.177 717.044,860.852 718.003,857.328C720.917,859.945 726.662,865.63 728.413,871.203C730.792,878.775 731.863,894.363 736.406,893.833C736.406,893.833 746.254,870.121 735.187,856.707Z" style="fill:rgb(35,56,98);fill-rule:nonzero;"/>
    </g>
    <g transform="matrix(0.16607,0,0,0.16607,-14.5922,-48.0832)">
        <path d="M557.85,1218.84C557.85,1218.84 553.492,1229.11 548.955,1231.98C544.418,1234.84 541.584,1240.82 542.778,1246.31C543.972,1251.8 541.553,1261.35 547.284,1261.35C553.014,1261.35 566.386,1236.04 568.057,1231.26C569.729,1226.49 571.161,1225.53 571.161,1225.53L557.85,1218.84Z" style="fill:rgb(255,178,125);fill-rule:nonzero;"/>
    </g>
    <g transform="matrix(0.16607,0,0,0.16607,-14.5922,-48.0832)">
        <path d="M607.5,1213.92C607.345,1217.01 607.509,1219.48 608.059,1221.25C609.97,1227.39 616.533,1230.19 632.397,1228.51C642.094,1227.48 646.417,1210.89 648.345,1196.73C654.169,1216.99 662.323,1228.35 672.865,1230.74C688.246,1234.24 771.355,1240.11 776.434,1202.44C782.02,1161.02 759.771,1091.42 758.853,1051.87C761.133,1037.84 761.912,1025.67 761.666,1015.21C761.018,987.036 752.921,971.244 746.695,964.885C744.932,963.503 743.167,962.64 736.088,961.4C732.47,960.771 727.458,960.043 720.354,959.088C720.354,959.088 717.299,958.688 717.365,958.796C718.677,961.192 732.799,982.426 731.429,989.414C729.994,996.728 675.698,995.673 671.4,991.651C667.102,987.63 655.884,957.295 655.884,957.295C655.884,957.295 633.817,959.758 623.021,967.775C623.021,967.775 623.063,967.826 623.136,967.918C621.832,968.873 620.856,969.887 620.298,970.968C608.78,993.362 597.279,1049.88 589.191,1090.19C608.797,1101.23 625.925,1097.94 631.241,1096.49C624.293,1142.92 608.534,1192.77 607.5,1213.92Z" style="fill:white;fill-rule:nonzero;"/>
    </g>
    <g transform="matrix(0.16607,0,0,0.16607,-14.5922,-48.0832)">
        <path d="M707.562,916.551C707.562,916.551 708.47,920.211 717.595,919.537C717.595,919.537 725.257,918.973 724.975,914.941C724.975,914.941 717.506,912.159 707.562,916.551Z" style="fill:white;fill-rule:nonzero;"/>
    </g>
    <g transform="matrix(0.16607,0,0,0.16607,-14.5922,-48.0832)">
        <path d="M626.145,1522.11C608.364,1547.15 587.892,1579.8 575.659,1595.7C564.538,1610.15 554.547,1592.05 560.156,1579.15C569.007,1558.78 576.508,1523.17 585.079,1496.97C590.837,1505.73 602.597,1517.03 626.145,1522.11Z" style="fill:rgb(255,178,125);fill-rule:nonzero;"/>
    </g>
    <g transform="matrix(0.16607,0,0,0.16607,-14.5922,-48.0832)">
        <path d="M565.952,1229.06C565.952,1229.06 568.574,1240.43 566.668,1244C564.762,1247.57 566.043,1252.21 562.211,1250.9C558.379,1249.59 565.952,1229.06 565.952,1229.06Z" style="fill:rgb(255,178,125);fill-rule:nonzero;"/>
    </g>
    <g transform="matrix(0.16607,0,0,0.16607,-14.5922,-48.0832)">
        <path d="M538.226,1585.17C530.983,1589.89 536.779,1600.59 544.852,1611.9C552.925,1623.21 548.092,1621.69 557.197,1638.74C566.301,1655.8 575.114,1658.54 577.984,1658.03C580.533,1657.57 577.84,1648.43 575.151,1638.53C574.81,1637.29 574.479,1636.04 574.149,1634.78C571.223,1623.57 574.989,1613 576.772,1601.04C578.461,1589.71 594.819,1567.28 594.819,1567.28L583.104,1543.59C583.104,1543.59 568.731,1564.22 562.236,1572.57C558.416,1577.49 551.759,1579.97 546.521,1581.64C543.677,1582.55 540.775,1583.5 538.226,1585.17Z" style="fill:rgb(255,178,125);fill-rule:nonzero;"/>
    </g>
    <g transform="matrix(0.16607,0,0,0.16607,-14.5922,-48.0832)">
        <path d="M544.852,1611.9C552.925,1623.21 548.092,1621.69 557.197,1638.74C566.301,1655.8 575.114,1658.54 577.984,1658.03C580.533,1657.57 577.84,1648.43 575.151,1638.53L574.934,1638.52C574.934,1638.52 563.072,1630.85 556.782,1616.14C551.651,1604.15 549.996,1589.94 546.521,1581.64C543.677,1582.55 540.775,1583.5 538.226,1585.17C530.983,1589.89 536.779,1600.59 544.852,1611.9Z" style="fill:rgb(28,70,138);fill-rule:nonzero;"/>
    </g>
    <g transform="matrix(0.16607,0,0,0.16607,-14.5922,-48.0832)">
        <path d="M740.443,962.264C740.443,962.264 754.825,962.198 764.872,981.53C774.919,1000.86 790.052,1063.71 790.052,1063.71C790.052,1063.71 772.404,1083.39 751.723,1078.9C731.042,1074.4 740.443,962.264 740.443,962.264Z" style="fill:white;fill-rule:nonzero;"/>
    </g>
    <g transform="matrix(0.16607,0,0,0.16607,-14.5922,-48.0832)">
        <path d="M2068.37,1653.89L2066.87,1211.09C2066.87,1211.09 2063.49,1179.18 2035.67,1179.02C2005.98,1178.84 2004.09,1210.72 2004.09,1210.72C2004.09,1210.72 2004.5,1213.48 2007.55,1213.5C2010.74,1213.52 2011.28,1210.76 2011.28,1210.76C2011.28,1210.76 2012.74,1186.18 2035.63,1186.32C2057.07,1186.45 2059.68,1211.05 2059.68,1211.05L2057.05,1653.83L2068.37,1653.89Z" style="fill:rgb(35,56,98);fill-rule:nonzero;"/>
    </g>
    <g transform="matrix(0.16607,0,0,0.16607,-14.5922,-48.0832)">
        <path d="M2053.23,1653.8L2071.7,1653.91L2070.17,1634.6C2070.17,1634.6 2070.34,1631.92 2066.61,1631.74C2063.14,1631.58 2056.3,1631.05 2055.64,1633.14C2055.06,1634.98 2053.23,1653.8 2053.23,1653.8Z" style="fill:rgb(35,56,98);fill-rule:nonzero;"/>
    </g>
    <g transform="matrix(0.16607,0,0,0.16607,-14.5922,-48.0832)">
        <path d="M2035.58,1155.55L2034.28,1161.88C2034.28,1161.88 2002.98,1161.57 1995.46,1195.07C1995.46,1195.07 1993.39,1209.02 2003.47,1206.1C2013.56,1203.18 2012.03,1196.05 2026.31,1192.23C2040.58,1188.41 2049.88,1185.48 2052.11,1175.12L2054.5,1163.59L2035.58,1155.55Z" style="fill:rgb(255,178,125);fill-rule:nonzero;"/>
    </g>
    <g transform="matrix(0.16607,0,0,0.16607,-14.5922,-48.0832)">
        <path d="M2147.91,881.675C2147.91,881.675 2139.43,914.206 2132.11,943.951C2129.17,955.933 2126.41,967.458 2124.46,976.224C2122.47,985.23 2121.34,991.329 2121.75,992.009C2127.91,1002.13 2116.2,1063.52 2107.09,1085.79C2106.29,1087.76 2105.18,1090.08 2103.86,1092.64C2091.16,1117.17 2057.47,1165.25 2057.47,1165.25C2057.47,1165.25 2048.04,1166.18 2041.88,1163.82C2036.75,1161.84 2033.28,1155.53 2033.28,1155.53C2036.29,1150.74 2048.72,1094.01 2064.46,1062.25C2071.2,1048.67 2081.75,922.31 2094.74,905.366C2105.57,891.232 2147.91,881.675 2147.91,881.675Z" style="fill:rgb(249,151,70);fill-rule:nonzero;"/>
    </g>
    <g transform="matrix(0.16607,0,0,0.16607,-14.5922,-48.0832)">
        <path d="M2121.75,992.009C2127.91,1002.13 2116.2,1063.52 2107.09,1085.79C2106.29,1087.76 2105.18,1090.08 2103.86,1092.64C2092.18,1039.52 2112.5,964.491 2112.5,964.491C2117.45,966.486 2121.38,970.597 2124.46,976.224C2122.47,985.23 2121.34,991.329 2121.75,992.009Z" style="fill:rgb(237,125,43);fill-rule:nonzero;"/>
    </g>
    <g transform="matrix(0.16607,0,0,0.16607,-14.5922,-48.0832)">
        <path d="M2205,1605.93C2205,1605.93 2207.9,1653.96 2198.83,1654.58C2197.63,1654.66 2152.85,1654.4 2152.85,1654.4L2095.09,1654.05C2095.09,1654.05 2096.14,1639.95 2112.87,1637.14C2129.6,1634.33 2157.63,1622.75 2167.89,1600.73C2178.67,1577.56 2205,1605.93 2205,1605.93Z" style="fill:rgb(15,41,73);fill-rule:nonzero;"/>
    </g>
    <g transform="matrix(0.16607,0,0,0.16607,-14.5922,-48.0832)">
        <path d="M2291.88,1606.45C2291.88,1606.45 2294.78,1654.48 2285.71,1655.1C2284.5,1655.18 2239.72,1654.91 2239.72,1654.91L2181.96,1654.57C2181.96,1654.57 2183.02,1640.47 2199.75,1637.66C2216.47,1634.84 2244.51,1623.27 2254.76,1601.24C2265.55,1578.07 2291.88,1606.45 2291.88,1606.45Z" style="fill:rgb(22,53,96);fill-rule:nonzero;"/>
    </g>
    <g transform="matrix(0.16607,0,0,0.16607,-14.5922,-48.0832)">
        <path d="M2208.42,1490.23C2209.72,1510.54 2212.46,1536.66 2211.29,1560.19C2209.65,1593.08 2208.45,1620.82 2208.45,1620.82C2186.71,1628.07 2146.96,1618.89 2146.96,1618.89C2146.96,1618.89 2133.33,1535.65 2122.1,1469.2C2117.06,1439.43 2112.88,1413.67 2111.33,1401.51C2106.33,1362.21 2118.38,1153.47 2118.38,1153.47C2118.38,1153.47 2177.3,1116.19 2201.44,1135.73C2225.57,1155.27 2240.39,1174.31 2200.05,1386.55C2196.99,1402.65 2205.51,1444.73 2208.42,1490.23Z" style="fill:rgb(43,71,139);fill-rule:nonzero;"/>
    </g>
    <g transform="matrix(0.16607,0,0,0.16607,-14.5922,-48.0832)">
        <path d="M2208.42,1490.23C2209.72,1510.54 2212.15,1543.04 2210.98,1566.57C2190.7,1544.85 2150.75,1499.04 2122.1,1469.2C2117.06,1439.43 2112.88,1413.67 2111.33,1401.51C2106.33,1362.21 2118.38,1153.47 2118.38,1153.47C2118.38,1153.47 2177.3,1116.19 2201.44,1135.73C2225.57,1155.27 2240.39,1174.31 2200.05,1386.55C2196.99,1402.65 2205.51,1444.73 2208.42,1490.23Z" style="fill:rgb(35,56,98);fill-rule:nonzero;"/>
    </g>
    <g transform="matrix(0.16607,0,0,0.16607,-14.5922,-48.0832)">
        <path d="M2171.4,1158.03C2171.4,1158.03 2175.43,1367.08 2183.44,1405.88C2191.45,1444.68 2233.38,1622.35 2233.38,1622.35C2233.38,1622.35 2273.66,1626.26 2294.78,1617.36C2294.78,1617.36 2293.92,1535.19 2287.06,1486.88C2280.66,1441.74 2268.93,1400.44 2270.74,1384.15C2294.66,1169.44 2278.42,1151.59 2252.85,1133.96C2227.29,1116.33 2171.4,1158.03 2171.4,1158.03Z" style="fill:rgb(43,71,139);fill-rule:nonzero;"/>
    </g>
    <g transform="matrix(0.16607,0,0,0.16607,-14.5922,-48.0832)">
        <path d="M2250.96,1176.8C2250.96,1176.8 2236.83,1204.74 2263.54,1226.31C2263.54,1226.31 2275.13,1234.34 2276.98,1224C2278.82,1213.67 2276.74,1217.26 2279.64,1202.77C2282.53,1188.28 2279.03,1173.26 2270.72,1166.68L2250.96,1176.8Z" style="fill:rgb(255,178,125);fill-rule:nonzero;"/>
    </g>
    <g transform="matrix(0.16607,0,0,0.16607,-14.5922,-48.0832)">
        <path d="M2135.29,834.236C2135.29,834.236 2151.06,859.825 2147.71,882.667L2171.42,939.273L2213.71,874.25C2213.71,874.25 2192.25,848.874 2183.97,815.095L2135.29,834.236Z" style="fill:rgb(255,178,125);fill-rule:nonzero;"/>
    </g>
    <g transform="matrix(0.16607,0,0,0.16607,-14.5922,-48.0832)">
        <path d="M2128.1,855.096C2128.1,855.096 2186.77,857.985 2188.05,822.759C2189.32,787.534 2205.32,764.19 2161.45,760.833C2125.36,758.072 2113.27,773.054 2109.99,784.708C2106.7,796.362 2106.36,853.078 2128.1,855.096Z" style="fill:rgb(255,178,125);fill-rule:nonzero;"/>
    </g>
    <g transform="matrix(0.16607,0,0,0.16607,-14.5922,-48.0832)">
        <path d="M2269.92,1168.68C2257.3,1169.78 2239.93,1171.13 2218.86,1172.33C2214.65,1172.57 2210.3,1172.81 2205.81,1173.03C2142.19,1176.21 2116.97,1165.77 2116.97,1165.77C2116.97,1165.77 2115.29,1164.39 2115.87,1156.93C2118.87,1118.49 2127.1,1107.17 2126.16,1099.86C2124.04,1083.42 2084.99,949.136 2084.99,949.136C2084.99,949.136 2084.47,906.788 2131.68,887.194C2136.55,885.168 2141.91,883.394 2147.84,881.931C2149.87,887.423 2155.47,896.61 2169.94,895.01C2191.33,892.646 2206.63,880.135 2213.19,873.707C2214.38,873.714 2214.84,873.754 2214.84,873.754C2216.41,878.266 2217.63,882.97 2218.7,887.75C2222.47,904.416 2224.62,921.939 2234.76,935.091C2244.76,948.076 2253.31,960.872 2260.6,973.381C2266.67,983.791 2271.86,994.008 2276.29,1003.96C2317.44,1096.34 2284.76,1167.38 2269.92,1168.68Z" style="fill:rgb(249,151,70);fill-rule:nonzero;"/>
    </g>
    <g transform="matrix(0.16607,0,0,0.16607,-14.5922,-48.0832)">
        <path d="M2269.92,1168.68C2257.3,1169.78 2239.93,1171.13 2218.86,1172.33C2213.34,1068.78 2256.11,969.613 2256.11,969.613C2257.69,970.737 2259.19,971.996 2260.6,973.381C2267.9,980.562 2272.96,991.184 2276.29,1003.96C2288.58,1050.97 2277.61,1127.16 2269.92,1168.68Z" style="fill:rgb(237,125,43);fill-rule:nonzero;"/>
    </g>
    <g transform="matrix(0.16607,0,0,0.16607,-14.5922,-48.0832)">
        <path d="M2109.38,821.378C2109.38,821.378 2097.68,866.638 2117.04,873.136C2136.39,879.635 2187.89,874.826 2188.2,819.255C2188.2,819.255 2161.09,835.205 2148.19,834.72C2135.29,834.236 2127.01,826.742 2115.05,832.487C2115.05,832.487 2110.69,832.171 2109.38,821.378Z" style="fill:rgb(213,229,251);fill-rule:nonzero;"/>
    </g>
    <g transform="matrix(0.16607,0,0,0.16607,-14.5922,-48.0832)">
        <path d="M2214.84,873.749C2214.84,873.749 2255.86,874.916 2277.36,903.247C2293.84,924.956 2310.71,1041.02 2310.61,1058.48C2310.5,1075.94 2291.23,1172.18 2280.7,1182.59C2280.7,1182.59 2273.92,1184.29 2264.88,1182.49C2255.3,1180.58 2249.68,1175 2249.68,1175C2249.68,1175 2255.52,1067.75 2255.58,1057.69C2255.67,1043.12 2210.65,953.675 2210.65,953.675C2210.65,953.675 2187.29,911.096 2214.84,873.749Z" style="fill:rgb(249,151,70);fill-rule:nonzero;"/>
    </g>
    <g transform="matrix(0.16607,0,0,0.16607,-14.5922,-48.0832)">
        <path d="M2185.59,771.934C2184.63,768.331 2180.21,766.416 2180.21,766.416C2147.24,751.822 2122.99,767.432 2122.99,767.432C2143.41,740.356 2192.28,746.356 2202.43,770.947C2219.01,811.098 2188.2,819.255 2188.2,819.255C2188.2,819.255 2157.56,806.166 2175.44,790.092C2181.37,784.766 2184.25,780.016 2185.22,775.875C2185.54,774.493 2185.65,773.179 2185.59,771.934Z" style="fill:rgb(213,229,251);fill-rule:nonzero;"/>
    </g>
    <g transform="matrix(0.16607,0,0,0.16607,-14.5922,-48.0832)">
        <path d="M2118.97,839.781C2118.97,839.781 2122.84,845.893 2129.6,845.675C2136.36,845.457 2139.54,839.781 2139.54,839.781C2139.54,839.781 2128.13,837.599 2118.97,839.781Z" style="fill:white;fill-rule:nonzero;"/>
    </g>
</svg>
