<?xml version="1.0" encoding="UTF-8" standalone="no"?>
<!DOCTYPE svg PUBLIC "-//W3C//DTD SVG 1.1//EN" "http://www.w3.org/Graphics/SVG/1.1/DTD/svg11.dtd">
<svg width="100%" height="100%" viewBox="0 0 500 293" version="1.1" xmlns="http://www.w3.org/2000/svg" xmlns:xlink="http://www.w3.org/1999/xlink" xml:space="preserve" xmlns:serif="http://www.serif.com/" style="fill-rule:evenodd;clip-rule:evenodd;stroke-linejoin:round;stroke-miterlimit:2;">
    <g transform="matrix(0.181913,0,0,0.181913,-36.4776,-35.4416)">
        <path d="M417.726,1799.27C417.726,1799.27 81.4,1394.13 245.77,977.046C352.91,705.18 754.808,556.211 981.62,705.18C1078.22,768.628 1388.15,707.32 1553.63,444.639C1875.2,-65.812 2997.49,244.193 2793.17,1027.91C2694.3,1407.18 3094.09,1420.96 2890.38,1800.07L417.726,1799.27Z" style="fill:rgb(235,243,250);fill-rule:nonzero;"/>
    </g>
    <g transform="matrix(0.181913,0,0,0.181913,-36.4776,-35.4416)">
        <path d="M666.681,1132.49C666.681,1132.49 632.761,1092.92 664.589,1067.78C664.589,1067.78 687.838,1053.71 706.795,1054.85C706.795,1054.85 679.934,1099.89 688.624,1104.37C697.313,1108.85 714.936,1052.03 714.936,1052.03C714.936,1052.03 767.842,1046.9 784.861,1055.08C784.861,1055.08 739.633,1092.09 749.159,1094.29C758.684,1096.5 807.536,1060.17 807.536,1060.17C807.536,1060.17 856.776,1068.55 854.151,1098.59C851.525,1128.62 834.559,1137.9 827.102,1137.1C819.644,1136.3 776.022,1119.65 775.072,1125.76C774.122,1131.87 800.38,1151.84 818.768,1152.77C818.768,1152.77 784.052,1191.06 760.98,1180.01C737.908,1168.96 735.938,1151.45 721.556,1144.88C707.174,1138.31 694.897,1138.32 700.834,1145.02C706.772,1151.72 732.802,1158.23 741.026,1172.78C749.251,1187.33 756.63,1197.14 732.76,1193.55C708.889,1189.96 670.087,1172.49 668.384,1152.49L666.681,1132.49Z" style="fill:rgb(200,219,244);fill-rule:nonzero;"/>
    </g>
    <g transform="matrix(0.181913,0,0,0.181913,-36.4776,-35.4416)">
        <path d="M829.957,1099.4C829.957,1099.4 696.216,1094.24 666.681,1132.49C666.681,1132.49 660.149,1152.05 640.049,1169.87L636.917,1178.41C636.917,1178.41 660.092,1153.97 668.384,1152.49C668.384,1152.49 655.416,1105.11 829.957,1099.4Z" style="fill:rgb(200,219,244);fill-rule:nonzero;"/>
    </g>
    <g transform="matrix(0.181913,0,0,0.181913,-36.4776,-35.4416)">
        <path d="M640.049,1169.87C640.049,1169.87 611.343,1191.1 609.349,1229.03L614.559,1229.5C614.559,1229.5 623.728,1190.27 640.299,1174.94C656.87,1159.6 640.049,1169.87 640.049,1169.87Z" style="fill:rgb(200,219,244);fill-rule:nonzero;"/>
    </g>
    <g transform="matrix(0.181913,0,0,0.181913,-36.4776,-35.4416)">
        <path d="M548.086,1082.72C548.086,1082.72 602.043,1052.51 576.863,1011.5C576.863,1011.5 556.719,986.321 535.136,979.846C535.136,979.846 546.647,1041 535.136,1042.44C523.625,1043.88 527.223,973.371 527.223,973.371C527.223,973.371 470.387,946.033 448.085,948.191C448.085,948.191 483.337,1007.9 471.826,1006.46C460.315,1005.03 420.747,944.594 420.747,944.594C420.747,944.594 362.472,933.802 353.12,968.335C343.767,1002.87 358.875,1020.13 367.508,1022.29C376.142,1024.45 431.538,1023.73 430.099,1030.93C428.66,1038.12 391.25,1049.63 370.386,1043.16C370.386,1043.16 393.408,1099.99 423.624,1097.11C453.84,1094.24 463.193,1075.53 481.898,1074.09C500.604,1072.65 514.273,1077.69 504.92,1082.72C495.567,1087.76 463.913,1084.38 448.804,1097.22C433.696,1110.06 421.466,1117.98 449.524,1123.73C477.582,1129.49 527.942,1125.89 538.014,1104.31L548.086,1082.72Z" style="fill:rgb(200,219,244);fill-rule:nonzero;"/>
    </g>
    <g transform="matrix(0.181913,0,0,0.181913,-36.4776,-35.4416)">
        <path d="M379.739,979.126C379.739,979.126 530.82,1028.05 548.086,1082.72C548.086,1082.72 547.367,1107.19 562.475,1135.24L562.475,1146.04C562.475,1146.04 546.647,1109.34 538.014,1104.31C538.014,1104.31 571.827,1056.83 379.739,979.126Z" style="fill:rgb(200,219,244);fill-rule:nonzero;"/>
    </g>
    <g transform="matrix(0.181913,0,0,0.181913,-36.4776,-35.4416)">
        <path d="M562.475,1135.24C562.475,1135.24 585.774,1170.63 572.491,1213.69L566.497,1212.08C566.497,1212.08 572.315,1164.65 560.125,1140.79C547.936,1116.93 562.475,1135.24 562.475,1135.24Z" style="fill:rgb(200,219,244);fill-rule:nonzero;"/>
    </g>
    <g transform="matrix(0.181913,0,0,0.181913,-36.4776,-35.4416)">
        <path d="M633.928,1041.05C633.928,1041.05 562.802,1001.22 595.994,947.167C595.994,947.167 622.548,913.974 650.999,905.439C650.999,905.439 635.825,986.049 650.999,987.945C666.172,989.842 661.43,896.904 661.43,896.904C661.43,896.904 736.35,860.867 765.749,863.712C765.749,863.712 719.279,942.425 734.453,940.528C749.626,938.631 801.786,858.97 801.786,858.97C801.786,858.97 878.602,844.745 890.93,890.266C903.259,935.786 883.344,958.546 871.963,961.392C860.583,964.236 787.561,963.288 789.457,972.771C791.354,982.255 840.668,997.429 868.17,988.894C868.17,988.894 837.823,1063.81 797.992,1060.02C758.162,1056.23 745.833,1031.57 721.176,1029.67C696.519,1027.78 678.5,1034.41 690.829,1041.05C703.158,1047.69 744.885,1043.23 764.8,1060.16C784.715,1077.09 800.837,1087.52 763.852,1095.11C726.866,1102.7 660.482,1097.95 647.205,1069.5L633.928,1041.05Z" style="fill:rgb(212,228,248);fill-rule:nonzero;"/>
    </g>
    <g transform="matrix(0.181913,0,0,0.181913,-36.4776,-35.4416)">
        <path d="M855.841,904.491C855.841,904.491 656.688,968.979 633.928,1041.05C633.928,1041.05 634.876,1073.3 614.961,1110.28L614.961,1124.51C614.961,1124.51 635.825,1076.14 647.205,1069.5C647.205,1069.5 602.633,1006.91 855.841,904.491Z" style="fill:rgb(212,228,248);fill-rule:nonzero;"/>
    </g>
    <g transform="matrix(0.181913,0,0,0.181913,-36.4776,-35.4416)">
        <path d="M614.961,1110.28C614.961,1110.28 584.249,1156.92 601.758,1213.69L609.659,1211.57C609.659,1211.57 601.989,1149.04 618.058,1117.59C634.126,1086.14 614.961,1110.28 614.961,1110.28Z" style="fill:rgb(212,228,248);fill-rule:nonzero;"/>
    </g>
    <g transform="matrix(0.181913,0,0,0.181913,-36.4776,-35.4416)">
        <path d="M631.532,1336.81C708.479,1336.81 770.856,1274.43 770.856,1197.48L492.207,1197.48C492.207,1274.43 554.585,1336.81 631.532,1336.81Z" style="fill:rgb(212,228,248);fill-rule:nonzero;"/>
    </g>
    <g transform="matrix(0.181913,0,0,0.181913,-36.4776,-35.4416)">
        <path d="M772.78,1343.9L490.283,1343.9C490.283,1334.4 497.979,1326.71 507.472,1326.71L755.591,1326.71C765.084,1326.71 772.78,1334.4 772.78,1343.9Z" style="fill:rgb(212,228,248);fill-rule:nonzero;"/>
    </g>
    <g transform="matrix(0.181913,0,0,0.181913,-36.4776,-35.4416)">
        <rect x="487.626" y="1197.48" width="286.398" height="4.27" style="fill:rgb(159,193,244);fill-rule:nonzero;"/>
    </g>
    <g transform="matrix(0.181913,0,0,0.181913,-36.4776,-35.4416)">
        <path d="M1350.45,1796.37L1351.14,1796.36C1356.77,1796.26 1361.12,1791.66 1360.59,1786.36L1323.03,1411.29L1290.26,1414.22L1344.19,1791.3C1344.61,1794.25 1347.3,1796.43 1350.45,1796.37Z" style="fill:rgb(140,180,244);fill-rule:nonzero;"/>
    </g>
    <g transform="matrix(0.181913,0,0,0.181913,-36.4776,-35.4416)">
        <path d="M988.825,1796.37L988.137,1796.36C982.507,1796.26 978.16,1791.66 978.689,1786.36L1016.25,1411.29L1049.02,1414.22L995.089,1791.3C994.668,1794.25 991.974,1796.43 988.825,1796.37Z" style="fill:rgb(140,180,244);fill-rule:nonzero;"/>
    </g>
    <g transform="matrix(0.181913,0,0,0.181913,-36.4776,-35.4416)">
        <path d="M1615.4,1796.37L1616.09,1796.36C1621.72,1796.26 1626.07,1791.66 1625.54,1786.36L1587.98,1411.29L1555.21,1414.22L1609.14,1791.3C1609.56,1794.25 1612.25,1796.43 1615.4,1796.37Z" style="fill:rgb(140,180,244);fill-rule:nonzero;"/>
    </g>
    <g transform="matrix(0.181913,0,0,0.181913,-36.4776,-35.4416)">
        <path d="M1000.01,1356.74L933.346,1027.53C924.79,982.959 961.724,942.203 1009.68,943.298L1138.25,946.234C1182.6,947.247 1221.16,976.931 1233.49,1019.55L1331.02,1356.74L1000.01,1356.74Z" style="fill:rgb(140,180,244);fill-rule:nonzero;"/>
    </g>
    <g transform="matrix(0.181913,0,0,0.181913,-36.4776,-35.4416)">
        <path d="M1040.34,1356.74L973.677,1027.53C965.12,982.959 1002.05,942.203 1050.01,943.298L1178.58,946.234C1222.93,947.247 1261.49,976.931 1273.82,1019.55L1371.35,1356.74L1040.34,1356.74Z" style="fill:rgb(140,180,244);fill-rule:nonzero;"/>
    </g>
    <g transform="matrix(0.181913,0,0,0.181913,-36.4776,-35.4416)">
        <path d="M1018.59,1416.78L1527.25,1416.78C1537.47,1416.78 1545.83,1408.42 1545.83,1398.2L1545.83,1375.32C1545.83,1365.1 1537.47,1356.74 1527.25,1356.74L1000.01,1356.74L1000.01,1398.2C1000.01,1408.42 1008.37,1416.78 1018.59,1416.78Z" style="fill:rgb(140,180,244);fill-rule:nonzero;"/>
    </g>
    <g transform="matrix(0.181913,0,0,0.181913,-36.4776,-35.4416)">
        <path d="M1257.29,1416.78L1581.55,1416.78C1589.78,1416.78 1596.52,1410.04 1596.52,1401.81L1596.52,1371.7C1596.52,1363.47 1589.78,1356.74 1581.55,1356.74L1257.29,1356.74C1249.06,1356.74 1242.32,1363.47 1242.32,1371.7L1242.32,1401.81C1242.32,1410.04 1249.06,1416.78 1257.29,1416.78Z" style="fill:rgb(140,180,244);fill-rule:nonzero;"/>
    </g>
    <g transform="matrix(0.181913,0,0,0.181913,-36.4776,-35.4416)">
        <path d="M848.238,1352.45L848.238,1363.68C848.238,1367.61 846.965,1370.82 845.412,1370.82L435.555,1370.82C434.002,1370.82 432.729,1367.61 432.729,1363.68L432.729,1352.45C432.729,1348.52 434.002,1345.31 435.555,1345.31L845.412,1345.31C846.965,1345.31 848.238,1348.52 848.238,1352.45Z" style="fill:rgb(154,191,226);fill-rule:nonzero;"/>
    </g>
    <g transform="matrix(0.181913,0,0,0.181913,-36.4776,-35.4416)">
        <path d="M848.238,1352.45L848.238,1363.68C848.238,1367.61 847.07,1370.82 845.644,1370.82L520.263,1370.82C518.836,1370.82 517.668,1367.61 517.668,1363.68L517.668,1352.45C517.668,1348.52 518.836,1345.31 520.263,1345.31L845.644,1345.31C847.07,1345.31 848.238,1348.52 848.238,1352.45Z" style="fill:rgb(186,212,244);fill-rule:nonzero;"/>
    </g>
    <g transform="matrix(0.181913,0,0,0.181913,-36.4776,-35.4416)">
        <rect x="453.531" y="1370.83" width="290.973" height="424.1" style="fill:rgb(200,219,244);fill-rule:nonzero;"/>
    </g>
    <g transform="matrix(0.181913,0,0,0.181913,-36.4776,-35.4416)">
        <rect x="535.073" y="1370.83" width="290.973" height="424.1" style="fill:rgb(223,235,253);fill-rule:nonzero;"/>
    </g>
    <g transform="matrix(0.181913,0,0,0.181913,-36.4776,-35.4416)">
        <path d="M553.516,1768.71L807.609,1768.71L807.609,1385.61L553.516,1385.61L553.516,1768.71ZM810.414,1771.52L550.712,1771.52L550.712,1382.81L810.414,1382.81L810.414,1771.52Z" style="fill:rgb(183,211,243);fill-rule:nonzero;"/>
    </g>
    <g transform="matrix(0.181913,0,0,0.181913,-36.4776,-35.4416)">
        <rect x="552.114" y="1511.4" width="256.897" height="2.8" style="fill:rgb(183,211,243);fill-rule:nonzero;"/>
    </g>
    <g transform="matrix(0.181913,0,0,0.181913,-36.4776,-35.4416)">
        <rect x="552.114" y="1642.49" width="256.897" height="2.8" style="fill:rgb(183,211,243);fill-rule:nonzero;"/>
    </g>
    <g transform="matrix(0.181913,0,0,0.181913,-36.4776,-35.4416)">
        <path d="M706.887,1407.88L659.216,1407.88C656.902,1407.88 655.01,1405.98 655.01,1403.67C655.01,1401.36 656.902,1399.46 659.216,1399.46L706.887,1399.46C709.2,1399.46 711.093,1401.36 711.093,1403.67C711.093,1405.98 709.2,1407.88 706.887,1407.88Z" style="fill:rgb(183,211,243);fill-rule:nonzero;"/>
    </g>
    <g transform="matrix(0.181913,0,0,0.181913,-36.4776,-35.4416)">
        <path d="M706.887,1536.07L659.216,1536.07C656.902,1536.07 655.01,1534.18 655.01,1531.87C655.01,1529.55 656.902,1527.66 659.216,1527.66L706.887,1527.66C709.2,1527.66 711.093,1529.55 711.093,1531.87C711.093,1534.18 709.2,1536.07 706.887,1536.07Z" style="fill:rgb(183,211,243);fill-rule:nonzero;"/>
    </g>
    <g transform="matrix(0.181913,0,0,0.181913,-36.4776,-35.4416)">
        <path d="M706.887,1669.71L659.216,1669.71C656.902,1669.71 655.01,1667.82 655.01,1665.5C655.01,1663.19 656.902,1661.3 659.216,1661.3L706.887,1661.3C709.2,1661.3 711.093,1663.19 711.093,1665.5C711.093,1667.82 709.2,1669.71 706.887,1669.71Z" style="fill:rgb(183,211,243);fill-rule:nonzero;"/>
    </g>
    <g transform="matrix(0.181913,0,0,0.181913,-36.4776,-35.4416)">
        <path d="M1990.51,608.279L1806.08,608.279C1797.61,608.279 1790.68,601.352 1790.68,592.885L1790.68,414.874C1790.68,406.407 1797.61,399.479 1806.08,399.479L1990.51,399.479C1998.98,399.479 2005.91,406.407 2005.91,414.874L2005.91,592.885C2005.91,601.352 1998.98,608.279 1990.51,608.279Z" style="fill:rgb(192,216,251);fill-rule:nonzero;"/>
    </g>
    <g transform="matrix(0.181913,0,0,0.181913,-36.4776,-35.4416)">
        <path d="M1982.52,599.233L1814.07,599.233C1806.33,599.233 1800.01,592.906 1800.01,585.173L1800.01,422.585C1800.01,414.852 1806.33,408.525 1814.07,408.525L1982.52,408.525C1990.25,408.525 1996.58,414.852 1996.58,422.585L1996.58,585.173C1996.58,592.906 1990.25,599.233 1982.52,599.233Z" style="fill:rgb(223,235,253);fill-rule:nonzero;"/>
    </g>
    <g transform="matrix(0.181913,0,0,0.181913,-36.4776,-35.4416)">
        <path d="M1893.84,427.582C1893.84,425.119 1895.83,423.123 1898.29,423.123C1900.76,423.123 1902.75,425.119 1902.75,427.582C1902.75,430.044 1900.76,432.04 1898.29,432.04C1895.83,432.04 1893.84,430.044 1893.84,427.582Z" style="fill:rgb(183,211,243);fill-rule:nonzero;"/>
    </g>
    <g transform="matrix(0.181913,0,0,0.181913,-36.4776,-35.4416)">
        <path d="M1929.81,433.883C1931.01,431.73 1933.72,430.956 1935.87,432.151C1938.03,433.348 1938.8,436.062 1937.6,438.214C1936.41,440.366 1933.69,441.142 1931.54,439.945C1929.39,438.75 1928.61,436.035 1929.81,433.883Z" style="fill:rgb(183,211,243);fill-rule:nonzero;"/>
    </g>
    <g transform="matrix(0.181913,0,0,0.181913,-36.4776,-35.4416)">
        <path d="M1960.63,458.368C1962.7,457.034 1965.46,457.629 1966.79,459.698C1968.13,461.767 1967.53,464.526 1965.46,465.861C1963.4,467.196 1960.64,466.601 1959.3,464.532C1957.97,462.462 1958.56,459.703 1960.63,458.368Z" style="fill:rgb(183,211,243);fill-rule:nonzero;"/>
    </g>
    <g transform="matrix(0.181913,0,0,0.181913,-36.4776,-35.4416)">
        <path d="M1975.9,496.267C1978.36,496.267 1980.35,498.263 1980.35,500.725C1980.35,503.187 1978.36,505.183 1975.9,505.183C1973.43,505.183 1971.44,503.187 1971.44,500.725C1971.44,498.263 1973.43,496.267 1975.9,496.267Z" style="fill:rgb(183,211,243);fill-rule:nonzero;"/>
    </g>
    <g transform="matrix(0.181913,0,0,0.181913,-36.4776,-35.4416)">
        <path d="M1968.1,540.248C1969.84,541.989 1969.84,544.812 1968.1,546.553C1966.36,548.294 1963.54,548.294 1961.8,546.553C1960.06,544.812 1960.06,541.989 1961.8,540.248C1963.54,538.507 1966.36,538.507 1968.1,540.248Z" style="fill:rgb(183,211,243);fill-rule:nonzero;"/>
    </g>
    <g transform="matrix(0.181913,0,0,0.181913,-36.4776,-35.4416)">
        <path d="M1940.11,568.317C1941.85,570.058 1941.85,572.881 1940.11,574.622C1938.37,576.363 1935.54,576.363 1933.8,574.622C1932.06,572.881 1932.06,570.058 1933.8,568.317C1935.54,566.576 1938.37,566.576 1940.11,568.317Z" style="fill:rgb(183,211,243);fill-rule:nonzero;"/>
    </g>
    <g transform="matrix(0.181913,0,0,0.181913,-36.4776,-35.4416)">
        <path d="M1893.84,582.785C1893.84,580.322 1895.83,578.326 1898.29,578.326C1900.76,578.326 1902.75,580.322 1902.75,582.785C1902.75,585.247 1900.76,587.243 1898.29,587.243C1895.83,587.243 1893.84,585.247 1893.84,582.785Z" style="fill:rgb(183,211,243);fill-rule:nonzero;"/>
    </g>
    <g transform="matrix(0.181913,0,0,0.181913,-36.4776,-35.4416)">
        <path d="M1866.64,433.883C1865.44,431.73 1862.73,430.956 1860.57,432.151C1858.42,433.348 1857.65,436.062 1858.84,438.214C1860.04,440.366 1862.75,441.142 1864.91,439.945C1867.06,438.75 1867.83,436.035 1866.64,433.883Z" style="fill:rgb(183,211,243);fill-rule:nonzero;"/>
    </g>
    <g transform="matrix(0.181913,0,0,0.181913,-36.4776,-35.4416)">
        <path d="M1835.82,458.368C1833.75,457.034 1830.99,457.629 1829.65,459.698C1828.32,461.767 1828.91,464.526 1830.98,465.861C1833.05,467.196 1835.81,466.601 1837.15,464.532C1838.48,462.462 1837.89,459.703 1835.82,458.368Z" style="fill:rgb(183,211,243);fill-rule:nonzero;"/>
    </g>
    <g transform="matrix(0.181913,0,0,0.181913,-36.4776,-35.4416)">
        <path d="M1820.55,496.267C1818.09,496.267 1816.09,498.263 1816.09,500.725C1816.09,503.187 1818.09,505.183 1820.55,505.183C1823.01,505.183 1825.01,503.187 1825.01,500.725C1825.01,498.263 1823.01,496.267 1820.55,496.267Z" style="fill:rgb(183,211,243);fill-rule:nonzero;"/>
    </g>
    <g transform="matrix(0.181913,0,0,0.181913,-36.4776,-35.4416)">
        <path d="M1828.35,540.248C1826.6,541.989 1826.6,544.812 1828.35,546.553C1830.09,548.294 1832.91,548.294 1834.65,546.553C1836.39,544.812 1836.39,541.989 1834.65,540.248C1832.91,538.507 1830.09,538.507 1828.35,540.248Z" style="fill:rgb(183,211,243);fill-rule:nonzero;"/>
    </g>
    <g transform="matrix(0.181913,0,0,0.181913,-36.4776,-35.4416)">
        <path d="M1856.34,568.317C1854.6,570.058 1854.6,572.881 1856.34,574.622C1858.08,576.363 1860.91,576.363 1862.65,574.622C1864.39,572.881 1864.39,570.058 1862.65,568.317C1860.91,566.576 1858.08,566.576 1856.34,568.317Z" style="fill:rgb(183,211,243);fill-rule:nonzero;"/>
    </g>
    <g transform="matrix(0.181913,0,0,0.181913,-36.4776,-35.4416)">
        <path d="M1897.09,500.725C1897.09,498.263 1899.09,496.267 1901.55,496.267C1904.01,496.267 1906.01,498.263 1906.01,500.725C1906.01,503.187 1904.01,505.183 1901.55,505.183C1899.09,505.183 1897.09,503.187 1897.09,500.725Z" style="fill:rgb(183,211,243);fill-rule:nonzero;"/>
    </g>
    <g transform="matrix(0.181913,0,0,0.181913,-36.4776,-35.4416)">
        <rect x="1900.94" y="445.029" width="1.22" height="55.696" style="fill:rgb(183,211,243);fill-rule:nonzero;"/>
    </g>
    <g transform="matrix(0.181913,0,0,0.181913,-36.4776,-35.4416)">
        <path d="M1902.12,502.082L1899.86,499.209L1929.39,476.031L1931.64,478.904L1902.12,502.082Z" style="fill:rgb(183,211,243);fill-rule:nonzero;"/>
    </g>
    <g transform="matrix(0.181913,0,0,0.181913,-36.4776,-35.4416)">
        <path d="M1443.13,1287.84C1415.61,1335.74 1381,1354.22 1381,1354.22L1237.01,1354.22C1237.01,1354.22 1464.12,1251.31 1443.13,1287.84Z" style="fill:rgb(35,56,98);fill-rule:nonzero;"/>
    </g>
    <g transform="matrix(0.181913,0,0,0.181913,-36.4776,-35.4416)">
        <path d="M1620.72,1763.66C1619.17,1778.77 1640.18,1782.67 1664.55,1784.15C1688.92,1785.62 1681.5,1790.54 1714.85,1796.95C1748.2,1803.36 1761.69,1794.36 1764.16,1789.87C1766.35,1785.89 1750.88,1779.46 1734.4,1772.2C1732.33,1771.29 1730.25,1770.36 1728.18,1769.42C1709.63,1761.03 1699.35,1744.21 1684.99,1728.56C1671.39,1713.73 1658.83,1666.61 1658.83,1666.61L1613.52,1656.42C1613.52,1656.42 1625.82,1698.85 1630.05,1716.95C1632.54,1727.6 1628.57,1739.43 1625.07,1748.43C1623.18,1753.33 1621.27,1758.34 1620.72,1763.66Z" style="fill:rgb(255,178,125);fill-rule:nonzero;"/>
    </g>
    <g transform="matrix(0.181913,0,0,0.181913,-36.4776,-35.4416)">
        <path d="M1664.55,1784.15C1688.92,1785.62 1681.5,1790.54 1714.85,1796.95C1748.2,1803.36 1761.69,1794.36 1764.16,1789.87C1766.35,1785.89 1750.88,1779.46 1734.4,1772.2L1734.14,1772.48C1734.14,1772.48 1710.56,1780.2 1683.52,1772.54C1661.48,1766.3 1640.25,1752.86 1625.07,1748.43C1623.18,1753.33 1621.27,1758.34 1620.72,1763.66C1619.17,1778.77 1640.18,1782.67 1664.55,1784.15Z" style="fill:rgb(15,37,73);fill-rule:nonzero;"/>
    </g>
    <g transform="matrix(0.181913,0,0,0.181913,-36.4776,-35.4416)">
        <path d="M1552.08,1238.78C1527.71,1221.67 1366.45,1191.15 1284.15,1182.32L1193.2,1103.36C1193.2,1103.36 1115.77,1218.04 1115.16,1305.77C1114.88,1346.67 1133.72,1350.73 1133.72,1350.74C1133.72,1350.74 1425.31,1352.91 1438.09,1354.22C1459.01,1356.38 1486.6,1408.5 1493.5,1455.97C1500.4,1503.44 1621.99,1696.51 1621.99,1696.51C1621.99,1696.51 1647.35,1704.64 1659.07,1703.95C1671.68,1703.21 1677.52,1698.98 1677.52,1698.98C1677.52,1698.98 1607.06,1277.39 1552.08,1238.78Z" style="fill:rgb(35,56,98);fill-rule:nonzero;"/>
    </g>
    <g transform="matrix(0.181913,0,0,0.181913,-36.4776,-35.4416)">
        <path d="M1545.3,1763.66C1543.75,1778.77 1564.76,1782.67 1589.13,1784.15C1613.5,1785.62 1606.08,1790.54 1639.43,1796.95C1672.78,1803.36 1686.27,1794.36 1688.73,1789.87C1690.93,1785.89 1675.46,1779.46 1658.98,1772.2C1656.91,1771.29 1654.83,1770.36 1652.76,1769.42C1634.21,1761.03 1623.93,1744.21 1609.57,1728.56C1595.97,1713.73 1583.41,1666.61 1583.41,1666.61L1538.1,1656.42C1538.1,1656.42 1550.4,1698.85 1554.63,1716.95C1557.12,1727.6 1553.15,1739.43 1549.65,1748.43C1547.75,1753.33 1545.85,1758.34 1545.3,1763.66Z" style="fill:rgb(255,178,125);fill-rule:nonzero;"/>
    </g>
    <g transform="matrix(0.181913,0,0,0.181913,-36.4776,-35.4416)">
        <path d="M1589.13,1784.15C1613.5,1785.62 1606.08,1790.54 1639.43,1796.95C1672.78,1803.36 1686.27,1794.36 1688.73,1789.87C1690.93,1785.89 1675.46,1779.46 1658.98,1772.2L1658.72,1772.48C1658.72,1772.48 1635.14,1780.2 1608.1,1772.54C1586.06,1766.3 1564.83,1752.86 1549.65,1748.43C1547.75,1753.33 1545.85,1758.34 1545.3,1763.66C1543.75,1778.77 1564.76,1782.67 1589.13,1784.15Z" style="fill:rgb(35,56,98);fill-rule:nonzero;"/>
    </g>
    <g transform="matrix(0.181913,0,0,0.181913,-36.4776,-35.4416)">
        <path d="M1476,1238.78C1454.82,1223.91 1391.12,1212.38 1320.81,1203.83C1301.37,1201.46 1285.4,1187.33 1280.66,1168.33L1117.11,1103.36C1117.11,1103.36 1039.69,1218.04 1039.07,1305.77C1038.79,1346.67 1057.63,1350.73 1057.63,1350.74C1057.63,1350.74 1349.22,1352.91 1362,1354.22C1382.92,1356.38 1410.52,1408.5 1417.41,1455.97C1424.31,1503.44 1545.9,1696.51 1545.9,1696.51C1545.9,1696.51 1571.26,1704.64 1582.98,1703.95C1595.6,1703.21 1601.43,1698.98 1601.43,1698.98C1601.43,1698.98 1530.97,1277.39 1476,1238.78Z" style="fill:rgb(43,71,139);fill-rule:nonzero;"/>
    </g>
    <g transform="matrix(0.181913,0,0,0.181913,-36.4776,-35.4416)">
        <path d="M1257.15,626.916C1234.67,615.114 1200.48,613.518 1194.92,612.771C1128.44,603.837 1088.43,700.441 1086.07,729.712C1081.74,783.666 1053.2,791.892 1013.02,825.682C932.467,893.434 956.089,972.162 1000.14,1001.42C1026.56,1018.97 1073.15,1001.41 1073.15,1001.41C1073.81,1001.87 1200.55,930.563 1263.02,896.163C1356.68,882.849 1314.42,656.99 1257.15,626.916Z" style="fill:rgb(35,56,98);fill-rule:nonzero;"/>
    </g>
    <g transform="matrix(0.181913,0,0,0.181913,-36.4776,-35.4416)">
        <path d="M1243.28,862.93C1243.58,863.08 1213.74,876.647 1192.21,869.532C1171.95,862.857 1154.11,832.357 1154.39,832.313C1163.19,831.038 1172.12,822.364 1174.62,770.964L1178.51,771.944L1243.98,788.491C1243.98,788.491 1241.39,809.231 1240.32,828.841C1239.42,845.305 1239.61,860.975 1243.28,862.93Z" style="fill:rgb(255,178,125);fill-rule:nonzero;"/>
    </g>
    <g transform="matrix(0.181913,0,0,0.181913,-36.4776,-35.4416)">
        <path d="M1243.98,788.491C1243.98,788.491 1243.98,792.759 1241.53,812.054C1204.51,802.715 1188.18,790.437 1176.67,776.386L1243.98,788.491Z" style="fill:rgb(237,151,93);fill-rule:nonzero;"/>
    </g>
    <g transform="matrix(0.181913,0,0,0.181913,-36.4776,-35.4416)">
        <path d="M1257.95,791.103C1257.95,791.103 1171.37,805.198 1163.43,751.149C1155.48,697.101 1138.95,662.519 1193.89,651.234C1248.83,639.95 1262.63,658.991 1269.67,676.386C1276.71,693.781 1280.26,786.043 1257.95,791.103Z" style="fill:rgb(255,178,125);fill-rule:nonzero;"/>
    </g>
    <g transform="matrix(0.181913,0,0,0.181913,-36.4776,-35.4416)">
        <path d="M1258.03,648.97C1258.03,648.97 1218.72,711.03 1183.62,725.728C1148.52,740.426 1131.28,732.964 1131.28,732.964C1131.28,732.964 1147.25,708.754 1151.41,676.247C1152.63,666.665 1158.88,658.449 1167.84,654.858C1193.03,644.771 1241.75,628.865 1258.03,648.97Z" style="fill:rgb(35,56,98);fill-rule:nonzero;"/>
    </g>
    <g transform="matrix(0.181913,0,0,0.181913,-36.4776,-35.4416)">
        <path d="M1223.5,654.969C1223.5,654.969 1246.54,666.783 1256.03,677.855C1265.19,688.54 1275.77,717.532 1275.01,730.552C1275.01,730.552 1286.38,668.155 1262.7,646.706C1237.59,623.962 1223.5,654.969 1223.5,654.969Z" style="fill:rgb(35,56,98);fill-rule:nonzero;"/>
    </g>
    <g transform="matrix(0.181913,0,0,0.181913,-36.4776,-35.4416)">
        <path d="M1312.54,994.972C1309.92,1170.95 1311.82,1134.17 1292.57,1150.87C1287.93,1154.89 1274.9,1157.29 1257.73,1158.42C1203.77,1162 1108.92,1153.12 1105.31,1143.14C1092.86,1108.64 1101.65,1097.92 1091.27,1045.09C1090.18,1039.47 1088.84,1033.39 1087.27,1026.77C1078.61,990.488 1070.19,978.145 1100.9,919.855C1128.76,867.055 1161.52,824.163 1164.12,825.709C1237.61,869.335 1240.13,832.766 1240.13,832.766C1240.13,832.766 1313.83,909.136 1312.54,994.972Z" style="fill:white;fill-rule:nonzero;"/>
    </g>
    <g transform="matrix(0.181913,0,0,0.181913,-36.4776,-35.4416)">
        <path d="M1240.13,832.766C1240.13,832.766 1315.35,845.516 1324.23,878.075C1333.11,910.634 1385.36,1102.04 1385.36,1102.04C1385.36,1102.04 1346.92,1108.95 1329.16,1091.19C1311.4,1073.43 1267.36,926.42 1267.36,926.42L1240.13,832.766Z" style="fill:white;fill-rule:nonzero;"/>
    </g>
    <g transform="matrix(0.181913,0,0,0.181913,-36.4776,-35.4416)">
        <path d="M1257.73,1158.42C1203.77,1162 1108.92,1153.12 1105.31,1143.14C1092.86,1108.64 1101.65,1097.92 1091.27,1045.09L1117.29,971.806C1117.29,971.806 1112.99,1053.42 1137.06,1074.88C1161.1,1096.35 1235.6,1116.32 1247.3,1134.25C1252.94,1142.86 1256.65,1151.49 1257.73,1158.42Z" style="fill:rgb(235,243,255);fill-rule:nonzero;"/>
    </g>
    <g transform="matrix(0.181913,0,0,0.181913,-36.4776,-35.4416)">
        <path d="M1195.91,1124.1C1195.91,1124.1 1249.14,1112.25 1257.73,1116.97C1266.32,1121.69 1287.32,1138.9 1289.94,1144.89C1292.57,1150.87 1270.82,1140.34 1263.75,1138.44C1259.16,1137.21 1247.1,1141.41 1241.13,1143.4C1216.01,1151.77 1200.61,1147.46 1200.61,1147.46L1195.91,1124.1Z" style="fill:rgb(255,178,125);fill-rule:nonzero;"/>
    </g>
    <g transform="matrix(0.181913,0,0,0.181913,-36.4776,-35.4416)">
        <path d="M1164.12,825.709C1164.12,825.709 1088.78,830.112 1064.03,864.625C1029.2,913.207 960.1,1120.26 999.701,1147.87C1044.3,1178.97 1202.68,1156 1202.68,1156C1202.68,1156 1207.95,1131.37 1200.61,1119.45C1193.28,1107.54 1074.12,1088.29 1068.62,1082.79C1063.12,1077.29 1137.36,975.54 1137.36,959.04C1137.36,942.54 1164.12,825.709 1164.12,825.709Z" style="fill:white;fill-rule:nonzero;"/>
    </g>
    <g transform="matrix(0.181913,0,0,0.181913,-36.4776,-35.4416)">
        <path d="M1260.31,1131.79C1260.31,1131.79 1271.46,1146.17 1275.12,1147.89C1278.78,1149.61 1281.14,1149.18 1281.14,1149.18L1273.62,1135.65L1260.31,1131.79Z" style="fill:rgb(255,178,125);fill-rule:nonzero;"/>
    </g>
    <g transform="matrix(0.181913,0,0,0.181913,-36.4776,-35.4416)">
        <path d="M1257.73,1116.97L1290.16,1132.72C1290.16,1132.72 1288.78,1134.98 1284.79,1134.79C1280.8,1134.61 1270.73,1130.93 1270.73,1130.93L1257.73,1116.97Z" style="fill:rgb(255,178,125);fill-rule:nonzero;"/>
    </g>
    <g transform="matrix(0.181913,0,0,0.181913,-36.4776,-35.4416)">
        <path d="M1377.2,1154.3L1226.58,1154.3C1226.58,1147.67 1231.96,1142.3 1238.59,1142.3L1377.2,1142.3L1377.2,1154.3Z" style="fill:rgb(237,125,43);fill-rule:nonzero;"/>
    </g>
    <g transform="matrix(0.181913,0,0,0.181913,-36.4776,-35.4416)">
        <path d="M1376.76,990.267L1609.63,990.267L1553.77,1154.3L1319.4,1154.3L1376.76,990.267Z" style="fill:rgb(237,125,43);fill-rule:nonzero;"/>
    </g>
    <g transform="matrix(0.181913,0,0,0.181913,-36.4776,-35.4416)">
        <path d="M1613.06,990.264L1557.2,1154.3L1322.83,1154.3L1380.2,990.264L1613.06,990.264Z" style="fill:rgb(249,151,70);fill-rule:nonzero;"/>
    </g>
    <g transform="matrix(0.181913,0,0,0.181913,-36.4776,-35.4416)">
        <path d="M1487.51,1070.77C1486.07,1077.04 1479.81,1082.12 1473.54,1082.12C1467.28,1082.12 1463.37,1077.04 1464.82,1070.77C1466.26,1064.5 1472.52,1059.42 1478.78,1059.42C1485.05,1059.42 1488.96,1064.5 1487.51,1070.77Z" style="fill:white;fill-rule:nonzero;"/>
    </g>
    <g transform="matrix(0.181913,0,0,0.181913,-36.4776,-35.4416)">
        <path d="M1174.52,1191.21L2195.01,1191.21C2199.3,1191.21 2202.78,1187.73 2202.78,1183.44L2202.78,1162.07C2202.78,1157.78 2199.3,1154.3 2195.01,1154.3L1174.52,1154.3C1170.23,1154.3 1166.75,1157.78 1166.75,1162.07L1166.75,1183.44C1166.75,1187.73 1170.23,1191.21 1174.52,1191.21Z" style="fill:rgb(24,45,79);fill-rule:nonzero;"/>
    </g>
    <g transform="matrix(0.181913,0,0,0.181913,-36.4776,-35.4416)">
        <path d="M2219.99,1799.12L2220.43,1799.07C2225.66,1798.42 2229.36,1793.75 2228.7,1788.64L2137.76,1173.08L2104.47,1174.03L2211.46,1792.93C2212.15,1796.89 2215.91,1799.62 2219.99,1799.12Z" style="fill:rgb(24,45,79);fill-rule:nonzero;"/>
    </g>
    <g transform="matrix(0.181913,0,0,0.181913,-36.4776,-35.4416)">
        <path d="M1140.35,1799.12L1139.91,1799.07C1134.68,1798.42 1130.98,1793.75 1131.64,1788.64L1222.58,1173.08L1255.87,1174.03L1148.87,1792.93C1148.19,1796.89 1144.43,1799.62 1140.35,1799.12Z" style="fill:rgb(24,45,79);fill-rule:nonzero;"/>
    </g>
    <g transform="matrix(0.181913,0,0,0.181913,-36.4776,-35.4416)">
        <path d="M1350.87,1799.12L1350.43,1799.07C1345.21,1798.42 1341.5,1793.75 1342.17,1788.64L1433.1,1173.08L1466.4,1174.03L1359.4,1792.93C1358.71,1796.89 1354.95,1799.62 1350.87,1799.12Z" style="fill:rgb(24,45,79);fill-rule:nonzero;"/>
    </g>
    <g transform="matrix(0.181913,0,0,0.181913,-36.4776,-35.4416)">
        <path d="M1887.37,1798.62L2067.83,1798.62C2076.51,1788.03 2073.31,1748.95 2072,1736.19C2071.72,1733.62 2071.54,1732.12 2071.54,1732.12C2071.54,1732.12 2009.92,1682.83 2001.45,1720.57C2001.19,1721.75 2000.88,1722.91 2000.54,1724.05C1989.88,1759.35 1942.04,1775.4 1914.42,1779.86C1896.46,1782.78 1889.83,1792.11 1887.37,1798.62Z" style="fill:rgb(35,56,98);fill-rule:nonzero;"/>
    </g>
    <g transform="matrix(0.181913,0,0,0.181913,-36.4776,-35.4416)">
        <path d="M2379.77,1212.26C2373.25,1212.26 2070.66,1269.07 2020.61,1331.03C1995.6,1361.98 1991.88,1719.44 1991.88,1719.44C1991.88,1719.44 2022.82,1757.79 2089.63,1735.52C2089.63,1735.52 2138.61,1490.96 2135,1416.78C2133.99,1396.27 2341.74,1413.81 2379.77,1403.97C2417.79,1394.13 2510.7,1311.41 2490.22,1271.12C2469.75,1230.82 2379.77,1212.26 2379.77,1212.26Z" style="fill:rgb(35,56,98);fill-rule:nonzero;"/>
    </g>
    <g transform="matrix(0.181913,0,0,0.181913,-36.4776,-35.4416)">
        <path d="M2021.9,1124.73C2021.9,1124.73 1960.87,1125.55 1946.43,1131.74C1932,1137.92 1902.71,1152.12 1910.55,1154.3C1918.39,1156.48 1955.78,1153.41 1963.86,1154.64C1971.94,1155.88 1981.9,1154.3 1986.85,1154.3L2014.88,1154.3L2021.9,1124.73Z" style="fill:rgb(255,178,125);fill-rule:nonzero;"/>
    </g>
    <g transform="matrix(0.181913,0,0,0.181913,-36.4776,-35.4416)">
        <path d="M1950.54,978.249C1950.54,978.249 1929.73,963.378 1909.52,960.491C1898,958.844 1886.79,956.791 1880.02,954.404C1861.37,947.833 1824.06,914.288 1826.89,910.352C1835.93,897.74 1879.49,924.429 1887.09,921.563C1894.7,918.698 1872.48,902.902 1880.21,897.347C1884.24,894.445 1893.68,908.988 1901.4,910.449C1911.84,912.424 1920.01,927.168 1923.15,927.938C1929.27,929.436 1956.06,949.365 1956.06,949.365L1950.54,978.249Z" style="fill:rgb(255,178,125);fill-rule:nonzero;"/>
    </g>
    <g transform="matrix(0.181913,0,0,0.181913,-36.4776,-35.4416)">
        <path d="M2349.63,804.589C2349.63,804.589 2303.17,818.989 2257.39,945.05C2211.61,1071.11 2194.22,1077.92 2177.58,1082.87C2160.94,1087.81 2014.88,1116.89 2014.88,1116.89L2014.88,1154.3L2239.94,1154.3C2239.94,1154.3 2324.33,1074.03 2349.63,1019.99C2374.93,965.944 2349.63,804.589 2349.63,804.589Z" style="fill:rgb(237,125,43);fill-rule:nonzero;"/>
    </g>
    <g transform="matrix(0.181913,0,0,0.181913,-36.4776,-35.4416)">
        <path d="M1807.62,1798.62L1988.07,1798.62C1996.75,1788.03 1993.55,1748.95 1992.24,1736.19C1991.97,1733.62 1991.79,1732.12 1991.79,1732.12C1991.79,1732.12 1930.16,1682.83 1921.7,1720.57C1921.44,1721.75 1921.13,1722.91 1920.79,1724.05C1910.12,1759.35 1862.29,1775.4 1834.67,1779.86C1816.71,1782.78 1810.07,1792.11 1807.62,1798.62Z" style="fill:rgb(27,48,81);fill-rule:nonzero;"/>
    </g>
    <g transform="matrix(0.181913,0,0,0.181913,-36.4776,-35.4416)">
        <path d="M2290.6,1212.26C2284.08,1212.26 1981.49,1269.07 1931.44,1331.03C1906.43,1361.98 1902.71,1719.44 1902.71,1719.44C1902.71,1719.44 1933.65,1757.79 2000.46,1735.52C2000.46,1735.52 2049.44,1490.96 2045.83,1416.78C2044.82,1396.27 2252.57,1413.81 2290.6,1403.97C2328.62,1394.13 2421.53,1311.41 2401.05,1271.12C2380.58,1230.82 2290.6,1212.26 2290.6,1212.26Z" style="fill:rgb(43,71,139);fill-rule:nonzero;"/>
    </g>
    <g transform="matrix(0.181913,0,0,0.181913,-36.4776,-35.4416)">
        <path d="M2309.54,844.54C2331.3,842.742 2354.13,836.94 2373.85,830.54C2398.51,822.539 2418.39,810.845 2405.58,788.307C2393.77,767.536 2374.67,721.134 2375.96,682.695L2330.08,719.672L2298.91,744.786C2298.91,744.786 2299.04,759.592 2302.44,785.541C2303.07,790.271 2303.79,795.377 2304.65,800.834C2305.35,805.242 2303.32,809.646 2299.53,811.998C2299.29,812.144 2299.06,812.29 2298.83,812.437C2283.34,822.169 2291.3,846.045 2309.54,844.54Z" style="fill:rgb(255,178,125);fill-rule:nonzero;"/>
    </g>
    <g transform="matrix(0.181913,0,0,0.181913,-36.4776,-35.4416)">
        <path d="M2298.91,738.675C2298.91,738.675 2297.31,744.051 2300.05,763.903C2327.84,759.37 2353.82,737.207 2353.82,737.207C2339.67,733.323 2334.52,718.037 2323.99,719.462L2298.91,738.675Z" style="fill:rgb(237,151,93);fill-rule:nonzero;"/>
    </g>
    <g transform="matrix(0.181913,0,0,0.181913,-36.4776,-35.4416)">
        <path d="M2273.21,743.202C2273.21,743.202 2380.09,760.959 2390.13,694.227C2400.16,627.494 2420.71,584.843 2352.89,570.684C2285.07,556.525 2267.96,579.991 2259.19,601.45C2250.42,622.91 2245.66,736.863 2273.21,743.202Z" style="fill:rgb(255,178,125);fill-rule:nonzero;"/>
    </g>
    <g transform="matrix(0.181913,0,0,0.181913,-36.4776,-35.4416)">
        <path d="M2243.47,571.919C2238.88,587.988 2251.16,607.562 2271.78,614.005C2302.39,623.57 2295.63,661.115 2309.4,660.605C2323.17,660.095 2328.73,639.024 2341.03,655.859C2351.53,670.219 2332.3,687.243 2333.62,695.118C2335.89,708.636 2357.07,736.296 2376.15,734.909C2395.24,733.521 2430.95,642.828 2423.8,614.771C2416.66,586.713 2388.09,557.125 2361.06,553.043C2334.02,548.962 2296.47,560.637 2287.8,560.637C2279.13,560.637 2245.95,563.239 2243.47,571.919Z" style="fill:rgb(43,71,139);fill-rule:nonzero;"/>
    </g>
    <g transform="matrix(0.181913,0,0,0.181913,-36.4776,-35.4416)">
        <path d="M2491.65,897.206C2476.2,835.027 2433.5,769.782 2404.63,769.837C2355.44,769.931 2284.71,782.913 2256.16,853.353C2235.13,905.232 2207.08,1203.66 2238.78,1224.88C2311.25,1273.4 2479.24,1372.45 2509.08,1271.44C2536.43,1178.9 2518.46,1005.12 2491.65,897.206Z" style="fill:rgb(249,151,70);fill-rule:nonzero;"/>
    </g>
    <g transform="matrix(0.181913,0,0,0.181913,-36.4776,-35.4416)">
        <path d="M2372.16,835.331C2358.13,798.822 2312.86,786.202 2281.99,810.218C2265.29,823.208 2244.85,841.706 2220.15,868.006C2128.34,965.773 2109.68,965.166 2092.44,963.146C2075.19,961.128 1929.51,930.208 1929.51,930.208C1929.51,930.208 1922.05,935.71 1917.66,944.606C1911.8,956.487 1914.75,964.584 1914.75,964.584C1909.04,960.896 1966.39,1000.43 1994.94,1016.19C2032.63,1037 2089.43,1056.52 2112.06,1063.93C2118.47,1066.03 2125.38,1065.92 2131.73,1063.63C2165.31,1051.53 2278.08,1007.43 2369.87,930.898C2394.06,910.734 2385.17,869.181 2372.16,835.331Z" style="fill:rgb(249,151,70);fill-rule:nonzero;"/>
    </g>
    <g transform="matrix(0.181913,0,0,0.181913,-36.4776,-35.4416)">
        <path d="M2409.58,770.436L2398.45,745.344C2398.45,745.344 2298.75,753.474 2281.99,810.218C2281.99,810.218 2359.27,771.653 2409.58,770.436Z" style="fill:white;fill-rule:nonzero;"/>
    </g>
    <g transform="matrix(0.181913,0,0,0.181913,-36.4776,-35.4416)">
        <path d="M2651.64,1796.37L2652.33,1796.36C2657.96,1796.26 2662.3,1791.66 2661.77,1786.36L2624.22,1411.29L2591.45,1414.22L2645.37,1791.3C2645.8,1794.25 2648.49,1796.43 2651.64,1796.37Z" style="fill:rgb(140,180,244);fill-rule:nonzero;"/>
    </g>
    <g transform="matrix(0.181913,0,0,0.181913,-36.4776,-35.4416)">
        <path d="M2458.33,1796.37L2459.02,1796.36C2464.65,1796.26 2469,1791.66 2468.47,1786.36L2430.91,1411.29L2398.14,1414.22L2452.07,1791.3C2452.49,1794.25 2455.18,1796.43 2458.33,1796.37Z" style="fill:rgb(140,180,244);fill-rule:nonzero;"/>
    </g>
    <g transform="matrix(0.181913,0,0,0.181913,-36.4776,-35.4416)">
        <path d="M2095.43,1796.37L2094.74,1796.36C2089.12,1796.26 2084.77,1791.66 2085.3,1786.36L2122.85,1411.29L2155.62,1414.22L2101.7,1791.3C2101.28,1794.25 2098.58,1796.43 2095.43,1796.37Z" style="fill:rgb(115,162,229);fill-rule:nonzero;"/>
    </g>
    <g transform="matrix(0.181913,0,0,0.181913,-36.4776,-35.4416)">
        <path d="M2641.03,1358.16L2676.67,1044.9C2681.34,999.755 2666.24,955.552 2601.09,952.131L2486.49,945.15C2418.56,942.348 2387.89,998.881 2379.29,1042.4L2311.25,1386.76L2641.03,1358.16Z" style="fill:rgb(140,180,244);fill-rule:nonzero;"/>
    </g>
    <g transform="matrix(0.181913,0,0,0.181913,-36.4776,-35.4416)">
        <path d="M2621.87,1416.78L2113.22,1416.78C2103,1416.78 2094.63,1408.42 2094.63,1398.2L2094.63,1375.32C2094.63,1365.1 2103,1356.74 2113.22,1356.74L2640.45,1356.74L2640.45,1398.2C2640.45,1408.42 2632.09,1416.78 2621.87,1416.78Z" style="fill:rgb(115,162,229);fill-rule:nonzero;"/>
    </g>
    <g transform="matrix(0.181913,0,0,0.181913,-36.4776,-35.4416)">
        <path d="M2626.02,1416.78L2325.68,1416.78C2317.75,1416.78 2311.25,1410.28 2311.25,1402.35L2311.25,1371.17C2311.25,1363.23 2317.75,1356.74 2325.68,1356.74L2640.45,1356.74L2640.45,1402.35C2640.45,1410.28 2633.96,1416.78 2626.02,1416.78Z" style="fill:rgb(140,180,244);fill-rule:nonzero;"/>
    </g>
</svg>
