<?xml version="1.0" encoding="UTF-8" standalone="no"?>
<!DOCTYPE svg PUBLIC "-//W3C//DTD SVG 1.1//EN" "http://www.w3.org/Graphics/SVG/1.1/DTD/svg11.dtd">
<svg width="100%" height="100%" viewBox="0 0 500 360" version="1.1" xmlns="http://www.w3.org/2000/svg" xmlns:xlink="http://www.w3.org/1999/xlink" xml:space="preserve" xmlns:serif="http://www.serif.com/" style="fill-rule:evenodd;clip-rule:evenodd;stroke-linejoin:round;stroke-miterlimit:2;">
    <g transform="matrix(0.22018,0,0,0.22018,-80.0366,-35.6985)">
        <path d="M1157.04,557.965C1156.93,557.987 1156.94,557.983 1157.04,557.965Z" style="fill:rgb(235,243,250);fill-rule:nonzero;"/>
    </g>
    <g transform="matrix(0.22018,0,0,0.22018,-80.0366,-35.6985)">
        <path d="M826.106,1795.91C723.004,1795.91 625.702,1758.08 545.449,1686.92C376.798,1537.41 305.631,1259.43 417.608,1015.71C472.349,896.895 548.543,787.396 663.079,721.999C686.865,708.405 710.891,697.437 735.003,688.335C840.013,648.702 952.341,643.297 1038.87,615.875C1137.26,585.925 1204.72,533.455 1255.96,439.646C1541.93,-84.23 2483.01,168.454 2318.07,905.23C2282.5,1064.07 2385.91,1143.8 2483.83,1234.38C2540.35,1286.69 2595.06,1342.62 2620.12,1419.48C2628.57,1445.38 2633.64,1473.67 2634.3,1505C2636.93,1632.56 2565.71,1741.78 2466.4,1781.02C2420.3,1799.24 2389.6,1796.52 2341.18,1796.5L826.106,1795.91Z" style="fill:rgb(235,243,250);fill-rule:nonzero;"/>
    </g>
    <g transform="matrix(0.22018,0,0,0.22018,-80.0366,-35.6985)">
        <path d="M2191.66,1138.33L2191.66,1796.44L2181.76,1796.44L2054.29,1796.39L2009.02,1796.37L1945.42,1796.35L1934.24,1796.35L1923.07,1796.34L1870.93,1796.32L1867.58,1796.32L1743.62,1796.27L1713.91,1796.26L1686.65,1796.25L1671.73,1796.24L1654.31,1796.24L1610.14,1796.22L1597.14,1796.21L1566.5,1796.2L1473.85,1796.17L1407.76,1796.14L1173.25,1796.05L1141.17,1796.04L1104.74,1796.02L1100.8,1796.02L973.686,1795.98L969.253,1795.98L885.179,1795.94L861.137,1795.94L852.227,1795.93L852.227,1138.33L2191.66,1138.33Z" style="fill:rgb(7,30,66);fill-rule:nonzero;"/>
    </g>
    <g transform="matrix(0.22018,0,0,0.22018,-80.0366,-35.6985)">
        <path d="M1407.76,1796.14L1104.74,1796.02L1100.8,1796.02L973.686,1795.98C970.082,1750.08 966.416,1703.82 962.908,1659.75C953.293,1538.93 944.833,1434.49 941.925,1398.67C941.229,1390.09 940.85,1385.45 940.85,1385.45L1067.96,1377.7L1278.84,1318.89C1278.84,1318.89 1280.52,1333.14 1282.8,1354.21C1287.07,1393.53 1293.48,1456.62 1295.11,1495.15C1297.61,1554.31 1351.04,1723.51 1396.51,1779.89C1400.33,1784.63 1404.08,1790.08 1407.76,1796.14Z" style="fill:rgb(28,70,138);fill-rule:nonzero;"/>
    </g>
    <g transform="matrix(0.22018,0,0,0.22018,-80.0366,-35.6985)">
        <path d="M1227.63,704.997C1227.63,704.997 1103.97,764.664 1032.67,742.526C1032.67,742.526 1050.22,720.388 1080.93,703.916C1078.47,689.605 1076.55,677.187 1075.45,666.657C1072.43,642.357 1072.43,628.587 1072.43,628.587L1120.14,591.062L1165.39,555.151C1161.82,656.127 1227.63,704.997 1227.63,704.997Z" style="fill:rgb(255,178,125);fill-rule:nonzero;"/>
    </g>
    <g transform="matrix(0.22018,0,0,0.22018,-80.0366,-35.6985)">
        <path d="M1166.21,593.761C1166.21,593.761 1134.95,650.729 1075.45,666.657C1072.43,642.357 1072.43,628.587 1072.43,628.587L1120.14,591.062L1166.21,593.761Z" style="fill:rgb(237,152,95);fill-rule:nonzero;"/>
    </g>
    <g transform="matrix(0.22018,0,0,0.22018,-80.0366,-35.6985)">
        <path d="M1050.68,626.943C1050.68,626.943 1168.65,646.241 1179.72,573.717C1190.8,501.193 1213.48,454.841 1138.63,439.453C1063.78,424.066 1044.88,449.568 1035.21,472.89C1025.53,496.211 1020.28,620.054 1050.68,626.943Z" style="fill:rgb(255,178,125);fill-rule:nonzero;"/>
    </g>
    <g transform="matrix(0.22018,0,0,0.22018,-80.0366,-35.6985)">
        <path d="M1222.6,430.77C1223.67,429.542 1226.14,428.552 1231.64,428.252C1231.64,428.252 1227.25,425.505 1221.37,425.359C1220.22,417.715 1216.15,404.186 1203,400.897C1203,400.897 1210.07,404.666 1210.99,412.793C1195.75,397.144 1163.1,385.753 1072.69,392.889C953.541,402.294 992.809,478.583 1008.24,487.677C1023.66,496.771 1062.49,471.839 1091.23,474.12C1119.97,476.401 1124.49,520.019 1135.19,523.629C1141.24,525.673 1145.89,521.934 1159.08,515.971C1172.27,510.008 1168.74,529.185 1164.93,543.398C1161.12,557.61 1179.25,576.357 1179.25,576.357L1197.56,556.631C1215.88,536.904 1233.14,453.35 1224.81,435.539C1224.08,433.965 1223.35,432.372 1222.6,430.77Z" style="fill:rgb(169,69,61);fill-rule:nonzero;"/>
    </g>
    <g transform="matrix(0.22018,0,0,0.22018,-80.0366,-35.6985)">
        <path d="M1432.64,1186.54C1431.45,1158.1 1367.1,850.916 1311.59,766.63C1275.8,712.293 1201.5,675.154 1201.5,675.154C1196.57,671.376 1165.57,688.628 1137.05,702.387C1111,715.07 1095.31,714.787 1070.63,709.933C1070.63,709.933 1043.89,726.692 1035.61,733.156C1003.71,758.055 972.799,797.961 958.276,854.664C946.219,902.715 939.075,989.658 935.239,1079.83C933.321,1120.87 931.951,1161.92 931.403,1201.06L931.403,1202.41C931.128,1206.47 931.128,1210.52 931.128,1214.55C929.759,1314.72 931.128,1394.37 933.047,1395.72C935.239,1397.61 937.705,1398.69 940.445,1398.69C967.319,1398.14 1045.47,1413 1111.55,1406.25C1167.49,1400.84 1216.85,1384.66 1269.76,1361.42C1276.9,1358.19 1293.07,1349.56 1292.8,1341.99C1292.52,1333.36 1291.7,1321.2 1290.6,1305.54C1289.98,1296.68 1289.25,1286.75 1288.55,1275.87C1285.68,1232.01 1282.77,1172.66 1284.48,1105.21C1308.28,1139.79 1326.03,1164.51 1327.81,1168.34C1334,1181.6 1324.24,1387.94 1324.24,1387.94C1336.83,1412.59 1385.67,1415.81 1385.67,1415.81C1385.67,1415.81 1433.83,1214.99 1432.64,1186.54Z" style="fill:rgb(28,70,138);fill-rule:nonzero;"/>
    </g>
    <g transform="matrix(0.22018,0,0,0.22018,-80.0366,-35.6985)">
        <path d="M1027.66,541.123C1027.66,541.123 1074.53,548.854 1128.98,529.12L1134.27,589.156C1134.27,589.156 1121.35,609.877 1097.93,620.61C1071.62,632.67 1041.15,638.076 1031.3,608.065C1026.14,592.308 1027.66,541.123 1027.66,541.123Z" style="fill:rgb(210,228,255);fill-rule:nonzero;"/>
    </g>
    <g transform="matrix(0.22018,0,0,0.22018,-80.0366,-35.6985)">
        <path d="M1128.31,593.383L1127.59,591.152C1128.14,590.973 1156.32,568.306 1167.81,540.707C1170.9,533.268 1174.06,521.444 1170.24,520.243C1151.81,514.452 1123.07,537.434 1126.3,533.793L1126.79,530.378C1128.34,529.547 1153.11,512.974 1172.49,519.064C1176.93,520.462 1173.26,534.593 1169.89,542.695C1164.87,554.743 1163.08,558.111 1154.76,569.206C1144.38,583.039 1128.45,593.338 1128.31,593.383Z" style="fill:rgb(210,228,255);fill-rule:nonzero;"/>
    </g>
    <g transform="matrix(0.22018,0,0,0.22018,-80.0366,-35.6985)">
        <path d="M1142.15,537.257C1144.15,516.144 1164.74,509.113 1171.49,515.661C1175.13,519.189 1175.88,528.463 1176.02,532.233C1176.94,558.625 1152.32,558.525 1152.32,558.525C1152.32,558.525 1141.46,544.535 1142.15,537.257Z" style="fill:rgb(255,178,125);fill-rule:nonzero;"/>
    </g>
    <g transform="matrix(0.22018,0,0,0.22018,-80.0366,-35.6985)">
        <path d="M1919.66,304.5C1926.76,305.005 1933.9,304.274 1940.7,302.159C1959.18,296.412 1993.33,281.064 2046.35,310.92C2095.29,338.485 2147.45,507.308 2168.78,523.738C2190.1,540.168 2218.89,547.583 2215.69,581.195C2212.49,614.807 2174.11,637.199 2199.7,658.524C2225.29,679.85 2192.38,757.606 2119.8,756.047C2047.22,754.488 1863.92,672.983 1865.47,633.232C1867.02,593.481 1877.71,590.974 1898.49,559.707C1919.27,528.439 1839.78,481.488 1844.34,418.063C1848.46,360.637 1891.13,302.467 1919.66,304.5Z" style="fill:rgb(169,69,61);fill-rule:nonzero;"/>
    </g>
    <g transform="matrix(0.22018,0,0,0.22018,-80.0366,-35.6985)">
        <path d="M2127.05,1124.04C2089.73,1040.35 2071.87,1016.68 2071.25,990.345C2070.75,969.521 2081.02,947.051 2100.97,891.956C2105.66,878.973 2108.91,865.622 2110.9,852.128C2126.68,745.913 2065.26,631.092 2027.08,623.27C2016.46,620.462 1998.45,582.098 1998.68,520.282L1993.9,521.224L1913.51,537.141C1913.51,537.141 1915.34,562.438 1915.39,586.269C1915.45,606.13 1914.25,624.953 1909.75,627.323C1903.96,627.846 1900.55,628.191 1900.55,628.191C1900.55,628.191 1833.53,721.273 1827.89,807.844C1822.25,894.416 1881.56,932.024 1827.44,1105.02C1772.19,1281.71 2147.67,1170.29 2127.05,1124.04Z" style="fill:rgb(255,178,125);fill-rule:nonzero;"/>
    </g>
    <g transform="matrix(0.22018,0,0,0.22018,-80.0366,-35.6985)">
        <path d="M1913.51,537.141C1913.51,537.141 1915.34,562.438 1915.39,586.269C1960.38,585.001 1984.15,543.968 1993.9,521.224L1913.51,537.141Z" style="fill:rgb(232,148,91);fill-rule:nonzero;"/>
    </g>
    <g transform="matrix(0.22018,0,0,0.22018,-80.0366,-35.6985)">
        <path d="M1898.49,559.707C1898.49,559.707 2004.92,561.462 2004.99,495.169C2005.06,428.876 2018.85,384.455 1950.9,380.531C1882.95,376.607 1869.72,401.89 1864.32,424.011C1858.91,446.132 1870.81,557.542 1898.49,559.707Z" style="fill:rgb(255,178,125);fill-rule:nonzero;"/>
    </g>
    <g transform="matrix(0.22018,0,0,0.22018,-80.0366,-35.6985)">
        <path d="M1998.98,392.884C1998.98,392.884 1934.61,339.996 1899.66,374.969C1892.37,370.812 1881.35,370.336 1867.48,387.151C1842.81,417.055 1864.76,469.918 1864.76,469.918C1855.77,425.145 1867.29,413.842 1876.69,403.083C1881.83,397.198 1892,392.164 1899.69,388.954C1908.9,412.113 1937.22,474.313 1982.79,495.377C1982.79,495.377 1962.54,476.43 1945.83,449.331C1954.86,458.263 1965.09,465.301 1976.29,468.182C2021.01,479.681 2032.12,447.936 2032.12,447.936C2032.12,447.936 2006.1,440.451 1998.98,392.884Z" style="fill:rgb(169,69,61);fill-rule:nonzero;"/>
    </g>
    <g transform="matrix(0.22018,0,0,0.22018,-80.0366,-35.6985)">
        <path d="M2150.9,1200.47C2146.64,1213.87 2132.01,1219.98 2096.64,1216.32C2075.03,1214.07 2065.39,1177.85 2061.09,1146.94C2048.1,1191.16 2029.92,1215.98 2006.42,1221.18C1972.13,1228.82 1799.16,1249.85 1787.84,1167.63C1775.38,1077.18 1779.12,771.722 1779.66,748.893C1781.11,687.391 1793.69,648.782 1865.47,633.232C1873.47,631.499 1884.71,630.279 1900.55,628.189C1900.55,628.189 1909.9,627.088 1909.75,627.323C1906.83,632.558 1864.76,692.25 1867.82,707.509C1871.02,723.471 2009.95,709.098 2019.54,700.322C2029.11,691.536 2026.09,622.915 2026.09,622.915C2026.09,622.915 2148.6,627.491 2161.82,654.153C2220.74,772.944 2151.12,1163.94 2152.14,1184.46C2152.49,1191.21 2152.13,1196.61 2150.9,1200.47Z" style="fill:rgb(7,30,66);fill-rule:nonzero;"/>
    </g>
    <g transform="matrix(0.22018,0,0,0.22018,-80.0366,-35.6985)">
        <path d="M1866.1,483.3C1866.1,483.3 1922.45,492.651 1973.09,478.257L1974.04,533.044C1974.04,533.044 1886.08,588.14 1873.73,543.124C1869.74,528.584 1866.1,483.3 1866.1,483.3Z" style="fill:rgb(210,228,255);fill-rule:nonzero;"/>
    </g>
    <g transform="matrix(0.22018,0,0,0.22018,-80.0366,-35.6985)">
        <path d="M1968.36,536.494L1967.85,534.424C1968.36,534.297 1995.37,515.554 2007.56,491.263C2010.85,484.715 2014.47,474.196 2011.09,472.861C1994.75,466.424 1967.21,485.417 1970.37,482.323L1971.04,479.258C1972.49,478.603 1996.02,465.167 2013.2,471.937C2017.14,473.49 2012.9,486.069 2009.32,493.2C2004,503.803 2002.16,506.742 1993.9,516.269C1983.6,528.146 1968.49,536.462 1968.36,536.494Z" style="fill:rgb(210,228,255);fill-rule:nonzero;"/>
    </g>
    <g transform="matrix(0.22018,0,0,0.22018,-80.0366,-35.6985)">
        <path d="M1989.77,478.428C1992.94,459.41 2012.07,454.359 2017.77,460.73C2020.84,464.165 2020.93,472.623 2020.81,476.051C2019.95,500.044 1997.63,498.371 1997.63,498.371C1997.63,498.371 1988.68,484.984 1989.77,478.428Z" style="fill:rgb(255,178,125);fill-rule:nonzero;"/>
    </g>
    <g transform="matrix(0.22018,0,0,0.22018,-80.0366,-35.6985)">
        <path d="M1635.49,306.483C1629.26,294.257 1582.65,210.497 1494.17,253.299C1369.33,313.696 1359.58,473.511 1316.6,499.93C1240.08,546.952 1320.21,683.593 1395.62,686.808C1471.02,690.023 1549.05,573.877 1549.05,573.877L1595.7,431.549L1632.28,428.978L1639.61,405.343C1662.48,348.668 1650.25,321.167 1635.49,306.483Z" style="fill:rgb(7,30,66);fill-rule:nonzero;"/>
    </g>
    <g transform="matrix(0.22018,0,0,0.22018,-80.0366,-35.6985)">
        <path d="M1687.53,1052.75C1639.64,1052.2 1509.33,1049.71 1478.01,1039.27C1439.43,1026.4 1430.58,988.635 1430.58,984.608C1430.58,983.74 1433.74,966.017 1438.76,938.576C1448.76,917.549 1453.75,904.89 1454.07,891.507C1454.24,884.972 1453.27,878.268 1451.25,870.359C1447.1,854.228 1438.51,833.032 1425.81,797.899C1421.32,785.553 1418.26,772.845 1416.35,760.017C1401.33,658.957 1459.78,549.724 1496.1,542.297C1506.2,539.62 1523.32,503.113 1523.1,444.324L1527.66,445.216L1604.13,460.359C1604.13,460.359 1602.39,484.425 1602.34,507.091C1602.29,525.972 1603.42,543.888 1607.72,546.155C1613.21,546.637 1616.47,546.975 1616.47,546.975C1616.47,546.975 1616.54,547.071 1616.69,547.264C1631.25,548.205 1669.91,551.653 1675.02,562.094L1660.89,605.016L1656.79,617.506C1667.62,640.751 1677.69,667.662 1682.69,694.838C1684.08,702.53 1685.07,710.222 1685.58,717.891C1686.01,724.425 1686.04,730.646 1685.75,736.675C1682.69,806.724 1638.61,849.067 1686.01,1000.6C1692.81,1022.32 1692.77,1039.47 1687.53,1052.75Z" style="fill:rgb(255,178,125);fill-rule:nonzero;"/>
    </g>
    <g transform="matrix(0.22018,0,0,0.22018,-80.0366,-35.6985)">
        <path d="M1604.13,460.353C1604.13,460.353 1602.39,484.419 1602.34,507.09C1559.55,505.884 1532.65,478.444 1523.38,456.807L1604.13,460.353Z" style="fill:rgb(232,148,91);fill-rule:nonzero;"/>
    </g>
    <g transform="matrix(0.22018,0,0,0.22018,-80.0366,-35.6985)">
        <path d="M1614.05,487.497C1614.05,487.497 1512.81,489.167 1512.74,426.101C1512.67,363.035 1499.55,320.776 1564.19,317.043C1628.83,313.31 1641.42,337.361 1646.56,358.406C1651.7,379.451 1640.39,485.437 1614.05,487.497Z" style="fill:rgb(255,178,125);fill-rule:nonzero;"/>
    </g>
    <g transform="matrix(0.22018,0,0,0.22018,-80.0366,-35.6985)">
        <path d="M1694.44,1341.72C1694.44,1341.72 1785.98,1120.37 1781.16,959.609C1780.62,941.479 1781.54,893.507 1779.2,873.792C1779.38,762.378 1704.27,573.48 1673.1,556.4C1656.89,547.52 1607.43,545.925 1607.72,546.155C1607.72,546.155 1619.82,568.713 1631.15,595.16C1639.62,614.924 1628.71,637.623 1608.02,643.465C1607.6,643.583 1607.18,643.699 1606.75,643.814C1596.31,646.632 1584.59,645.408 1572.85,641.965C1544.18,633.557 1521.7,611.188 1512.35,582.807C1502.48,552.827 1499.45,540.372 1499.45,540.372L1446.81,549.94L1446.81,549.949C1446.81,549.943 1446.81,549.936 1446.8,549.93C1446.8,549.93 1409.6,557.832 1392,584.327C1368.66,619.463 1299.91,799.604 1272.22,975.192C1264.58,1023.69 1694.44,1341.72 1694.44,1341.72Z" style="fill:rgb(169,69,61);fill-rule:nonzero;"/>
    </g>
    <g transform="matrix(0.22018,0,0,0.22018,-80.0366,-35.6985)">
        <path d="M1644.83,413.725C1644.83,413.725 1591.2,422.625 1542.99,408.925L1542.09,461.07C1542.09,461.07 1625.8,513.508 1637.56,470.663C1641.36,456.825 1644.83,413.725 1644.83,413.725Z" style="fill:rgb(182,215,255);fill-rule:nonzero;"/>
    </g>
    <g transform="matrix(0.22018,0,0,0.22018,-80.0366,-35.6985)">
        <path d="M1547.5,464.354L1547.98,462.383C1547.5,462.262 1521.79,444.423 1510.18,421.304C1507.05,415.072 1502.21,396.211 1505.44,394.941C1520.99,388.814 1548.59,415.739 1545.58,412.795L1544.95,409.877C1543.57,409.254 1521.79,388.498 1505.44,394.941C1501.68,396.42 1505.1,416.36 1508.51,423.147C1513.58,433.239 1515.33,436.036 1523.19,445.104C1533,456.409 1547.37,464.323 1547.5,464.354Z" style="fill:rgb(182,215,255);fill-rule:nonzero;"/>
    </g>
    <g transform="matrix(0.22018,0,0,0.22018,-80.0366,-35.6985)">
        <path d="M1527.12,409.088C1524.1,390.987 1505.89,386.179 1500.47,392.244C1497.54,395.512 1497.46,403.563 1497.58,406.825C1498.4,429.662 1519.64,428.069 1519.64,428.069C1519.64,428.069 1528.16,415.328 1527.12,409.088Z" style="fill:rgb(255,178,125);fill-rule:nonzero;"/>
    </g>
    <g transform="matrix(0.22018,0,0,0.22018,-80.0366,-35.6985)">
        <path d="M1647.92,317.664C1631.11,297.291 1618.71,303.599 1612.43,309.842C1614.23,305.652 1615.18,303.135 1615.18,303.135C1592.83,265.498 1517,317.346 1517,317.346C1509.77,365.709 1474.89,393.415 1474.89,393.415C1474.89,393.415 1494.61,405.598 1540.08,393.906C1558.57,389.15 1574.45,373.248 1586.77,356.052C1570.05,392.391 1538.22,420.623 1538.22,420.623C1589.04,397.132 1609.44,326.456 1611.48,318.982C1617.66,324.532 1629.84,336.589 1633.55,348.407C1638.6,364.466 1640.87,397.527 1650.51,396.402C1650.51,396.402 1671.39,346.112 1647.92,317.664Z" style="fill:rgb(7,30,66);fill-rule:nonzero;"/>
    </g>
    <g transform="matrix(0.22018,0,0,0.22018,-80.0366,-35.6985)">
        <path d="M1781.16,1050.66C1781.16,1050.66 1725.04,1117.23 1653.58,1089.38C1653.58,1089.38 1638.2,1052.2 1637.99,1024.79C1637.96,1021.42 1637.92,1018.15 1637.87,1015.04C1637.49,984.177 1636.45,966.859 1636.45,966.859C1636.45,966.859 1636.47,966.852 1636.52,966.844C1639.77,965.488 1745.76,921.971 1745.67,925.585C1743.86,1009.06 1781.16,1050.66 1781.16,1050.66Z" style="fill:rgb(255,178,125);fill-rule:nonzero;"/>
    </g>
    <g transform="matrix(0.22018,0,0,0.22018,-80.0366,-35.6985)">
        <path d="M1735.03,945.491C1724.81,964.437 1689.74,1001.5 1637.87,1015.04C1637.49,984.177 1636.45,966.859 1636.45,966.859C1636.45,966.859 1636.47,966.852 1636.52,966.844C1639.45,966.057 1738.07,939.907 1735.03,945.491Z" style="fill:rgb(237,151,93);fill-rule:nonzero;"/>
    </g>
    <g transform="matrix(0.22018,0,0,0.22018,-80.0366,-35.6985)">
        <path d="M1614.25,963.651C1614.25,963.651 1733.45,991.675 1749.76,917.175C1766.07,842.675 1792.44,796.117 1717.02,775.074C1641.6,754.032 1620.54,779.212 1609.05,802.755C1597.56,826.297 1583.66,954.441 1614.25,963.651Z" style="fill:rgb(255,178,125);fill-rule:nonzero;"/>
    </g>
    <g transform="matrix(0.22018,0,0,0.22018,-80.0366,-35.6985)">
        <path d="M1745.68,937.473C1747.31,938.516 1772.96,946.395 1821.53,849.631C1829.15,834.441 1834.35,801.58 1816.57,772.545C1798.8,743.511 1735.78,720.682 1683.42,710.747C1631.05,700.813 1618.48,730.276 1606.15,759.887C1593.21,790.972 1555.82,816.563 1555.82,816.563C1600.98,841.787 1655.36,805.711 1674.2,811.643C1693.04,817.576 1699.7,847.269 1701.11,856.788C1702.53,866.306 1706.92,877.74 1735.1,864.029C1757.74,853.02 1739.1,899.288 1735.31,907.335C1735.31,907.335 1732.09,928.767 1745.68,937.473Z" style="fill:rgb(42,78,150);fill-rule:nonzero;"/>
    </g>
    <g transform="matrix(0.22018,0,0,0.22018,-80.0366,-35.6985)">
        <path d="M1549.96,1325.74C1550.67,1365.22 1552.97,1409.6 1556.06,1454.68C1556.25,1457.35 1556.44,1460.02 1556.63,1462.69C1558.61,1490.62 1560.75,1518.61 1563.22,1545.9C1564.21,1556.84 1565.26,1567.66 1566.35,1578.28L1566.52,1579.71C1566.6,1583.69 1567.09,1588.01 1567.53,1591.94C1577.59,1694.17 1588.13,1774.93 1590.09,1776.17C1592.42,1777.73 1595.05,1778.51 1597.94,1778.17C1624.75,1774.81 1704.73,1780.89 1770.22,1766.64C1825.48,1754.98 1873.06,1732.89 1923.48,1703.09C1930.17,1699.13 1945.42,1688.66 1944.18,1680.83C1942.96,1672.22 1913.21,1234.84 1901.14,1191.32C1878.68,1110.47 1817.82,1039.6 1776.43,1015.38C1771.02,1012.35 1741.92,1030.87 1715.19,1048.02C1690.51,1063.84 1664.52,1068.22 1639.25,1066.01L1617,1090.61C1590.07,1121.92 1561.39,1163.61 1553.56,1222.86C1552.97,1227.24 1552.46,1231.89 1552.04,1236.84C1549.88,1260.97 1549.35,1291.53 1549.96,1325.74Z" style="fill:rgb(42,78,150);fill-rule:nonzero;"/>
    </g>
    <g transform="matrix(0.22018,0,0,0.22018,-80.0366,-35.6985)">
        <path d="M1595.71,880.504C1595.71,880.504 1649.68,890.299 1705.12,873.563L1707.14,933.799C1707.14,933.799 1693.11,953.785 1669.14,963.225C1642.21,973.832 1604.62,972.753 1597,946.676C1592.36,930.758 1595.71,880.504 1595.71,880.504Z" style="fill:rgb(210,228,255);fill-rule:nonzero;"/>
    </g>
    <g transform="matrix(0.22018,0,0,0.22018,-80.0366,-35.6985)">
        <path d="M1700.96,937.695L1700.35,935.427C1700.92,935.278 1730.29,914.183 1743.26,887.251C1746.76,879.992 1750.56,868.358 1746.81,866.95C1728.72,860.163 1698.77,881.542 1702.2,878.084L1702.88,874.701C1704.46,873.955 1730.1,858.757 1749.12,865.896C1753.48,867.534 1749.04,881.444 1745.23,889.35C1739.57,901.106 1737.59,904.371 1728.68,914.996C1717.56,928.243 1701.1,937.657 1700.96,937.695Z" style="fill:rgb(210,228,255);fill-rule:nonzero;"/>
    </g>
    <g transform="matrix(0.22018,0,0,0.22018,-80.0366,-35.6985)">
        <path d="M1717.83,882.406C1720.98,861.434 1741.92,855.538 1748.31,862.443C1751.75,866.165 1752,875.466 1751.92,879.237C1751.4,905.64 1726.83,904.199 1726.83,904.199C1726.83,904.199 1716.75,889.636 1717.83,882.406Z" style="fill:rgb(255,178,125);fill-rule:nonzero;"/>
    </g>
    <g transform="matrix(0.22018,0,0,0.22018,-80.0366,-35.6985)">
        <path d="M709.575,943.85C709.575,943.85 765.691,1010.43 837.156,982.575C837.156,982.575 852.53,945.392 852.746,917.984C852.771,914.61 852.813,911.342 852.865,908.232C853.248,877.368 854.288,860.049 854.288,860.049C854.288,860.049 854.268,860.042 854.216,860.034C850.965,858.678 744.971,815.162 745.059,818.776C746.877,902.253 709.575,943.85 709.575,943.85Z" style="fill:rgb(255,178,125);fill-rule:nonzero;"/>
    </g>
    <g transform="matrix(0.22018,0,0,0.22018,-80.0366,-35.6985)">
        <path d="M755.701,838.682C765.923,857.627 800.993,894.692 852.865,908.232C853.248,877.368 854.288,860.049 854.288,860.049C854.288,860.049 854.268,860.042 854.216,860.034C851.282,859.247 752.66,833.097 755.701,838.682Z" style="fill:rgb(237,151,93);fill-rule:nonzero;"/>
    </g>
    <g transform="matrix(0.22018,0,0,0.22018,-80.0366,-35.6985)">
        <path d="M876.486,856.842C876.486,856.842 757.286,884.866 740.977,810.365C724.667,735.865 698.299,689.307 773.715,668.265C849.132,647.223 870.192,672.402 881.684,695.945C893.176,719.488 907.073,847.632 876.486,856.842Z" style="fill:rgb(255,178,125);fill-rule:nonzero;"/>
    </g>
    <g transform="matrix(0.22018,0,0,0.22018,-80.0366,-35.6985)">
        <path d="M745.055,830.664C743.428,831.706 717.778,839.585 669.205,742.821C661.58,727.631 656.385,694.771 674.159,665.736C691.933,636.702 760.104,579.215 807.318,603.938C852.23,627.454 888.832,630.458 888.832,630.458C910.568,697.957 835.372,698.901 816.531,704.834C797.689,710.767 791.035,740.459 789.622,749.978C788.208,759.497 786.036,767.406 762.343,758.905C738.651,750.404 751.63,792.479 755.424,800.525C755.424,800.525 758.644,821.957 745.055,830.664Z" style="fill:rgb(7,30,66);fill-rule:nonzero;"/>
    </g>
    <g transform="matrix(0.22018,0,0,0.22018,-80.0366,-35.6985)">
        <path d="M901.896,1585.25C901.896,1585.25 899.235,1618.48 895.022,1671.41C892.291,1705.82 888.906,1748.58 885.179,1795.94C821.665,1795.92 806.417,1796.6 775.881,1792.88C737.581,1788.22 701.069,1778.3 666.743,1763.87C652.88,1758.04 639.37,1751.47 626.238,1744.21C623.551,1696.83 621.242,1655.4 619.541,1624.58C617.575,1588.99 616.421,1567.58 616.421,1567.58L773.819,1577.32L901.896,1585.25Z" style="fill:rgb(43,71,139);fill-rule:nonzero;"/>
    </g>
    <g transform="matrix(0.22018,0,0,0.22018,-80.0366,-35.6985)">
        <path d="M855.241,1600.39C855.241,1600.39 844.736,1626.73 827.084,1669.8C813.653,1702.55 796.089,1745 775.881,1792.88C695.118,1783.07 615.235,1748.78 545.451,1686.93C547.063,1657.9 550.58,1619.51 553.885,1586.56C557.745,1548.13 561.332,1517.13 561.332,1517.13L773.819,1577.32L855.241,1600.39Z" style="fill:rgb(43,71,139);fill-rule:nonzero;"/>
    </g>
    <g transform="matrix(0.22018,0,0,0.22018,-80.0366,-35.6985)">
        <path d="M940.774,1218.94C940.059,1258.41 937.766,1302.79 934.672,1347.87C934.482,1350.54 934.293,1353.21 934.104,1355.88C932.126,1383.81 929.979,1411.8 927.517,1439.09C926.528,1450.03 925.476,1460.85 924.382,1471.47L924.213,1472.91C924.129,1476.88 923.646,1481.2 923.203,1485.13C913.145,1587.36 902.602,1668.12 900.645,1669.37C898.31,1670.92 895.679,1671.7 892.796,1671.36C865.987,1668 786.001,1674.08 720.515,1659.83C665.256,1648.17 617.677,1626.08 567.257,1596.28C560.566,1592.33 545.31,1581.85 546.551,1574.02C547.771,1565.41 573.726,1142.02 585.299,1098.37C616.418,980.99 690.117,928.194 731.509,903.974C731.509,903.974 748.818,924.057 775.543,941.207C800.227,957.031 822.652,951.864 847.925,949.654L873.731,983.798C900.666,1015.11 929.348,1056.8 937.176,1116.05C937.766,1120.43 938.271,1125.08 938.691,1130.03C940.859,1154.16 941.385,1184.72 940.774,1218.94Z" style="fill:rgb(169,69,61);fill-rule:nonzero;"/>
    </g>
    <g transform="matrix(0.22018,0,0,0.22018,-80.0366,-35.6985)">
        <path d="M894.509,773.146C894.509,773.146 839.887,782.781 784.444,766.045L782.428,826.281C782.428,826.281 796.46,846.266 820.429,855.707C847.36,866.313 884.947,865.235 892.562,839.158C897.209,823.24 894.509,773.146 894.509,773.146Z" style="fill:rgb(210,228,255);fill-rule:nonzero;"/>
    </g>
    <g transform="matrix(0.22018,0,0,0.22018,-80.0366,-35.6985)">
        <path d="M788.611,830.177L789.211,827.909C788.65,827.76 759.28,806.665 746.303,779.733C742.805,772.474 739.009,760.84 742.758,759.432C760.841,752.645 790.791,774.024 787.369,770.565L786.69,767.183C785.103,766.437 759.463,751.239 740.451,758.378C736.086,760.016 740.522,773.926 744.332,781.832C749.999,793.588 751.974,796.853 760.888,807.478C772.003,820.725 788.468,830.139 788.611,830.177Z" style="fill:rgb(210,228,255);fill-rule:nonzero;"/>
    </g>
    <g transform="matrix(0.22018,0,0,0.22018,-80.0366,-35.6985)">
        <path d="M771.735,774.888C768.589,753.916 747.641,748.02 741.259,754.925C737.82,758.646 737.57,767.948 737.645,771.719C738.164,798.122 762.737,796.681 762.737,796.681C762.737,796.681 772.82,782.118 771.735,774.888Z" style="fill:rgb(255,178,125);fill-rule:nonzero;"/>
    </g>
    <g transform="matrix(0.22018,0,0,0.22018,-80.0366,-35.6985)">
        <path d="M1028.77,956.474C1031.3,951.577 1060.47,899.705 1143.57,935.457C1143.57,935.457 1101.1,921.292 1085.81,935.694C1085.81,935.694 1123.5,926.76 1142.48,944.3C1161.47,961.839 1156.15,1007.08 1150.22,1020C1144.29,1032.91 1112.37,1068.49 1096.56,1065.34C1090.57,1064.15 1084.56,1060.88 1079.41,1057.28C1080.4,1064.93 1081.03,1073.16 1081.15,1082.07C1082.2,1164.44 1017.68,1214.04 993.462,1193.78C977.932,1180.79 958.664,1208.66 958.664,1208.66L852.23,988.146C852.23,988.146 977.137,887.128 1028.77,956.474Z" style="fill:rgb(7,30,66);fill-rule:nonzero;"/>
    </g>
    <g transform="matrix(0.22018,0,0,0.22018,-80.0366,-35.6985)">
        <path d="M826.106,1795.91C740.37,1795.91 661.231,1769.78 593.903,1724.46C629.425,1617.24 719.963,1350.42 747.572,1331.4C766.616,1318.28 810.711,1313.61 849.615,1312.21C887.56,1310.83 920.562,1312.56 920.562,1312.56C920.562,1312.56 948.851,1312.61 984.986,1316.69L984.995,1316.69C985.397,1316.74 985.8,1316.78 986.202,1316.83C986.27,1316.83 986.327,1316.84 986.384,1316.85C1027.12,1321.53 1077.37,1331.31 1108.4,1351.78C1135.75,1369.82 1232.4,1735.56 1248.24,1796.08L826.106,1795.91Z" style="fill:rgb(249,151,70);fill-rule:nonzero;"/>
    </g>
    <g transform="matrix(0.22018,0,0,0.22018,-80.0366,-35.6985)">
        <path d="M986.213,1316.71C973.022,1295 963.672,1244.22 968.123,1176.43L959.712,1190.63L859.303,1204.12C859.303,1204.12 859.62,1235.49 857.867,1264.89C856.494,1287.88 853.74,1301.63 848.794,1314.41C848.427,1314.44 848.419,1314.48 848.733,1314.52C847.201,1317.12 814.642,1373.44 857.858,1383.77C975.222,1411.82 985.756,1321.27 986.195,1316.89C986.572,1316.84 986.595,1316.78 986.213,1316.71Z" style="fill:rgb(255,178,125);fill-rule:nonzero;"/>
    </g>
    <g transform="matrix(0.22018,0,0,0.22018,-80.0366,-35.6985)">
        <path d="M859.292,1204.13C859.292,1204.13 859.614,1235.48 857.858,1264.89C913.462,1266.77 945.941,1217.95 959.704,1190.63L859.292,1204.13Z" style="fill:rgb(237,151,93);fill-rule:nonzero;"/>
    </g>
    <g transform="matrix(0.22018,0,0,0.22018,-80.0366,-35.6985)">
        <path d="M830.754,1214.28C830.754,1214.28 959.376,1242.12 975.478,1161.75C991.581,1081.38 1019.03,1030.85 937.585,1009.68C856.145,988.511 833.996,1015.97 822.097,1041.49C810.197,1067 797.712,1204.97 830.754,1214.28Z" style="fill:rgb(255,178,125);fill-rule:nonzero;"/>
    </g>
    <g transform="matrix(0.22018,0,0,0.22018,-80.0366,-35.6985)">
        <path d="M810.011,1119.21C810.011,1119.21 871.425,1130.45 934.286,1111.48L936.572,1179.77C936.572,1179.77 920.662,1202.43 893.486,1213.13C862.953,1225.16 820.338,1223.94 811.704,1194.37C806.434,1176.32 810.011,1119.21 810.011,1119.21Z" style="fill:rgb(210,228,255);fill-rule:nonzero;"/>
    </g>
    <g transform="matrix(0.22018,0,0,0.22018,-80.0366,-35.6985)">
        <path d="M929.562,1184.19L928.881,1181.62C929.517,1181.45 962.816,1157.53 977.529,1127C981.496,1118.77 985.799,1105.58 981.548,1103.98C961.046,1096.29 927.09,1120.53 930.97,1116.6L931.739,1112.77C933.54,1111.92 962.608,1094.69 984.164,1102.79C989.112,1104.64 984.083,1120.41 979.764,1129.38C973.339,1142.71 971.1,1146.41 960.993,1158.45C948.392,1173.47 929.723,1184.15 929.562,1184.19Z" style="fill:rgb(210,228,255);fill-rule:nonzero;"/>
    </g>
    <g transform="matrix(0.22018,0,0,0.22018,-80.0366,-35.6985)">
        <path d="M834.838,997.557C859.602,977.353 873.619,985.662 880.617,994.613C958.877,969.888 992.905,1036.27 992.905,1036.27C990.046,1095.67 1025.06,1137 1025.06,1137C1025.06,1137 998.641,1146.84 947.195,1122.09C931.48,1114.53 919.037,1099.82 909.312,1083.04C923.928,1124.19 948.517,1156.64 948.517,1156.64C889.712,1113.8 881.648,1018.53 880.956,1008.49C871.667,1014 853.079,1026.27 845.344,1040.39C834.833,1059.58 823.544,1101.14 811.548,1097.26C811.548,1097.26 797.698,1027.86 834.838,997.557Z" style="fill:rgb(7,30,66);fill-rule:nonzero;"/>
    </g>
    <g transform="matrix(0.22018,0,0,0.22018,-80.0366,-35.6985)">
        <path d="M1276.5,1006.32C1276.5,1007.32 1279.66,1049.21 1278.66,1083.66C1278.49,1089.75 1278.19,1095.54 1277.7,1100.68L1405.65,1100.68C1400.04,1091.06 1394.41,1076.49 1390.16,1057.59C1388.12,1048.57 1386.39,1038.57 1385.14,1027.65C1383.65,1014.77 1382.81,1000.62 1382.86,985.318L1276.5,1006.32Z" style="fill:rgb(255,178,125);fill-rule:nonzero;"/>
    </g>
    <g transform="matrix(0.22018,0,0,0.22018,-80.0366,-35.6985)">
        <path d="M1353.14,772.025C1340.48,768.988 1325.73,768.262 1308.57,770.722C1308.57,770.722 1259.47,771.429 1227.63,810.223C1210.05,831.645 1238.03,986.44 1213.47,1034.51C1211.28,1038.79 1225.78,1040.58 1231.72,1040.58C1231.72,1040.58 1240.41,1037.26 1242.13,1032.46C1242.13,1032.46 1240.41,1040 1238.18,1042.4C1238.18,1042.4 1285.97,1046.93 1309.83,1028.89C1322.8,1019.08 1337,996.076 1346.17,972.624L1382.3,975.163C1382.69,990.707 1377.12,1008.49 1359.75,1027.06C1359.75,1027.06 1404.33,1031.43 1419.41,1019.09C1419.41,1019.09 1416.44,1025.1 1413.7,1027.81C1413.7,1027.81 1463.54,1029.6 1484.11,1014.06C1504.69,998.511 1491.46,743.517 1353.14,772.025Z" style="fill:rgb(7,30,66);fill-rule:nonzero;"/>
    </g>
    <g transform="matrix(0.22018,0,0,0.22018,-80.0366,-35.6985)">
        <path d="M1276.5,1006.32C1276.5,1006.32 1278.78,1037.91 1278.85,1067.68C1335.03,1066.09 1364.72,1014.85 1376.89,986.44L1276.5,1006.32Z" style="fill:rgb(237,151,93);fill-rule:nonzero;"/>
    </g>
    <g transform="matrix(0.22018,0,0,0.22018,-80.0366,-35.6985)">
        <path d="M1257.74,1034.5C1257.74,1034.5 1390.65,1036.69 1390.74,953.901C1390.83,871.107 1408.05,815.63 1323.19,810.729C1238.33,805.829 1221.81,837.403 1215.06,865.031C1208.31,892.659 1223.16,1031.8 1257.74,1034.5Z" style="fill:rgb(255,178,125);fill-rule:nonzero;"/>
    </g>
    <g transform="matrix(0.22018,0,0,0.22018,-80.0366,-35.6985)">
        <path d="M1271.68,816.587C1271.68,816.587 1244.5,838.272 1237.87,859.356C1231.25,880.439 1228.27,923.841 1215.62,922.365C1215.62,922.365 1188.2,856.344 1219.01,818.997C1251.68,779.395 1271.68,816.587 1271.68,816.587Z" style="fill:rgb(7,30,66);fill-rule:nonzero;"/>
    </g>
    <g transform="matrix(0.22018,0,0,0.22018,-80.0366,-35.6985)">
        <path d="M1566.5,1796.2L1473.85,1796.17L1407.76,1796.14L1173.25,1796.05L1141.17,1796.04C1144.22,1766.47 1148.9,1738.11 1155.95,1715.04C1177.39,1644.82 1190.16,1602.43 1195.06,1586.11C1195.71,1583.94 1196.22,1582.23 1196.6,1580.98L1196.6,1580.97C1197.11,1579.25 1197.37,1578.4 1197.37,1578.4C1197.37,1578.4 1299.15,1603.94 1407.67,1587.78C1423.19,1585.48 1438.84,1582.31 1454.35,1578.1L1454.36,1578.1C1460.77,1576.36 1467.15,1574.44 1473.48,1572.34C1473.49,1572.33 1473.49,1572.33 1473.5,1572.33C1473.5,1572.33 1473.91,1573.21 1474.69,1574.87C1484.05,1594.85 1545.84,1727.68 1563.84,1787.22C1564.7,1790.08 1565.59,1793.08 1566.5,1796.2Z" style="fill:rgb(3,21,48);fill-rule:nonzero;"/>
    </g>
    <g transform="matrix(0.22018,0,0,0.22018,-80.0366,-35.6985)">
        <path d="M1610.14,1796.22C1590.79,1775.49 1575.1,1750.84 1571.53,1739C1564.29,1714.94 1515.6,1545.5 1505.67,1498.16C1503.88,1489.56 1502.86,1484.54 1502.86,1484.54L1502.86,1484.57C1502.84,1484.59 1502.82,1484.65 1502.79,1484.73C1502.78,1484.76 1502.76,1484.79 1502.74,1484.83C1502.7,1484.95 1502.63,1485.09 1502.56,1485.27C1502.49,1485.44 1502.41,1485.63 1502.31,1485.86C1502.24,1486.03 1502.17,1486.22 1502.08,1486.42C1502.04,1486.53 1501.98,1486.65 1501.93,1486.78C1496.95,1498.67 1479.69,1540.44 1476.18,1550.99C1475,1554.37 1474.95,1554.88 1474.8,1555.88C1474.05,1561.69 1473.71,1568.3 1473.5,1572L1473.5,1572.04C1473.49,1572.23 1473.48,1572.34 1473.48,1572.34C1473.48,1572.34 1326.25,1646.65 1197.37,1578.4C1197.37,1578.4 1196.97,1575.21 1196.26,1569.39L1196.26,1569.38C1195.52,1563.21 1194.41,1554.06 1193.07,1542.61C1187.6,1495.93 1178.1,1410.94 1171.73,1332.48C1171.72,1332.47 1171.72,1332.46 1171.72,1332.44C1169.98,1311.01 1168.47,1290.06 1167.35,1270.52L1167.35,1270.51C1167.34,1270.5 1167.34,1270.49 1167.35,1270.49C1164.35,1218.68 1164.03,1176.76 1169.09,1161.73C1176.59,1139.46 1237.58,1125.48 1261.87,1120.75C1266.82,1115.47 1266.29,1105.45 1264.28,1096.25C1262.58,1088.32 1269.71,1081.36 1277.55,1083.39C1277.92,1083.49 1278.29,1083.57 1278.66,1083.66C1294.03,1087.3 1320.72,1086.43 1349.26,1077.05C1366.03,1071.51 1380.68,1064.17 1393.11,1055.63C1397.25,1052.8 1402.87,1055.41 1403.5,1060.37C1405.73,1078.43 1411.18,1111.4 1421.14,1111.4C1434.85,1111.32 1528.46,1122.81 1535.32,1134.39C1537.71,1138.42 1562.04,1193.48 1592.76,1266.42C1592.76,1266.42 1592.79,1266.48 1592.82,1266.62C1593.39,1267.97 1593.97,1269.35 1594.56,1270.73C1652.81,1408.26 1768.06,1646.58 1768.06,1690.29C1768.06,1713.24 1742.28,1762.68 1713.91,1796.26L1610.14,1796.22Z" style="fill:rgb(210,228,255);fill-rule:nonzero;"/>
    </g>
    <g transform="matrix(0.22018,0,0,0.22018,-80.0366,-35.6985)">
        <path d="M1502.87,1484.55C1502.87,1484.55 1475.73,1549.29 1474.88,1555.32C1474.5,1558.04 1474.17,1561.77 1473.92,1565.06C1460.81,1575.76 1444.95,1583.88 1428.8,1588.79C1382.9,1602.7 1362.96,1514.72 1365.7,1470.83C1368.44,1426.94 1433.35,1301.65 1454.97,1299.04C1476.56,1296.46 1502.87,1484.55 1502.87,1484.55Z" style="fill:rgb(182,219,255);fill-rule:nonzero;"/>
    </g>
    <g transform="matrix(0.22018,0,0,0.22018,-80.0366,-35.6985)">
        <path d="M1505.66,1498.15C1503.88,1489.57 1502.87,1484.55 1502.87,1484.55C1504.29,1489.18 1505.22,1493.71 1505.66,1498.15Z" style="fill:rgb(229,134,56);fill-rule:nonzero;"/>
    </g>
    <g transform="matrix(0.22018,0,0,0.22018,-80.0366,-35.6985)">
        <path d="M1316.55,1611.26C1232.77,1611.26 1199.15,1582.94 1196.6,1580.98L1191.18,1541.52C1191.98,1542.11 1304.4,1609.62 1478.37,1544.97L1474.69,1574.86C1407.78,1599.73 1360.06,1611.26 1316.55,1611.26Z" style="fill:rgb(169,69,61);fill-rule:nonzero;"/>
    </g>
    <g transform="matrix(0.22018,0,0,0.22018,-80.0366,-35.6985)">
        <path d="M1768.06,1690.29C1768.06,1713.24 1742.28,1762.68 1713.91,1796.26L1686.65,1796.25C1692.02,1650.4 1595.31,1274.83 1592.82,1266.62C1593.39,1267.97 1593.97,1269.35 1594.56,1270.73C1652.81,1408.26 1768.06,1646.58 1768.06,1690.29Z" style="fill:rgb(182,219,255);fill-rule:nonzero;"/>
    </g>
    <g transform="matrix(0.22018,0,0,0.22018,-80.0366,-35.6985)">
        <path d="M1421.14,1111.4C1421.14,1111.4 1351.05,1155.79 1298.02,1145.28C1298.02,1145.28 1285.29,1137.24 1302.85,1129.15C1319.34,1121.58 1357.69,1099.16 1349.27,1077.05C1363.83,1072.31 1378.87,1065.34 1393.1,1055.63C1397.25,1052.8 1402.87,1055.41 1403.5,1060.37C1405.72,1078.42 1411.18,1111.4 1421.14,1111.4Z" style="fill:rgb(182,219,255);fill-rule:nonzero;"/>
    </g>
    <g transform="matrix(0.22018,0,0,0.22018,-80.0366,-35.6985)">
        <path d="M1218.84,949.735C1218.84,949.735 1287.39,954.519 1346.4,931.516L1353.76,997.015C1353.76,997.015 1254.71,1073 1234.79,1020.5C1228.36,1003.55 1218.84,949.735 1218.84,949.735Z" style="fill:rgb(238,246,255);fill-rule:nonzero;"/>
    </g>
    <g transform="matrix(0.22018,0,0,0.22018,-80.0366,-35.6985)">
        <path d="M1347.35,1001.79L1346.51,999.372C1347.1,999.161 1377.32,973.642 1389.15,943.167C1392.34,934.952 1395.48,921.943 1391.28,920.73C1370.98,914.881 1340.16,940.76 1343.6,936.695L1344.04,932.949C1345.71,932 1372.36,913.231 1393.7,919.382C1398.6,920.794 1394.96,936.34 1391.48,945.286C1386.31,958.589 1384.44,962.318 1375.63,974.667C1364.65,990.062 1347.51,1001.74 1347.35,1001.79Z" style="fill:rgb(238,246,255);fill-rule:nonzero;"/>
    </g>
    <g transform="matrix(0.22018,0,0,0.22018,-80.0366,-35.6985)">
        <path d="M1366.39,929.823C1368.02,906.688 1390.35,898.462 1397.9,905.443C1401.97,909.206 1403.04,919.325 1403.28,923.443C1404.98,952.273 1378.07,952.81 1378.07,952.81C1378.07,952.81 1365.82,937.798 1366.39,929.823Z" style="fill:rgb(255,178,125);fill-rule:nonzero;"/>
    </g>
    <g transform="matrix(0.22018,0,0,0.22018,-80.0366,-35.6985)">
        <path d="M1266.63,819.869C1266.63,819.869 1292.55,921.585 1363.02,954.161C1363.02,954.161 1292.55,891.668 1286.57,824.522C1280.59,757.376 1266.63,819.869 1266.63,819.869Z" style="fill:rgb(7,30,66);fill-rule:nonzero;"/>
    </g>
    <g transform="matrix(0.22018,0,0,0.22018,-80.0366,-35.6985)">
        <path d="M1262.66,808.701C1262.66,808.701 1299.05,905.834 1354.9,920.196C1410.75,934.558 1434.97,919.594 1434.97,919.594C1434.97,919.594 1392.13,885.563 1383.24,826.157C1383.24,826.157 1290.11,762.471 1262.66,808.701Z" style="fill:rgb(7,30,66);fill-rule:nonzero;"/>
    </g>
    <g transform="matrix(0.22018,0,0,0.22018,-80.0366,-35.6985)">
        <path d="M2080.82,781.644C2080.82,781.644 1976,787.729 1973.12,904.719C1970.25,1021.71 2102.48,1305.8 2102.48,1305.8L2354.64,1277.65C2354.64,1277.65 2276.71,737.13 2080.82,781.644Z" style="fill:rgb(28,70,138);fill-rule:nonzero;"/>
    </g>
    <g transform="matrix(0.22018,0,0,0.22018,-80.0366,-35.6985)">
        <path d="M2290.79,1796.48L2054.29,1796.39L2009.02,1796.37L1944.88,1796.35C1940.1,1779.77 1940.89,1759.08 1948.87,1733.58C1963.61,1686.46 1971.52,1643.53 1974.93,1604.06C1975.38,1599.03 1975.74,1594.07 1976.03,1589.15C1984.07,1455.57 1942.04,1362.56 1947.57,1280.96C1952.37,1210.13 2018.02,1155.57 2034.4,1143.02C2036.75,1141.21 2038.08,1140.28 2038.08,1140.28C2038.08,1140.28 2044.66,1138.95 2051.89,1138.3C2056.29,1135.98 2058.07,1120 2058.6,1101.26C2058.75,1096.06 2058.81,1090.65 2058.79,1085.27C2058.76,1074.24 2058.44,1062.97 2058.03,1053.14C2058,1052.47 2057.97,1051.81 2057.94,1051.16C2057.27,1035.43 2056.44,1023.87 2056.44,1023.87L2131.65,1008.97L2140.88,1007.15C2140.89,1007.15 2140.89,1007.15 2140.89,1007.14L2147.46,1005.84L2156.89,1003.98L2162.87,1002.79L2162.87,1002.85C2162.77,1031.14 2165.73,1055.5 2170.17,1075.17C2176.7,1104.11 2186.42,1122.94 2194.36,1129.3C2195.45,1130.18 2196.51,1130.83 2197.52,1131.22C2197.81,1131.34 2198.09,1131.44 2198.37,1131.51C2229.89,1137.97 2274.1,1202.79 2294.78,1284.33C2305.4,1326.21 2309.82,1372.49 2303.13,1417.53C2300.63,1434.39 2296.58,1451.08 2290.71,1467.3C2287.93,1474.98 2285.31,1482.14 2282.83,1488.86C2282.38,1490.07 2281.94,1491.27 2281.51,1492.44C2267.24,1531.06 2258.27,1554.29 2254.98,1573.1C2254.97,1573.16 2254.96,1573.21 2254.96,1573.25C2254.36,1576.69 2253.94,1579.99 2253.74,1583.2C2253.58,1585.48 2253.52,1587.72 2253.57,1589.94L2253.57,1589.98C2253.56,1590.08 2253.57,1590.17 2253.57,1590.27C2254.35,1623.18 2276.66,1652.75 2323.31,1757.35C2328.25,1768.44 2314.98,1782.52 2290.79,1796.48Z" style="fill:rgb(255,178,125);fill-rule:nonzero;"/>
    </g>
    <g transform="matrix(0.22018,0,0,0.22018,-80.0366,-35.6985)">
        <path d="M2056.43,1023.87C2056.43,1023.87 2058.72,1055.48 2058.79,1085.26C2115,1083.68 2144.72,1032.4 2156.89,1003.97L2056.43,1023.87Z" style="fill:rgb(237,151,93);fill-rule:nonzero;"/>
    </g>
    <g transform="matrix(0.22018,0,0,0.22018,-80.0366,-35.6985)">
        <path d="M2037.66,1052.07C2037.66,1052.07 2170.67,1054.26 2170.76,971.41C2170.85,888.56 2188.08,833.044 2103.16,828.14C2018.24,823.236 2001.71,854.832 1994.95,882.479C1988.19,910.125 2003.06,1049.36 2037.66,1052.07Z" style="fill:rgb(255,178,125);fill-rule:nonzero;"/>
    </g>
    <g transform="matrix(0.22018,0,0,0.22018,-80.0366,-35.6985)">
        <path d="M2466.4,1781.02C2447.43,1788.52 2427.42,1793.45 2406.71,1795.47C2396.53,1777.58 2385.67,1758.23 2375.07,1738.79C2345.43,1684.47 2317.84,1629.62 2312.66,1605.02C2308.75,1586.51 2299.18,1549.46 2287.99,1507.95C2286.3,1501.67 2284.58,1495.29 2282.83,1488.86L2282.83,1488.85C2281.39,1483.55 2279.94,1478.21 2278.48,1472.86C2257.45,1395.83 2235.02,1316.81 2235.02,1316.81L2235.02,1316.79L2229.21,1291.65L2225.19,1274.22L2192.8,1133.92L2191.66,1129.01C2191.66,1129.01 2192.61,1129.11 2194.36,1129.3C2194.36,1129.3 2194.36,1129.31 2194.37,1129.3C2195.7,1129.46 2197.5,1129.67 2199.67,1129.95C2218.06,1132.26 2263.94,1138.95 2293.41,1151.27C2305.85,1156.46 2315.33,1162.66 2318.65,1169.93C2329.65,1194.13 2340.65,1233.06 2351.13,1278.04C2366.91,1345.78 2381.51,1427.26 2393.14,1492.89C2403.93,1553.75 2412.15,1601 2416.45,1611.01C2422.09,1624.16 2433.2,1665.26 2446.66,1712.98C2447.98,1717.71 2449.34,1722.52 2450.72,1727.36C2455.74,1745 2461.01,1763.21 2466.4,1781.02Z" style="fill:rgb(217,147,92);fill-rule:nonzero;"/>
    </g>
    <g transform="matrix(0.22018,0,0,0.22018,-80.0366,-35.6985)">
        <path d="M2341.18,1796.5C2318.5,1728.1 2253.57,1590.27 2253.57,1590.27L2253.55,1590.27C2253.55,1590.27 2253.54,1590.28 2253.5,1590.3C2247.21,1592.39 2240.85,1594.31 2234.49,1596.02L2234.46,1596.02C2218.92,1600.25 2203.23,1603.43 2187.69,1605.74C2079.1,1621.9 1977.25,1596.34 1977.25,1596.34C1977.25,1596.34 1976.49,1598.9 1974.93,1604.06C1970.04,1620.39 1957.26,1662.82 1935.8,1733.08C1930.17,1751.49 1926.06,1773.27 1923.07,1796.34L2341.18,1796.5Z" style="fill:rgb(169,69,61);fill-rule:nonzero;"/>
    </g>
    <g transform="matrix(0.22018,0,0,0.22018,-80.0366,-35.6985)">
        <path d="M2372.98,1284.34C2372.95,1284.21 2372.92,1284.15 2372.92,1284.15C2342.17,1211.16 2317.82,1156.06 2315.44,1152.02C2308.57,1140.44 2214.9,1128.94 2201.18,1129.02C2191.21,1129.02 2185.75,1096.02 2183.53,1077.96C2182.9,1072.99 2177.27,1070.38 2173.12,1073.21C2158.88,1082.93 2143.83,1089.9 2129.25,1094.65C2099.99,1104.26 2072.67,1104.94 2057.49,1100.99C2049.64,1098.96 2042.5,1105.93 2044.21,1113.86C2046.22,1123.06 2046.75,1133.08 2041.79,1138.37C2017.49,1143.1 1956.46,1157.09 1948.95,1179.39C1931.65,1230.74 1932.72,1283.09 1943.13,1328.27C1949.46,1435.76 1977.25,1596.34 1977.25,1596.34C2106.22,1664.64 2253.56,1590.27 2253.56,1590.27C2253.56,1590.27 2253.72,1586.98 2254,1583C2254.24,1579.7 2254.57,1575.97 2254.96,1573.25C2255.81,1567.21 2282.96,1502.42 2282.96,1502.42C2282.96,1502.42 2283.97,1507.45 2285.76,1516.04C2295.7,1563.42 2329.74,1719.08 2350.63,1733.08C2362.74,1741.18 2401.44,1741.31 2437.79,1731.38C2475.59,1721.06 2510.81,1699.83 2510.81,1665.3C2510.81,1621.13 2430.68,1421.28 2372.98,1284.34Z" style="fill:rgb(249,151,70);fill-rule:nonzero;"/>
    </g>
    <g transform="matrix(0.22018,0,0,0.22018,-80.0366,-35.6985)">
        <path d="M2282.96,1502.42C2282.96,1502.42 2255.81,1567.21 2254.96,1573.25C2254.57,1575.97 2254.24,1579.7 2254,1583C2240.88,1593.7 2225.01,1601.83 2208.84,1606.74C2162.91,1620.66 2142.95,1532.62 2145.7,1488.7C2148.44,1444.77 2213.4,1319.4 2235.03,1316.79C2256.63,1314.21 2282.96,1502.42 2282.96,1502.42Z" style="fill:rgb(229,128,51);fill-rule:nonzero;"/>
    </g>
    <g transform="matrix(0.22018,0,0,0.22018,-80.0366,-35.6985)">
        <path d="M2285.76,1516.04C2283.97,1507.45 2282.96,1502.42 2282.96,1502.42C2284.39,1507.06 2285.32,1511.59 2285.76,1516.04Z" style="fill:rgb(229,134,56);fill-rule:nonzero;"/>
    </g>
    <g transform="matrix(0.22018,0,0,0.22018,-80.0366,-35.6985)">
        <path d="M2510.81,1665.3C2510.81,1699.83 2475.59,1721.06 2437.79,1731.38C2489.89,1669.33 2375.89,1293.92 2372.98,1284.34C2430.68,1421.28 2510.81,1621.13 2510.81,1665.3Z" style="fill:rgb(229,128,51);fill-rule:nonzero;"/>
    </g>
    <g transform="matrix(0.22018,0,0,0.22018,-80.0366,-35.6985)">
        <path d="M2201.18,1129.02C2201.18,1129.02 2131.04,1173.44 2077.97,1162.92C2077.97,1162.92 2065.23,1154.88 2082.8,1146.78C2099.3,1139.2 2137.68,1116.77 2129.25,1094.65C2143.83,1089.9 2158.88,1082.93 2173.12,1073.21C2177.27,1070.38 2182.9,1072.99 2183.53,1077.96C2185.75,1096.02 2191.21,1129.02 2201.18,1129.02Z" style="fill:rgb(229,128,51);fill-rule:nonzero;"/>
    </g>
    <g transform="matrix(0.22018,0,0,0.22018,-80.0366,-35.6985)">
        <path d="M1993.36,870.047C1993.36,870.047 2017.93,818.105 2082.81,926.171C2091.06,939.911 2126.2,951.526 2138.65,947.341C2199.57,926.856 2182.57,1008.18 2182.57,1008.18C2182.57,1008.18 2188.45,799.317 2137.34,795.483C2086.24,791.649 1993.36,870.047 1993.36,870.047Z" style="fill:rgb(28,70,138);fill-rule:nonzero;"/>
    </g>
    <g transform="matrix(0.22018,0,0,0.22018,-80.0366,-35.6985)">
        <path d="M2056.43,829.772C2056.43,829.772 2027.92,848.206 1986.54,911.473C1986.54,911.473 1983.99,853.318 2008.27,838.62C2032.55,823.921 2056.43,829.772 2056.43,829.772Z" style="fill:rgb(28,70,138);fill-rule:nonzero;"/>
    </g>
    <g transform="matrix(0.22018,0,0,0.22018,-80.0366,-35.6985)">
        <path d="M1997.33,955.018C1997.33,955.018 2066.84,978.545 2124.83,955.018L2133,1019.63C2133,1019.63 2033.98,1086.43 2013.59,1034.83C2007,1018.17 1997.33,955.018 1997.33,955.018Z" style="fill:rgb(210,228,255);fill-rule:nonzero;"/>
    </g>
    <g transform="matrix(0.22018,0,0,0.22018,-80.0366,-35.6985)">
        <path d="M2126.73,1024.43L2125.86,1022.05C2126.45,1021.84 2155.95,996.216 2167.23,965.947C2170.27,957.788 2173.19,944.893 2169.02,943.751C2148.89,938.249 2118.79,964.235 2122.13,960.173L2122.52,956.465C2124.16,955.505 2150.23,936.6 2171.4,942.387C2176.26,943.715 2172.87,959.123 2169.56,968.009C2164.63,981.222 2162.83,984.932 2154.3,997.25C2143.66,1012.61 2126.88,1024.38 2126.73,1024.43Z" style="fill:rgb(210,228,255);fill-rule:nonzero;"/>
    </g>
    <g transform="matrix(0.22018,0,0,0.22018,-80.0366,-35.6985)">
        <path d="M2138.66,957.141C2139.96,934.263 2161.91,925.833 2169.46,932.627C2173.54,936.289 2174.73,946.271 2175.03,950.337C2177.1,978.796 2150.51,979.692 2150.51,979.692C2150.51,979.692 2138.21,965.028 2138.66,957.141Z" style="fill:rgb(255,178,125);fill-rule:nonzero;"/>
    </g>
    <g transform="matrix(0.22018,0,0,0.22018,-80.0366,-35.6985)">
        <path d="M1944.25,1171.28C1944.25,1171.28 1883.57,1160.7 1832.02,1195.07C1780.46,1229.44 1773,1398.62 1746.99,1415.81C1720.98,1433 1609.5,1477.93 1635.5,1545.35C1661.5,1612.78 1616.23,1643.18 1631.59,1689.41C1646.96,1735.63 2027.05,1780.66 2056.43,1747.61C2085.82,1714.56 2109.75,1604.57 2093.82,1574.97C2077.88,1545.36 2007.78,1519.3 2033.3,1489.35C2104.71,1405.52 2077.97,1162.92 1944.25,1171.28Z" style="fill:rgb(169,69,61);fill-rule:nonzero;"/>
    </g>
    <g transform="matrix(0.22018,0,0,0.22018,-80.0366,-35.6985)">
        <path d="M2068.7,1656.79C2049.59,1674.61 2024.71,1690.63 1992.38,1703.2C1871.21,1750.35 1807.79,1651.36 1779.2,1581.24C1794.88,1568.97 1810.65,1564.48 1819.78,1562.03C1821.62,1561.53 1823.49,1561.05 1825.36,1560.59C1841.73,1556.5 1854.84,1544.13 1859.68,1527.96C1866.58,1504.93 1871.07,1470.2 1867.74,1426.82L1873.87,1427.55L1976.6,1440.26C1976.6,1440.26 1976.63,1472.33 1978.72,1502.34C1979.63,1515.2 1980.92,1527.69 1982.76,1537.15C1984.52,1546.21 1992.05,1553.02 2001.25,1553.83C2001.25,1553.83 2001.26,1553.86 2001.32,1553.91C2002.96,1555.89 2038.46,1598.88 2068.7,1656.79Z" style="fill:rgb(255,178,125);fill-rule:nonzero;"/>
    </g>
    <g transform="matrix(0.22018,0,0,0.22018,-80.0366,-35.6985)">
        <path d="M1654.31,1796.24C1664.32,1758.73 1702.06,1624.23 1729.58,1597.55C1756.14,1571.81 1817.82,1562.32 1819.74,1562.03C1819.77,1562.02 1819.78,1562.02 1819.78,1562.02C1819.78,1562.02 1820.79,1565.32 1822.51,1570.68C1828.02,1588.06 1840.96,1627.24 1851.18,1646.1C1853.63,1650.65 1855.93,1654 1857.93,1655.6C1863.25,1659.8 1896.48,1663.2 1933.84,1664.29C1936.83,1664.38 1939.85,1664.45 1942.88,1664.5C1993.62,1665.46 2048.33,1662.08 2049.74,1650.79C2052.26,1630.73 2003.15,1556.72 2001.31,1553.92C2001.26,1553.85 2001.25,1553.83 2001.25,1553.83C2060.85,1557.27 2093.81,1574.97 2093.81,1574.97C2150.34,1632.14 2174.43,1713.91 2181.76,1796.44L1654.31,1796.24Z" style="fill:rgb(7,30,66);fill-rule:nonzero;"/>
    </g>
    <g transform="matrix(0.22018,0,0,0.22018,-80.0366,-35.6985)">
        <path d="M1976.61,1440.28C1976.61,1440.28 1976.62,1472.32 1978.73,1502.35C1921.94,1504.87 1888.23,1455.34 1873.87,1427.57L1976.61,1440.28Z" style="fill:rgb(237,152,95);fill-rule:nonzero;"/>
    </g>
    <g transform="matrix(0.22018,0,0,0.22018,-80.0366,-35.6985)">
        <path d="M1997.6,1467.34C1997.6,1467.34 1863.67,1479.28 1857.51,1395.75C1851.36,1312.23 1829.93,1257.52 1915.19,1246.37C2000.44,1235.21 2019.42,1265.86 2028.26,1293.24C2037.09,1320.62 2032.28,1462.08 1997.6,1467.34Z" style="fill:rgb(255,178,125);fill-rule:nonzero;"/>
    </g>
    <g transform="matrix(0.22018,0,0,0.22018,-80.0366,-35.6985)">
        <path d="M2030.83,1367.59C2030.83,1367.59 1964.82,1382.71 1895.98,1361.93L1893.47,1436.72C1893.47,1436.72 1905.81,1452.29 1935.57,1464.02C1969.01,1477.18 2007.17,1476.67 2019.52,1445.29C2029.58,1419.73 2030.83,1367.59 2030.83,1367.59Z" style="fill:rgb(210,228,255);fill-rule:nonzero;"/>
    </g>
    <g transform="matrix(0.22018,0,0,0.22018,-80.0366,-35.6985)">
        <path d="M1901.15,1441.56L1901.9,1438.74C1901.2,1438.56 1864.73,1412.37 1848.62,1378.93C1844.28,1369.91 1839.57,1355.47 1844.22,1353.72C1866.67,1345.29 1903.86,1371.84 1899.61,1367.54L1898.77,1363.34C1896.8,1362.42 1864.96,1343.55 1841.36,1352.41C1835.94,1354.45 1841.45,1371.72 1846.17,1381.53C1853.21,1396.13 1855.66,1400.18 1866.73,1413.37C1880.53,1429.82 1900.97,1441.51 1901.15,1441.56Z" style="fill:rgb(210,228,255);fill-rule:nonzero;"/>
    </g>
    <g transform="matrix(0.22018,0,0,0.22018,-80.0366,-35.6985)">
        <path d="M1880.2,1372.91C1876.29,1346.87 1850.28,1339.55 1842.36,1348.13C1838.09,1352.75 1837.78,1364.29 1837.87,1368.98C1838.52,1401.76 1869.03,1399.97 1869.03,1399.97C1869.03,1399.97 1881.55,1381.89 1880.2,1372.91Z" style="fill:rgb(255,178,125);fill-rule:nonzero;"/>
    </g>
    <g transform="matrix(0.22018,0,0,0.22018,-80.0366,-35.6985)">
        <path d="M2020.9,1247.08C1998.35,1223.46 1983.08,1230.11 1974.86,1238.3C1898.64,1203.32 1855.73,1266.33 1855.73,1266.33C1851.11,1326.91 1810.38,1364.38 1810.38,1364.38C1810.38,1364.38 1835.92,1377.71 1891.21,1359.13C1908.1,1353.45 1922.58,1340.1 1934.57,1324.32C1914.54,1364.2 1885.5,1393.99 1885.5,1393.99C1950.54,1357.99 1970.78,1262.42 1972.75,1252.33C1986.18,1251.7 2011,1259.63 2024.52,1291.95C2033.14,1312.57 2031.89,1351.12 2031.89,1351.12C2031.89,1351.12 2054.72,1282.51 2020.9,1247.08Z" style="fill:rgb(169,69,61);fill-rule:nonzero;"/>
    </g>
</svg>
