<?xml version="1.0" encoding="UTF-8" standalone="no"?>
<!DOCTYPE svg PUBLIC "-//W3C//DTD SVG 1.1//EN" "http://www.w3.org/Graphics/SVG/1.1/DTD/svg11.dtd">
<svg width="100%" height="100%" viewBox="0 0 500 232" version="1.1" xmlns="http://www.w3.org/2000/svg" xmlns:xlink="http://www.w3.org/1999/xlink" xml:space="preserve" xmlns:serif="http://www.serif.com/" style="fill-rule:evenodd;clip-rule:evenodd;stroke-linejoin:round;stroke-miterlimit:2;">
    <g transform="matrix(0.173119,0,0,0.173119,-30.8058,-51.4921)">
        <path d="M2963.6,1630.18C2909.95,1630.18 2800,1633.99 2798.84,1635.72L2521.64,1635.72L2440.51,1635.55L1714.06,1635.55L1501.9,1635.37L942.607,1635.37L709.004,1635.2L286.565,1635.2C286.565,1635.2 285.865,1633.81 284.465,1631.03L284.231,1630.68C284.231,1630.68 283.998,1630.34 283.998,1630.17C283.065,1628.78 -67.538,1076.77 511.329,804.653C737.818,698.182 618.469,485.582 953.691,356.793C1202.73,261.115 1347.38,300.666 1523.03,340.217C1652.23,369.309 1798.19,398.4 2014.79,373.68C2458.67,323.02 2660.92,484.368 2629.77,724.331C2615.13,837.044 2715.6,923.442 2814.7,938.938C3088.09,981.692 3078.3,1232.11 3055.95,1416.1C3042.17,1529.52 2965.5,1630.18 2963.6,1630.18Z" style="fill:rgb(235,243,250);fill-rule:nonzero;"/>
    </g>
    <g transform="matrix(0.173119,0,0,0.173119,-30.8058,-51.4921)">
        <path d="M1312.06,1196.23C1312.06,1196.23 1308.55,1191.96 1303.28,1190.63C1298.02,1189.31 1286.64,1183.75 1287.96,1186.67C1289.29,1189.58 1295.64,1193.02 1294.58,1195.13C1294.58,1195.13 1276.5,1190.1 1275.97,1193.28C1275.44,1196.46 1282.34,1208.58 1290.08,1211.19C1292.64,1212.05 1310.46,1208.63 1310.46,1208.63L1312.06,1196.23Z" style="fill:rgb(242,161,107);fill-rule:nonzero;"/>
    </g>
    <g transform="matrix(0.173119,0,0,0.173119,-30.8058,-51.4921)">
        <path d="M1893.65,1249.83C1893.65,1249.83 1886.56,1242.1 1877.09,1243.32C1872.26,1243.95 1865.26,1236.35 1865.61,1241.29C1865.97,1246.22 1872.97,1257.66 1875.35,1259.62C1880.03,1263.47 1890.31,1262.2 1890.31,1262.2L1902.93,1269.97L1893.65,1249.83Z" style="fill:rgb(255,178,125);fill-rule:nonzero;"/>
    </g>
    <g transform="matrix(0.173119,0,0,0.173119,-30.8058,-51.4921)">
        <path d="M387.745,1039.63C387.745,1039.63 335.521,1093.77 333.053,1114.15C330.585,1134.53 358.069,1166.35 358.069,1166.35L387.745,1039.63Z" style="fill:rgb(237,125,43);fill-rule:nonzero;"/>
    </g>
    <g transform="matrix(0.173119,0,0,0.173119,-30.8058,-51.4921)">
        <path d="M411.343,1600.8C411.343,1600.8 413.187,1629.52 418.745,1629.92C419.484,1629.97 446.932,1629.91 446.932,1629.91L481.97,1629.63C481.97,1629.63 481.723,1621.19 471.477,1619.43C461.231,1617.67 444.072,1610.5 437.839,1596.98C431.281,1582.75 411.343,1600.8 411.343,1600.8Z" style="fill:rgb(35,88,165);fill-rule:nonzero;"/>
    </g>
    <g transform="matrix(0.173119,0,0,0.173119,-30.8058,-51.4921)">
        <path d="M333.301,1600.97C333.301,1600.97 335.144,1629.69 340.703,1630.09C341.442,1630.14 368.89,1630.08 368.89,1630.08L403.928,1629.8C403.928,1629.8 403.68,1621.36 393.434,1619.6C383.188,1617.83 366.03,1610.67 359.796,1597.15C353.238,1582.92 333.301,1600.97 333.301,1600.97Z" style="fill:rgb(35,88,165);fill-rule:nonzero;"/>
    </g>
    <g transform="matrix(0.173119,0,0,0.173119,-30.8058,-51.4921)">
        <path d="M449.478,1291.99C449.478,1291.99 440.44,1350.62 406.481,1454.74C372.521,1558.86 367.96,1603.92 367.96,1603.92L331.285,1602.97C331.285,1602.97 330.725,1489.27 346.366,1436.91C362.007,1384.56 349.357,1248.29 349.357,1248.29L449.478,1291.99Z" style="fill:rgb(22,53,96);fill-rule:nonzero;"/>
    </g>
    <g transform="matrix(0.173119,0,0,0.173119,-30.8058,-51.4921)">
        <path d="M467.235,1251.24C467.235,1251.24 468.725,1339.56 453.679,1448.04C438.633,1556.52 443.913,1602.54 443.913,1602.54L407.316,1603.83C407.316,1603.83 385.208,1495.4 391.361,1441.11C397.515,1386.81 361.005,1254.92 361.005,1254.92L467.235,1251.24Z" style="fill:rgb(28,70,138);fill-rule:nonzero;"/>
    </g>
    <g transform="matrix(0.173119,0,0,0.173119,-30.8058,-51.4921)">
        <path d="M395.935,1044.71L415.462,1057.46L443.633,1052.14C443.238,1049.87 441.357,1040.44 439.645,1031.91C439.542,1031.4 439.438,1030.9 439.341,1030.41C437.874,1023.14 436.607,1016.9 436.607,1016.9L410.26,1005.35L400.437,1001.04C400.463,1001.19 401.215,1009.1 401.32,1010.26C403.206,1030.76 395.935,1044.71 395.935,1044.71Z" style="fill:rgb(255,178,125);fill-rule:nonzero;"/>
    </g>
    <g transform="matrix(0.173119,0,0,0.173119,-30.8058,-51.4921)">
        <path d="M436.385,1038.17C435.837,1037.95 402.426,1028.17 398.801,1029.37C395.176,1030.58 393.044,1037.6 393.044,1037.6L447.686,1049.83C447.686,1049.83 443.369,1041.1 436.385,1038.17Z" style="fill:rgb(237,125,43);fill-rule:nonzero;"/>
    </g>
    <g transform="matrix(0.173119,0,0,0.173119,-30.8058,-51.4921)">
        <path d="M346.958,1262.41C352.674,1288.22 446.875,1291.07 471.105,1267.58C473.861,1264.91 473.97,1252.48 472.892,1235.72C470.783,1202.98 464.134,1153.75 463.824,1128.58C463.673,1116.43 461.977,1104.01 459.728,1092.73C454.944,1068.68 447.687,1049.83 447.687,1049.83C447.687,1049.83 401.647,1035.05 393.044,1037.6C351.596,1049.88 341.243,1236.6 346.958,1262.41Z" style="fill:rgb(249,151,70);fill-rule:nonzero;"/>
    </g>
    <g transform="matrix(0.173119,0,0,0.173119,-30.8058,-51.4921)">
        <path d="M472.892,1235.72C470.783,1202.98 464.134,1153.75 463.824,1128.58C463.673,1116.43 461.977,1104.01 459.728,1092.73L432.042,1087.9C432.042,1087.9 405.223,1198.49 472.892,1235.72Z" style="fill:rgb(237,125,43);fill-rule:nonzero;"/>
    </g>
    <g transform="matrix(0.173119,0,0,0.173119,-30.8058,-51.4921)">
        <path d="M457.806,1190.12C457.806,1190.12 455.929,1194.63 459.897,1197.65C463.866,1200.67 466.446,1205.57 465.546,1209.15C464.646,1212.74 455.969,1218.61 452.955,1217.67C449.94,1216.73 443.798,1212.03 444.455,1210.13C445.11,1208.24 440.294,1193.55 447.626,1187.88C454.958,1182.2 457.806,1190.12 457.806,1190.12Z" style="fill:rgb(255,178,125);fill-rule:nonzero;"/>
    </g>
    <g transform="matrix(0.173119,0,0,0.173119,-30.8058,-51.4921)">
        <path d="M426.54,1043.25C426.54,1043.25 453.542,1048.24 475.118,1079.89C496.693,1111.53 510.894,1135.07 506.957,1146.5C503.02,1157.93 466.993,1197.63 460.767,1197.64C454.542,1197.65 444.485,1193.15 443.896,1182.96C443.896,1182.96 467.684,1143.36 462.663,1137.67C460.517,1135.23 431.15,1111.68 426.768,1123.01C419.517,1141.75 426.54,1043.25 426.54,1043.25Z" style="fill:rgb(249,151,70);fill-rule:nonzero;"/>
    </g>
    <g transform="matrix(0.173119,0,0,0.173119,-30.8058,-51.4921)">
        <path d="M403.296,1010.61C409.097,1020.39 430.655,1028.81 439.645,1031.91C439.542,1031.4 439.438,1030.9 439.341,1030.41C437.874,1023.14 436.607,1016.9 436.607,1016.9L410.26,1005.35C404.442,1005.28 400.903,1006.59 403.296,1010.61Z" style="fill:rgb(252,165,107);fill-rule:nonzero;"/>
    </g>
    <g transform="matrix(0.173119,0,0,0.173119,-30.8058,-51.4921)">
        <path d="M446.525,1015.28C446.525,1015.28 404.154,1028.6 396.267,1002.09C388.379,975.572 377.598,959.434 404.317,949.81C431.036,940.185 439.326,948.731 444.111,956.941C448.896,965.15 457.344,1011.13 446.525,1015.28Z" style="fill:rgb(255,178,125);fill-rule:nonzero;"/>
    </g>
    <g transform="matrix(0.173119,0,0,0.173119,-30.8058,-51.4921)">
        <path d="M442.44,954.389C442.44,954.389 439.804,985.268 433.416,983.941C427.028,982.615 421.235,981.634 422.19,990.938C423.146,1000.24 432.023,1010.97 412.35,1012.66C392.676,1014.35 364.279,963.665 369.664,954.045C385.2,926.289 464.91,920.521 442.44,954.389Z" style="fill:rgb(22,53,96);fill-rule:nonzero;"/>
    </g>
    <g transform="matrix(0.173119,0,0,0.173119,-30.8058,-51.4921)">
        <path d="M2657.83,1148.06C2657.83,1148.06 2654.22,1142.1 2652.01,1138.8C2649.8,1135.5 2645.4,1131.39 2644.27,1132.45C2643.15,1133.51 2647.66,1137.87 2647.45,1139.33C2647.25,1140.78 2639.7,1135.89 2638.88,1134.79C2637.25,1132.58 2632.92,1130.2 2632.39,1132.98C2631.86,1135.76 2635.08,1144.49 2636.53,1147C2637.99,1149.51 2644.08,1153.48 2647.45,1154.67C2650.82,1155.87 2656.59,1158.64 2656.59,1158.64L2657.83,1148.06Z" style="fill:rgb(255,178,125);fill-rule:nonzero;"/>
    </g>
    <g transform="matrix(0.173119,0,0,0.173119,-30.8058,-51.4921)">
        <path d="M2811.06,952.148C2798.17,945.46 2787.84,949.663 2787.84,949.663C2748.39,945.031 2736.88,991.032 2737.42,1006.86C2737.95,1022.69 2739.76,1039.69 2722.14,1060.25C2671.26,1119.65 2777.83,1122.27 2777.83,1122.27C2778.73,1074.81 2835.62,1092.13 2833.12,1096.94C2906.05,1114.44 2840.38,967.357 2811.06,952.148Z" style="fill:rgb(22,53,96);fill-rule:nonzero;"/>
    </g>
    <g transform="matrix(0.173119,0,0,0.173119,-30.8058,-51.4921)">
        <path d="M2759.22,1153.41C2759.22,1153.41 2755.45,1160.88 2748.61,1169.45C2740.37,1179.78 2727.66,1191.7 2711.7,1194.06C2704.08,1195.18 2696.63,1193.54 2689.77,1190.5L2689.75,1190.49C2670.37,1181.89 2655.8,1162.1 2655.8,1162.1C2652.38,1152.79 2657.97,1146.47 2657.97,1146.47C2657.97,1146.47 2697.1,1155.27 2700.83,1153.41C2704.56,1151.54 2726.3,1088.91 2731.47,1081.04C2736.65,1073.17 2754.29,1069.08 2754.29,1069.08L2759.22,1153.41Z" style="fill:rgb(249,151,70);fill-rule:nonzero;"/>
    </g>
    <g transform="matrix(0.173119,0,0,0.173119,-30.8058,-51.4921)">
        <path d="M2748.61,1169.45C2740.37,1179.78 2727.66,1191.7 2711.7,1194.06C2704.08,1195.18 2696.63,1193.54 2689.77,1190.5C2690.53,1190.6 2709.89,1192.99 2717.6,1179.19C2725.47,1165.11 2733.98,1142.74 2745.67,1150.2C2750.72,1153.41 2750.49,1161.41 2748.61,1169.45Z" style="fill:rgb(237,125,43);fill-rule:nonzero;"/>
    </g>
    <g transform="matrix(0.173119,0,0,0.173119,-30.8058,-51.4921)">
        <path d="M2905.22,1575.84C2905.22,1575.84 2917.16,1586.74 2914.83,1594.48C2912.5,1602.22 2901.73,1607.38 2900.27,1616.85C2898.82,1626.31 2892.99,1631.47 2887.75,1631.47L2862.75,1631.47C2862.75,1631.47 2858.9,1624.82 2868.21,1622.81C2877.54,1620.8 2881.05,1609.68 2880.47,1599.36C2879.88,1589.03 2881.34,1575.27 2881.34,1575.27L2901.15,1570.68L2905.22,1575.84Z" style="fill:rgb(35,88,165);fill-rule:nonzero;"/>
    </g>
    <g transform="matrix(0.173119,0,0,0.173119,-30.8058,-51.4921)">
        <path d="M2804.15,1580.47C2804.15,1580.47 2808.45,1626.63 2803.21,1629.21L2736.11,1629.08C2736.11,1629.08 2736.11,1621.33 2746.89,1619.61C2757.67,1617.89 2776.6,1611.58 2779.8,1597.53C2783.01,1583.48 2804.15,1580.47 2804.15,1580.47Z" style="fill:rgb(35,88,165);fill-rule:nonzero;"/>
    </g>
    <g transform="matrix(0.173119,0,0,0.173119,-30.8058,-51.4921)">
        <path d="M2851.96,1249.26C2838.16,1218.3 2829.71,1209.41 2831.32,1199.8C2832.52,1192.65 2827.67,1066.44 2827.67,1066.44C2826.03,1065.93 2822.75,1065.48 2820.95,1065.08C2815.29,1063.82 2810.6,1059.84 2808.65,1054.38C2806.3,1047.8 2804.43,1038.08 2804.47,1025.91L2802.71,1026.25L2772.97,1032.14C2772.97,1032.14 2773.64,1041.5 2773.67,1050.32L2773.67,1050.54C2773.7,1058.19 2768.68,1064.95 2761.32,1067.07C2757.57,1068.16 2754.3,1069.09 2754.3,1069.09C2754.3,1069.09 2743.38,1100.26 2741.29,1132.29C2739.21,1164.31 2761.15,1178.22 2741.13,1242.22C2720.69,1307.59 2859.59,1266.37 2851.96,1249.26Z" style="fill:rgb(255,178,125);fill-rule:nonzero;"/>
    </g>
    <g transform="matrix(0.173119,0,0,0.173119,-30.8058,-51.4921)">
        <path d="M2772.97,1032.14C2772.97,1032.14 2773.64,1041.5 2773.67,1050.32C2790.31,1049.85 2799.1,1034.67 2802.71,1026.25L2772.97,1032.14Z" style="fill:rgb(232,148,91);fill-rule:nonzero;"/>
    </g>
    <g transform="matrix(0.173119,0,0,0.173119,-30.8058,-51.4921)">
        <path d="M2767.41,1040.49C2767.41,1040.49 2806.78,1041.14 2806.81,1016.62C2806.84,992.091 2811.94,975.658 2786.8,974.207C2761.66,972.755 2756.77,982.107 2754.77,990.291C2752.77,998.475 2757.17,1039.69 2767.41,1040.49Z" style="fill:rgb(255,178,125);fill-rule:nonzero;"/>
    </g>
    <g transform="matrix(0.173119,0,0,0.173119,-30.8058,-51.4921)">
        <path d="M2768.87,973.605C2768.87,973.605 2779.65,1002.38 2796.19,1006.63C2812.73,1010.89 2819.91,1006.45 2819.91,1006.45C2819.91,1006.45 2807.22,996.373 2804.59,978.776C2804.59,978.776 2777,959.912 2768.87,973.605Z" style="fill:rgb(22,53,96);fill-rule:nonzero;"/>
    </g>
    <g transform="matrix(0.173119,0,0,0.173119,-30.8058,-51.4921)">
        <path d="M2771.54,975.941C2771.54,975.941 2763.55,978.93 2760.26,984.759C2757.04,990.461 2754.3,998.011 2754.93,1007.27C2754.93,1007.27 2746.81,987.718 2755.94,976.655C2765.62,964.925 2771.54,975.941 2771.54,975.941Z" style="fill:rgb(22,53,96);fill-rule:nonzero;"/>
    </g>
    <g transform="matrix(0.173119,0,0,0.173119,-30.8058,-51.4921)">
        <path d="M2775.98,1025.28C2775.98,1025.28 2773.26,1028.85 2767.83,1028.59C2763.45,1028.39 2761.76,1024.59 2761.76,1024.59C2761.76,1024.59 2769.8,1022.65 2775.98,1025.28Z" style="fill:rgb(235,243,250);fill-rule:nonzero;"/>
    </g>
    <g transform="matrix(0.173119,0,0,0.173119,-30.8058,-51.4921)">
        <path d="M2855.76,1122.27C2855.76,1122.27 2856.76,1136.37 2855.76,1153.28C2855.1,1164.49 2843.76,1179.51 2842.15,1183.22C2838.11,1192.54 2833.56,1194.06 2833.56,1194.06L2798.33,1202.69L2785.94,1205.72L2746.88,1194.06C2746.88,1194.06 2729.09,1144.4 2736.24,1116.45C2743.38,1088.5 2754.29,1069.08 2754.29,1069.08C2754.29,1069.08 2786.17,1100.29 2827.67,1066.44L2855.76,1122.27Z" style="fill:rgb(249,151,70);fill-rule:nonzero;"/>
    </g>
    <g transform="matrix(0.173119,0,0,0.173119,-30.8058,-51.4921)">
        <path d="M2845.45,1157.86C2844.79,1169.07 2843.76,1179.51 2842.15,1183.22C2838.11,1192.54 2833.56,1194.06 2833.56,1194.06L2798.33,1202.69L2783.03,1198.2C2783.03,1198.2 2834.1,1190.46 2828.45,1146.51L2845.45,1157.86Z" style="fill:rgb(242,204,170);fill-rule:nonzero;"/>
    </g>
    <g transform="matrix(0.173119,0,0,0.173119,-30.8058,-51.4921)">
        <path d="M2749.37,1201.6C2749.37,1201.6 2730.03,1261.8 2728.78,1282.3C2727.54,1302.8 2765.76,1573.5 2767.3,1582.95C2768.75,1591.85 2779.8,1597.53 2779.8,1597.53C2779.8,1597.53 2784.89,1600.53 2792.14,1598.48C2802.21,1595.64 2805.39,1592.23 2805.39,1592.23C2805.39,1592.23 2820.45,1399.17 2811.13,1330.2C2801.82,1261.24 2801.71,1201.6 2801.71,1201.6L2749.37,1201.6Z" style="fill:rgb(22,53,96);fill-rule:nonzero;"/>
    </g>
    <g transform="matrix(0.173119,0,0,0.173119,-30.8058,-51.4921)">
        <path d="M2831.32,1199.8C2831.32,1199.8 2860.83,1239.39 2863.58,1266.15C2866.33,1292.91 2867.89,1386.92 2873.75,1413.01C2879.61,1439.1 2901.15,1489.3 2901.15,1570.68C2901.15,1570.68 2898.91,1575.34 2892,1577.83C2889.79,1578.62 2886.83,1579.39 2883.95,1580.05C2878.25,1581.36 2872.41,1578.57 2869.8,1573.33C2855.25,1544.03 2808.88,1449.5 2806.5,1429.88C2804.82,1415.99 2790.18,1324.08 2758.24,1270.16C2750.58,1257.21 2762.95,1205.72 2762.95,1205.72L2831.32,1199.8Z" style="fill:rgb(28,70,138);fill-rule:nonzero;"/>
    </g>
    <g transform="matrix(0.173119,0,0,0.173119,-30.8058,-51.4921)">
        <path d="M2775.1,1025.93C2775.1,1025.93 2774.42,1028.82 2767.23,1028.38C2767.23,1028.38 2761.2,1028 2761.38,1024.83C2761.38,1024.83 2767.23,1022.57 2775.1,1025.93Z" style="fill:white;fill-rule:nonzero;"/>
    </g>
    <g transform="matrix(0.173119,0,0,0.173119,-30.8058,-51.4921)">
        <path d="M2746.28,1192.3C2746.28,1192.3 2754.04,1198.44 2769.47,1198.75C2787.9,1199.13 2833.55,1194.06 2833.55,1194.06C2833.55,1194.06 2835.58,1199.72 2835.5,1205.71C2835.5,1205.71 2779.74,1219.78 2747.43,1207.76C2747.43,1207.76 2743.26,1199.92 2746.28,1192.3Z" style="fill:rgb(35,56,98);fill-rule:nonzero;"/>
    </g>
    <g transform="matrix(0.173119,0,0,0.173119,-30.8058,-51.4921)">
        <path d="M2765.05,1198.39C2761.95,1198.39 2759.43,1201.41 2759.43,1205.12C2759.43,1208.83 2761.95,1211.85 2765.05,1211.85C2768.15,1211.85 2770.67,1208.83 2770.67,1205.12C2770.67,1201.41 2768.15,1198.39 2765.05,1198.39ZM2765.05,1214.63C2760.41,1214.63 2756.64,1210.36 2756.64,1205.12C2756.64,1199.87 2760.41,1195.6 2765.05,1195.6C2769.69,1195.6 2773.46,1199.87 2773.46,1205.12C2773.46,1210.36 2769.69,1214.63 2765.05,1214.63Z" style="fill:white;fill-rule:nonzero;"/>
    </g>
    <g transform="matrix(0.173119,0,0,0.173119,-30.8058,-51.4921)">
        <path d="M2893.59,1203.19L2836.46,1252.94L2768.36,1174.74L2825.49,1124.99L2893.59,1203.19Z" style="fill:rgb(175,205,251);fill-rule:nonzero;"/>
    </g>
    <g transform="matrix(0.173119,0,0,0.173119,-30.8058,-51.4921)">
        <path d="M2820.67,1203.37C2820.67,1203.37 2798.46,1206.79 2798.52,1211.76C2798.59,1216.72 2803.12,1225.71 2807.6,1226.42C2813.3,1227.33 2824.64,1212.62 2824.64,1212.62L2820.67,1203.37Z" style="fill:rgb(255,178,125);fill-rule:nonzero;"/>
    </g>
    <g transform="matrix(0.173119,0,0,0.173119,-30.8058,-51.4921)">
        <path d="M2820.2,1204.55C2820.2,1204.55 2812.76,1201.83 2807.3,1202.95C2801.84,1204.08 2796.79,1203.25 2798.04,1205.23C2799.28,1207.22 2806.66,1206.48 2807.83,1207.26C2809.01,1208.04 2809.02,1207.55 2809.02,1207.55L2820.2,1204.55Z" style="fill:rgb(255,178,125);fill-rule:nonzero;"/>
    </g>
    <g transform="matrix(0.173119,0,0,0.173119,-30.8058,-51.4921)">
        <path d="M2827.67,1066.44C2827.67,1066.44 2855.62,1068.4 2866.33,1094.44C2877.04,1120.48 2897.37,1164.21 2897.37,1171.56C2897.37,1178.92 2886.01,1201.6 2825.04,1214.63C2825.04,1214.63 2818.73,1208 2819.11,1202.75C2819.11,1202.75 2857.18,1170.06 2857.07,1166.24C2856.88,1159.01 2850.83,1149.47 2817.41,1116.04C2808.33,1106.95 2827.67,1066.44 2827.67,1066.44Z" style="fill:rgb(249,151,70);fill-rule:nonzero;"/>
    </g>
    <g transform="matrix(0.173119,0,0,0.173119,-30.8058,-51.4921)">
        <path d="M848.862,888.135C833.261,897.551 818.818,908.118 805.866,919.676C800.409,924.546 795.212,929.586 790.28,934.791C805.332,930.85 819.693,929.377 833.205,930.41C838.671,930.827 843.96,931.652 849.069,932.883C860.055,925.061 872.506,917.592 886.624,910.758C897.807,905.345 909.427,900.686 921.27,896.822C891.678,889.888 868.476,887.787 848.862,888.135ZM945.857,896.522C962.988,901.47 979.695,907.294 995.981,913.366C1017.24,921.293 1043.38,932.506 1070.88,947.727C1074.81,944.796 1078.83,942.111 1082.91,939.697C1091.36,934.7 1099.94,930.877 1108.58,928.222C1090.88,907.585 1061.93,894.358 1024.74,890.645C999.685,888.144 972.569,890.259 945.857,896.522ZM1076.96,951.146C1094.08,960.924 1111.62,972.257 1128.76,985.314C1128.4,976.616 1127.38,968.691 1125.69,961.715C1123.19,951.38 1118.85,941.98 1112.84,933.632C1103.84,936.133 1094.92,939.973 1086.14,945.164C1083.04,946.998 1079.98,948.996 1076.96,951.146ZM929.559,950.681C945.83,950.681 961.602,953.092 976.692,957.945C999.115,965.157 1017.69,975.385 1033.09,987.375C1042.63,973.735 1053.59,961.727 1065.45,951.984C1039.13,937.598 1014.18,926.928 993.762,919.316C971.048,910.847 951.045,904.49 933.23,899.8C918.213,904.082 903.45,909.668 889.39,916.474C879.349,921.335 868.256,927.487 856.977,935.161C869.287,939.309 880.431,945.99 890.298,955.151C903.632,952.175 916.748,950.681 929.559,950.681ZM850.406,939.795C830.349,954.453 810.229,974.033 794.852,999.821C803.09,993.966 811.455,988.564 819.918,983.639C841.118,971.304 862.187,962.398 882.786,956.978C873.171,948.845 862.343,943.102 850.406,939.795ZM1040.65,993.624C1071.3,994.798 1101.35,999.1 1128.58,1004.62C1128.79,1000.79 1128.9,997.068 1128.91,993.452C1109.96,978.646 1090.42,966.015 1071.44,955.309C1059.16,965.032 1047.82,977.304 1038.03,991.375C1038.92,992.12 1039.79,992.867 1040.65,993.624ZM895.673,960.507C907.955,973.462 918.896,988.949 928.586,1007.15C960.465,996.674 994.971,992.932 1029.08,993.333C1029.22,993.112 1029.37,992.892 1029.51,992.672C1014.58,980.977 996.542,971 974.748,963.991C950.062,956.051 923.405,954.94 895.673,960.507ZM1134.83,1005.92C1139.06,1006.82 1143.21,1007.74 1147.28,1008.69C1143.28,1005.16 1139.24,1001.74 1135.15,998.423C1135.09,1000.88 1134.98,1003.38 1134.83,1005.92ZM1038.44,1051.66C1053.07,1051.66 1067.08,1053.65 1080.28,1057.63C1070.97,1037.78 1057.51,1017.34 1038.07,999.857C1036.22,999.796 1034.39,999.748 1032.55,999.71C1027.03,1008.58 1022.11,1018.05 1017.93,1027.96C1014.28,1036.63 1011.25,1045.42 1008.86,1054.24C1018.94,1052.52 1028.83,1051.66 1038.44,1051.66ZM782.136,943.813C770.239,957.658 760.125,972.546 751.917,988.322C740.421,1010.41 732.624,1034.36 728.646,1059.71C745.634,1040.63 763.755,1023.57 782.648,1008.89C793.309,987.673 811.498,961.532 842.227,937.941C839.126,937.389 835.956,936.989 832.722,936.742C817.049,935.545 800.093,937.922 782.136,943.813ZM1160.16,1011.81C1173.04,1015.05 1184.89,1018.42 1195.4,1021.64C1220.53,1029.33 1241.17,1042.56 1256.95,1061.07C1255.77,1026.77 1245.45,990.617 1215.2,963.326C1184.92,936.019 1151.87,925.425 1119.5,932.027C1125.2,940.486 1129.37,949.917 1131.87,960.222C1133.98,968.956 1135.08,979.101 1135.22,990.332C1141.27,995.135 1147.27,1000.16 1153.16,1005.42C1155.53,1007.53 1157.87,1009.66 1160.16,1011.81ZM931.539,1012.86C940.143,1029.97 947.71,1049.35 954.304,1071.13C970.507,1063.95 986.457,1058.75 1001.95,1055.54C1004.53,1045.45 1007.91,1035.39 1012.08,1025.5C1015.88,1016.49 1020.27,1007.83 1025.17,999.626C1024.85,999.625 1024.53,999.625 1024.21,999.625C992.654,999.625 960.94,1003.33 931.539,1012.86ZM1088.51,1060.42C1096.93,1063.58 1104.97,1067.6 1112.59,1072.47C1113.92,1073.32 1115.22,1074.18 1116.51,1075.08C1122.64,1052.26 1126.59,1030.47 1128.15,1011C1103.2,1005.91 1075.83,1001.83 1047.84,1000.29C1066.76,1018.86 1079.68,1040.11 1088.51,1060.42ZM704.476,1101.29C709.272,1101.29 714.083,1101.41 718.906,1101.65C719.04,1094.5 719.388,1087.19 719.951,1079.75C714.318,1086.71 708.832,1093.89 703.511,1101.29L704.476,1101.29ZM787.684,1013.03C787.132,1014.15 786.587,1015.29 786.053,1016.43C771.783,1047.03 766.05,1076.26 768.865,1103.8C789.625,1083.29 813.129,1070.98 836.38,1069.43C836.675,1069.41 836.972,1069.4 837.266,1069.38C852.327,1050.25 870.819,1034.63 892.653,1022.64C902.235,1017.38 912.22,1012.94 922.508,1009.24C912.78,991.143 901.787,975.853 889.438,963.185C889.089,962.826 888.737,962.471 888.384,962.119C867.075,967.259 845.186,976.284 823.112,989.128C811.076,996.131 799.237,1004.13 787.684,1013.03ZM725.25,1102.04C737.831,1102.93 750.431,1104.62 762.816,1107.05C759.532,1080.06 764.166,1051.56 776.71,1021.83C759.346,1036.3 742.719,1052.83 727.124,1071.12C726.827,1073.81 726.572,1076.52 726.36,1079.24C725.753,1086.99 725.384,1094.6 725.25,1102.04ZM845.363,1069.5C865.984,1071.23 884.222,1084.01 900.854,1108.33C915.317,1093.71 931.401,1081.98 948.479,1073.8C941.83,1051.68 934.184,1032.11 925.471,1014.92C915.204,1018.57 905.245,1022.97 895.709,1028.21C876.127,1038.96 859.322,1052.75 845.363,1069.5ZM1121.98,1079.09C1134.07,1088.48 1144.21,1099.88 1151.94,1112.51C1182.84,1110.3 1206.32,1109.57 1226.16,1110.54C1209.86,1076.75 1186.76,1045.68 1157.01,1017.56C1149.76,1015.75 1142.2,1013.98 1134.37,1012.31C1132.68,1032.66 1128.48,1055.39 1121.98,1079.09ZM1233.41,1110.98C1237.63,1111.29 1241.69,1111.68 1245.64,1112.16C1248,1112.45 1250.32,1112.77 1252.61,1113.12C1252.69,1112.68 1252.77,1112.25 1252.85,1111.82C1255.14,1099.4 1256.81,1085.65 1257.04,1071.37C1241.52,1050.54 1220.19,1035.86 1193.55,1027.71C1186.14,1025.45 1178.05,1023.1 1169.42,1020.78C1196.8,1048.25 1218.17,1078.39 1233.41,1110.98ZM1091.89,1068.63C1094.05,1074.22 1095.92,1079.69 1097.53,1084.97C1100.41,1094.44 1102.69,1103.96 1104.45,1113.37C1108.3,1102.67 1111.73,1092.04 1114.71,1081.58C1112.9,1080.28 1111.06,1079.03 1109.17,1077.82C1103.64,1074.28 1097.87,1071.22 1091.89,1068.63ZM1120.11,1085.72C1117.23,1095.67 1113.94,1105.77 1110.28,1115.92C1122.71,1114.81 1134.17,1113.84 1144.78,1113.04C1138.14,1102.87 1129.83,1093.6 1120.11,1085.72ZM1258.87,1114.19C1265.94,1115.5 1272.72,1117.16 1279.41,1119.17C1275.67,1104.9 1270.19,1091.8 1263.1,1080.3C1262.51,1090.79 1261.17,1101.69 1259.1,1112.97C1259.02,1113.37 1258.95,1113.78 1258.87,1114.19ZM772.474,1109.11C784.854,1111.96 796.966,1115.56 808.583,1119.86C814.937,1103.85 822.792,1089.29 832.124,1076.24C811.583,1078.96 790.921,1090.6 772.474,1109.11ZM1007.15,1061C1001.79,1083.86 1000.71,1106.78 1004.08,1128.15C1015.46,1125.76 1027.27,1123.95 1039.49,1122.73C1061.33,1120.55 1080.94,1118.63 1098.66,1116.99C1096.89,1107 1094.52,1096.89 1091.45,1086.82C1089.37,1079.97 1086.83,1072.78 1083.75,1065.45C1060.68,1057.36 1034.74,1055.88 1007.15,1061ZM956.12,1077.27C958.624,1085.95 960.982,1095.01 963.195,1104.43C965.733,1115.24 968.027,1126.27 970.119,1137.46C979.046,1134.39 988.3,1131.75 997.868,1129.53C994.444,1108.13 995.315,1085.25 1000.32,1062.39C985.942,1065.59 971.152,1070.55 956.12,1077.27ZM1286.52,1121.45C1299.81,1125.96 1313.04,1131.89 1327.87,1139.34C1326.3,1134.5 1324.63,1129.66 1322.88,1124.8C1279.5,1004.92 1219.64,921.488 1144.99,876.836C1073.68,834.191 1004.4,836.35 958.839,845.671C923.398,852.92 889.521,865.399 859.419,882.036C884.931,882.695 909.618,886.941 933.505,893.133C964.365,884.586 996.216,881.415 1025.37,884.326C1065.67,888.349 1096.81,903.187 1115.35,926.382C1150.58,918.055 1186.6,928.983 1219.45,958.61C1248.9,985.169 1263.79,1022.97 1263.45,1069.38C1264.4,1070.7 1265.32,1072.03 1266.22,1073.39C1275.43,1087.29 1282.27,1103.55 1286.52,1121.45ZM1236.39,1117.57C1239.87,1125.53 1243,1133.63 1245.77,1141.87C1247.93,1134.28 1249.8,1126.77 1251.36,1119.34C1246.56,1118.61 1241.6,1118.02 1236.39,1117.57ZM814.516,1122.14C834.252,1129.97 852.409,1139.87 867.815,1151.58C876.223,1137.32 885.823,1124.38 896.362,1113.02C879.512,1087.95 861.187,1075.69 840.465,1075.65C830.043,1089.35 821.381,1104.86 814.516,1122.14ZM1256.84,1151.58C1267.47,1151.58 1276.83,1152.82 1284.96,1155.29C1284.41,1145.27 1283.12,1135.58 1281.12,1126.33C1273.47,1123.88 1265.76,1121.92 1257.63,1120.41C1255.47,1130.71 1252.73,1141.19 1249.44,1151.77C1251.97,1151.64 1254.44,1151.58 1256.84,1151.58ZM904.42,1113.75C912.586,1126.66 919.873,1141.52 926.685,1157.15C938.374,1150.37 950.845,1144.52 964.062,1139.62C961.937,1128.18 959.603,1116.92 957.013,1105.88C954.903,1096.9 952.664,1088.27 950.291,1079.98C933.841,1088.01 918.351,1099.47 904.42,1113.75ZM725.192,1108.38C725.191,1126.54 726.623,1143.71 729.459,1159.76C738.258,1141.92 748.684,1126.19 760.169,1113.05C748.465,1110.79 736.767,1109.23 725.192,1108.38ZM1155.43,1118.58C1163.82,1134.25 1168.62,1151.52 1169.05,1169.04C1176.81,1166.52 1184.45,1164.2 1191.92,1162.13C1210.87,1156.89 1227.67,1153.6 1242.41,1152.27C1238.78,1140.23 1234.37,1128.48 1229.19,1117.04C1209.32,1115.84 1185.85,1116.47 1155.43,1118.58ZM770.544,1115.25C772.7,1126.46 776.322,1137.37 781.411,1147.96C785.009,1155.45 789.208,1162.53 793.872,1169.19C795.79,1161.33 797.868,1153.35 800.108,1145.24C801.949,1138.58 804.011,1132.12 806.291,1125.88C794.877,1121.66 782.884,1118.08 770.544,1115.25ZM1036.26,1175.51C1050.29,1175.51 1063.58,1176.37 1076.11,1178.07C1084.96,1161.05 1092.96,1143.39 1100,1125.27C1099.9,1124.59 1099.8,1123.93 1099.69,1123.25C1081.8,1124.92 1062.05,1126.86 1040.12,1129.05C1028.06,1130.26 1016.42,1132.04 1005.2,1134.41C1005.51,1135.94 1005.84,1137.46 1006.2,1138.97C1009.02,1150.96 1012,1163.45 1015.21,1176.12C1016.14,1176.07 1017.07,1176.02 1018,1175.97C1024.21,1175.67 1030.3,1175.51 1036.26,1175.51ZM872.847,1155.55C881.858,1162.95 889.466,1170.77 895.609,1178.93C900.574,1174.77 905.729,1170.82 911.074,1167.1C914.374,1164.79 917.747,1162.58 921.191,1160.45C914.637,1145.34 907.662,1131 899.917,1118.53C889.939,1129.46 880.834,1141.89 872.847,1155.55ZM971.277,1143.78C973.415,1155.68 975.338,1167.76 977.097,1179.95C987.972,1178.41 998.544,1177.28 1008.79,1176.54C1005.76,1164.59 1002.86,1152.5 1000.02,1140.42C999.653,1138.89 999.315,1137.34 999,1135.78C989.427,1138.02 980.185,1140.68 971.277,1143.78ZM1082.74,1179.06C1089.59,1180.18 1096.18,1181.56 1102.53,1183.21C1103.32,1169.42 1103.16,1154.22 1101.59,1138.35C1095.85,1152.24 1089.55,1165.84 1082.74,1179.06ZM929.209,1163.03C932.505,1170.81 935.699,1178.75 938.838,1186.7C949.752,1184.41 960.414,1182.46 970.813,1180.87C969.116,1169.11 967.267,1157.46 965.218,1145.97C952.482,1150.75 940.465,1156.45 929.209,1163.03ZM1108.78,1184.94C1111.75,1185.81 1114.66,1186.75 1117.51,1187.75C1132.67,1181.79 1147.88,1176.13 1162.74,1171.13C1162.64,1153.01 1157.56,1135.1 1148.46,1119.09C1136.1,1120 1122.64,1121.15 1107.86,1122.5C1107.41,1123.68 1106.96,1124.85 1106.51,1126.03C1109.43,1146.99 1109.88,1167.13 1108.78,1184.94ZM899.295,1184.13C901.589,1187.57 903.627,1191.07 905.405,1194.61C914.603,1192.2 923.652,1190.01 932.545,1188.05C929.662,1180.76 926.73,1173.49 923.718,1166.35C920.655,1168.27 917.65,1170.25 914.706,1172.3C909.375,1176.02 904.237,1179.96 899.295,1184.13ZM894.457,1188.33C889.808,1192.49 885.342,1196.86 881.067,1201.43C887.069,1199.65 893.096,1197.93 899.125,1196.29C897.73,1193.61 896.173,1190.95 894.457,1188.33ZM770.381,948.113C768.437,948.897 766.482,949.72 764.516,950.582C716.339,971.708 664.96,1016.08 627.077,1069.28C594.739,1114.7 574.915,1161.58 569.543,1204.43C573.489,1192.16 578.262,1180.51 583.782,1169.82C602.29,1133.97 627.669,1111.26 655.244,1105.87C668.275,1103.33 681.839,1101.87 695.62,1101.43C703.718,1089.93 712.209,1078.93 721.032,1068.49C724.525,1038.83 733.001,1010.92 746.283,985.391C753.073,972.342 761.127,959.889 770.381,948.113ZM1126.37,1191.12C1137.13,1195.57 1146.98,1200.96 1155.91,1207.28C1159.59,1197.57 1161.83,1187.71 1162.51,1177.95C1150.6,1181.99 1138.49,1186.45 1126.37,1191.12ZM1079.62,1185.02C1075.34,1193.08 1070.87,1200.99 1066.23,1208.74C1077.8,1203.88 1089.69,1198.92 1101.69,1194.06C1101.83,1192.61 1101.97,1191.15 1102.09,1189.66C1094.79,1187.73 1087.28,1186.19 1079.62,1185.02ZM869.668,1161.17C868.427,1163.43 867.215,1165.72 866.034,1168.04C858.867,1182.15 853.112,1196.83 848.836,1211.73C855.611,1209.42 862.466,1207.18 869.371,1205.01C876.018,1197.18 883.164,1189.87 890.79,1183.09C885.101,1175.47 878.039,1168.13 869.668,1161.17ZM798.799,1175.86C810.669,1191.12 824.952,1204.07 839.851,1214.85C840.419,1214.65 840.982,1214.45 841.552,1214.25C846.037,1197.49 852.341,1180.98 860.373,1165.17C861.752,1162.45 863.173,1159.78 864.634,1157.14L864.607,1157.12C849.953,1145.88 832.059,1136.03 812.223,1128.16C810.014,1134.21 808.015,1140.47 806.229,1146.93C803.513,1156.76 801.036,1166.41 798.799,1175.86ZM1016.83,1182.48C1020.44,1196.48 1024.34,1210.64 1028.58,1224.54C1036.98,1221.06 1045.56,1217.44 1054.21,1213.8C1054.88,1213.52 1055.54,1213.23 1056.21,1212.95C1062.05,1203.59 1067.63,1193.96 1072.92,1184.09C1054.71,1181.81 1035.77,1181.47 1016.83,1182.48ZM846.714,1219.63C849.292,1221.36 851.877,1223.03 854.467,1224.64C856.931,1221 859.487,1217.45 862.132,1213.99C856.994,1215.67 851.893,1217.38 846.84,1219.13C846.798,1219.29 846.755,1219.47 846.714,1219.63ZM796.984,1183.72C792.98,1201.51 789.843,1218.62 787.575,1235.02C801.739,1229.07 816.917,1223.1 832.695,1217.4C819.894,1207.8 807.624,1196.6 796.984,1183.72ZM977.998,1186.29C980.562,1204.68 982.777,1223.29 984.822,1241.88C996.635,1237.55 1009.41,1232.46 1022.7,1226.98C1018.34,1212.7 1014.27,1197.9 1010.4,1182.87C999.521,1183.62 988.677,1184.8 977.998,1186.29ZM1030.47,1230.64C1031.92,1235.24 1033.42,1239.81 1034.95,1244.33C1040.19,1237.21 1045.27,1229.89 1050.19,1222.38C1043.5,1225.2 1036.91,1227.96 1030.47,1230.64ZM731.542,1170.23C737.988,1199.27 749.296,1224.35 765.284,1244.77C770.275,1242.5 775.451,1240.21 780.79,1237.91C783.311,1218.65 787.026,1198.45 791.937,1177.31C785.759,1169.09 780.259,1160.23 775.687,1150.71C770.536,1139.99 766.818,1128.97 764.532,1117.67C752.892,1131.09 742.348,1147.35 733.561,1165.87C732.875,1167.31 732.201,1168.77 731.542,1170.23ZM845.172,1226.17C843.731,1232.69 842.572,1239.24 841.703,1245.78C842.134,1244.97 842.571,1244.17 843.014,1243.36C845.549,1238.76 848.213,1234.27 851.002,1229.9C849.058,1228.69 847.112,1227.45 845.172,1226.17ZM941.205,1192.72C942.261,1195.41 943.312,1198.1 944.359,1200.79C950.944,1217.66 957.408,1234.22 964.156,1248.92C968.771,1247.5 973.622,1245.88 978.676,1244.09C976.592,1225.06 974.335,1206.02 971.713,1187.21C961.307,1188.8 951.098,1190.67 941.205,1192.72ZM859.912,1227.93C877.036,1237.98 893.928,1245.32 907.971,1250.12C908.341,1240.92 908.275,1232.86 907.818,1226.24C907.253,1218.07 905.258,1210 901.889,1202.12C892.237,1204.73 882.592,1207.54 873.038,1210.52C868.407,1216.06 864.03,1221.87 859.912,1227.93ZM1161.18,1211.21C1175.31,1222.28 1186.92,1235.88 1195.95,1251.96C1214.78,1221.83 1229.95,1190.02 1240.47,1158.86C1218.99,1161.13 1194.52,1167.42 1169,1175.79C1168.49,1187.58 1165.82,1199.52 1161.18,1211.21ZM914.229,1252.15C917.688,1253.22 920.924,1254.11 923.882,1254.83C931.472,1256.67 943.318,1254.89 958.022,1250.74C951.311,1236.06 944.933,1219.72 938.444,1203.1C937.27,1200.09 936.093,1197.07 934.909,1194.06C925.614,1196.08 916.633,1198.25 908.092,1200.47C911.52,1208.73 913.56,1217.2 914.153,1225.8C914.652,1233.03 914.698,1241.94 914.229,1252.15ZM769.442,1249.85C770.717,1251.34 772.021,1252.81 773.35,1254.25C775.004,1256.04 776.699,1257.78 778.433,1259.47C778.84,1254.78 779.325,1250.03 779.886,1245.22C776.326,1246.77 772.84,1248.32 769.442,1249.85ZM1250.69,1158.08C1253.72,1169.21 1256.13,1180.59 1257.89,1192.19C1261.48,1215.81 1264.29,1238.56 1266.31,1260.39C1279.2,1228.96 1285.93,1194.22 1285.22,1162.05C1275.36,1158.66 1263.68,1157.5 1250.69,1158.08ZM727.378,1180.04C715.407,1210.01 708.924,1243.04 708.726,1275.29C713.042,1271.92 717.75,1268.8 722.846,1265.95C732.99,1260.28 745.356,1254 759.36,1247.49C744.833,1228.57 734.124,1205.91 727.378,1180.04ZM966.884,1254.73C971.91,1265.17 977.118,1274.49 982.67,1282.08C981.598,1271.62 980.513,1261.11 979.381,1250.59C975.06,1252.1 970.893,1253.49 966.884,1254.73ZM784.343,1264.92C795.864,1274.96 808.933,1283.07 823.335,1289.16C826.105,1280.55 829.536,1271.37 833.786,1261.89C834.554,1248.75 836.482,1235.5 839.53,1222.35C839.323,1222.2 839.119,1222.06 838.911,1221.91C820.494,1228.47 802.843,1235.41 786.618,1242.32C785.663,1250.01 784.905,1257.55 784.343,1264.92ZM1037.47,1251.58C1039.96,1258.59 1042.56,1265.46 1045.29,1272.12C1047.87,1278.44 1050.51,1284.43 1053.2,1290.09C1077.11,1263.53 1092.56,1240.07 1096.4,1225.22C1098.18,1218.36 1099.73,1210.27 1100.88,1201.24C1087.17,1206.82 1073.62,1212.51 1060.53,1218.03C1053.22,1229.65 1045.52,1240.86 1037.47,1251.58ZM829.309,1291.54C830.925,1292.14 832.56,1292.73 834.207,1293.29C833.807,1288.73 833.557,1284.14 833.457,1279.52C831.927,1283.62 830.55,1287.64 829.309,1291.54ZM989.943,1290.77C990.895,1291.74 991.861,1292.67 992.835,1293.54C1005.97,1280.41 1018.52,1265.98 1030.34,1250.48C1028.36,1244.79 1026.45,1238.97 1024.59,1233.07C1010.74,1238.78 997.616,1244.01 985.533,1248.4C986.99,1261.89 988.369,1275.38 989.737,1288.76C989.806,1289.43 989.874,1290.1 989.943,1290.77ZM1056.2,1296.23C1056.37,1296.57 1056.55,1296.91 1056.72,1297.25C1078.11,1290.54 1099.49,1278.27 1117.7,1261.68C1133.63,1247.17 1145.78,1230.57 1153.42,1213.34C1143.97,1206.47 1133.42,1200.73 1121.79,1196.12C1120.41,1195.57 1119.03,1195.04 1117.63,1194.53C1114.28,1195.85 1110.93,1197.19 1107.59,1198.53C1106.38,1209.27 1104.62,1218.84 1102.55,1226.81C1098.3,1243.24 1081.43,1268.5 1056.2,1296.23ZM840.781,1295.35C857.345,1300.19 875.36,1302.66 894.569,1302.66C897.134,1302.66 899.773,1302.75 902.478,1302.92C905.158,1285.94 906.837,1270.27 907.642,1256.7C892.851,1251.76 874.772,1244 856.437,1233.19C853.691,1237.49 851.071,1241.9 848.577,1246.43C845.422,1252.16 842.594,1257.86 840.056,1263.47C839.487,1274.23 839.721,1284.9 840.781,1295.35ZM997.891,1297.46C1002.32,1300.4 1007,1302.21 1011.97,1302.68C1022,1303.61 1032.6,1302.9 1043.36,1300.71C1045.12,1298.86 1046.84,1297.03 1048.53,1295.21C1042.88,1283.54 1037.69,1270.92 1032.86,1257.61C1021.78,1271.88 1010.09,1285.22 997.891,1297.46ZM908.811,1303.46C925.73,1305.25 945.044,1310.09 966.16,1317.75C972.087,1312.88 977.926,1307.76 983.679,1302.39C984.005,1302.08 984.33,1301.78 984.656,1301.47C984.382,1298.81 984.108,1296.13 983.834,1293.45C975.369,1284.18 967.845,1271.38 960.747,1256.56C944.446,1261.22 931.264,1263.16 922.381,1261C919.747,1260.36 916.897,1259.58 913.871,1258.68C913.025,1271.95 911.375,1287.11 908.811,1303.46ZM973.018,1320.31C977.676,1322.1 982.416,1324.02 987.231,1326.07C986.638,1320.54 986.054,1314.98 985.473,1309.38C981.365,1313.15 977.213,1316.79 973.018,1320.31ZM568.208,1234.69C568.234,1235.31 568.264,1235.93 568.297,1236.55C569.928,1266.75 579.924,1293.13 598.008,1314.94C602.641,1320.53 607.807,1325.82 613.491,1330.8C613.938,1311.77 616.226,1292.24 620.377,1272.33C632.281,1215.27 656.691,1158.58 691.119,1107.94C679.249,1108.53 667.654,1109.92 656.462,1112.11C630.831,1117.12 607.023,1138.65 589.425,1172.73C579.951,1191.08 572.733,1212.36 568.208,1234.69ZM1199.38,1258.43C1203.16,1266.01 1206.41,1274.09 1209.13,1282.68C1214.28,1298.96 1217.86,1315.18 1219.89,1331.22C1234.77,1316.86 1248.06,1298.4 1258.89,1276.75C1259.6,1275.32 1260.3,1273.89 1260.98,1272.45C1258.94,1247.26 1255.82,1220.82 1251.61,1193.15C1250.09,1183.11 1248.07,1173.25 1245.57,1163.57C1234.56,1195.42 1218.83,1227.84 1199.38,1258.43ZM993.933,1328.99C998.353,1330.95 1002.83,1333.01 1007.36,1335.18C1017.58,1326.18 1027.11,1317.2 1035.87,1308.39C1027.49,1309.51 1019.28,1309.73 1011.38,1309C1004.87,1308.39 998.887,1305.94 993.313,1301.98C992.639,1302.63 991.969,1303.28 991.293,1303.93C992.163,1312.37 993.037,1320.72 993.933,1328.99ZM994.734,1336.29C995.065,1339.27 995.399,1342.23 995.738,1345.18C997.901,1343.36 1000.04,1341.54 1002.15,1339.72C999.66,1338.55 997.189,1337.4 994.734,1336.29ZM1059.7,1302.93C1070.87,1323.63 1082.94,1339.07 1096.14,1349.55C1100.2,1347.54 1104.04,1345.8 1107.64,1344.41C1130.63,1335.51 1162.35,1303.39 1190.42,1260.6C1190.96,1259.76 1191.51,1258.93 1192.05,1258.09C1183.48,1241.97 1172.31,1228.35 1158.59,1217.29C1150.56,1234.84 1138.13,1251.66 1121.98,1266.37C1103.41,1283.29 1081.62,1295.87 1059.7,1302.93ZM907.792,1309.73C905.039,1326.09 901.389,1343.5 896.732,1361.33C918.813,1351.35 940.078,1338.34 960.371,1322.4C941.026,1315.62 923.33,1311.33 907.792,1309.73ZM619.772,1336C634.824,1347.82 653.065,1357.71 674.346,1365.58C673.116,1353.5 673.393,1342.12 675.211,1331.63C678.746,1311.25 687.86,1294.19 702.398,1280.68C701.777,1242.53 709.509,1204.36 724.895,1169.54C720.852,1150.55 718.818,1129.96 718.842,1107.98C712.176,1107.64 705.559,1107.53 699.013,1107.66C663.653,1158.59 638.631,1215.92 626.594,1273.63C622.153,1294.92 619.889,1315.76 619.772,1336ZM1101.94,1353.79C1104.7,1355.64 1107.5,1357.28 1110.35,1358.72C1131.43,1369.34 1154.8,1368.85 1181.79,1357.24C1193.05,1352.39 1203.91,1345.4 1214.11,1336.52C1212.26,1319.39 1208.59,1302.03 1203.07,1284.59C1200.86,1277.61 1198.28,1270.97 1195.34,1264.68C1166.25,1308.88 1134.36,1340.88 1109.93,1350.33C1107.4,1351.31 1104.73,1352.47 1101.94,1353.79ZM1013.52,1338.18C1027.77,1345.22 1042.52,1353.24 1057.65,1362.21C1060.29,1363.77 1062.92,1365.35 1065.55,1366.96C1074.29,1361.58 1082.46,1356.76 1089.97,1352.74C1075.89,1340.93 1063.88,1324.47 1053.4,1304.81C1051.13,1305.43 1048.87,1305.99 1046.61,1306.49C1036.36,1317.13 1025.24,1327.78 1013.52,1338.18ZM1291.43,1157.63C1294.58,1158.97 1297.5,1160.52 1300.22,1162.29C1316.99,1173.22 1325.73,1192.7 1326.18,1220.17C1327.04,1272.58 1314.38,1323.3 1290.2,1367.71C1321.57,1343.71 1340.45,1322.86 1343.87,1318.98C1352.91,1264 1348.43,1206.57 1330.54,1147.81C1314.94,1139.8 1301.43,1133.49 1288.08,1128.7C1289.73,1137.18 1290.81,1145.99 1291.31,1155.05C1291.36,1155.91 1291.4,1156.77 1291.43,1157.63ZM841.599,1302.2C845.201,1328.29 854.138,1352.2 867.797,1372.51C875.042,1370.17 882.216,1367.51 889.303,1364.55C894.481,1345.42 898.485,1326.7 901.447,1309.21C899.098,1309.08 896.806,1309.01 894.569,1309.01C875.742,1309.01 858.011,1306.71 841.599,1302.2ZM681.026,1367.94C683,1368.61 684.995,1369.27 687.018,1369.9C699.765,1373.92 712.417,1377.17 724.948,1379.64C711.86,1351.64 704.277,1321.07 702.686,1289.37C691.518,1301.26 684.409,1315.76 681.468,1332.72C679.59,1343.55 679.48,1355.39 681.026,1367.94ZM1267.45,1273.62C1270.59,1313.29 1271.06,1349.85 1268.85,1383.09C1271.79,1381.1 1274.64,1379.12 1277.42,1377.14C1305.75,1330.83 1320.76,1276.55 1319.83,1220.27C1319.41,1194.68 1311.86,1177.46 1296.75,1167.61C1295.12,1166.54 1293.4,1165.57 1291.61,1164.7C1291.93,1200.69 1283.33,1239.56 1267.45,1273.62ZM827.448,1297.63C819.033,1326.42 818.14,1347.4 818.128,1347.72L818.104,1348.01C816.529,1360.18 815.643,1372.12 815.443,1383.82C828.723,1382.31 841.801,1379.84 854.668,1376.39C856.945,1375.78 859.212,1375.14 861.475,1374.47C847.382,1352.96 838.317,1327.7 834.937,1300.22C832.405,1299.41 829.912,1298.55 827.448,1297.63ZM783.813,1272.79C781.301,1315.99 785.719,1353.56 797.06,1385.28C801.082,1385.1 805.092,1384.83 809.081,1384.47C809.259,1372.34 810.161,1359.95 811.788,1347.34C811.886,1344.98 812.979,1323.89 821.449,1295.27C807.697,1289.52 795.097,1282 783.813,1272.79ZM732.677,1381.07C752.235,1384.45 771.502,1385.93 790.414,1385.51C778.881,1352.21 774.674,1312.84 777.798,1267.6C774.645,1264.73 771.607,1261.72 768.688,1258.56C766.894,1256.62 765.145,1254.63 763.445,1252.59C749.023,1259.26 736.312,1265.7 725.946,1271.5C719.584,1275.05 713.87,1279.05 708.812,1283.47C708.831,1284.17 708.853,1284.86 708.877,1285.56C710.085,1319.24 718.224,1351.69 732.677,1381.07ZM871.625,1377.94C874.359,1381.64 877.261,1385.21 880.323,1388.64C880.786,1389.16 881.255,1389.68 881.725,1390.19C883.579,1384.43 885.389,1378.47 887.153,1372.29C882.017,1374.33 876.843,1376.21 871.625,1377.94ZM1268.26,1391.12L1268.26,1391.16L1268.31,1391.09L1268.26,1391.12ZM996.614,1352.69C998.791,1371.03 1001.17,1388.73 1003.96,1405.51C1016.66,1397.81 1028.86,1390.07 1040.32,1382.8C1046.95,1378.6 1053.35,1374.54 1059.49,1370.71C1057.8,1369.69 1056.11,1368.68 1054.41,1367.67C1038.57,1358.29 1023.17,1349.95 1008.37,1342.71C1004.5,1346.07 1000.58,1349.4 996.614,1352.69ZM886.714,1395.38C891.866,1400.49 897.398,1405.25 903.305,1409.67C921.911,1399.14 938.244,1388.48 951.524,1379.16C964.986,1369.71 977.828,1359.92 989.905,1350.02C989.26,1344.5 988.632,1338.92 988.016,1333.3C980.965,1330.23 974.083,1327.44 967.381,1324.94C944.318,1343.49 919.993,1358.28 894.616,1369.2C892.083,1378.37 889.441,1387.09 886.714,1395.38ZM1220.76,1339.09C1223.19,1364.58 1221.69,1389.57 1216.33,1413.59C1225.9,1408.91 1235.39,1403.81 1244.78,1398.3C1250.82,1394.75 1256.62,1391.14 1262.18,1387.52C1264.53,1356.27 1264.44,1321.96 1261.9,1284.76C1250.39,1306.48 1236.38,1324.9 1220.76,1339.09ZM799.411,1391.53C802.533,1399.41 806.104,1406.91 810.124,1414.02C809.46,1406.41 809.104,1398.69 809.054,1390.85C805.851,1391.13 802.636,1391.36 799.411,1391.53ZM884.468,1402.05C881.826,1409.73 879.115,1417.02 876.35,1423.95C883.562,1420.39 890.547,1416.74 897.253,1413.05C892.779,1409.58 888.516,1405.92 884.468,1402.05ZM908.985,1413.74C921.456,1422.27 935.46,1429.37 950.937,1435.01C967.059,1427.05 982.91,1418.12 998.109,1409.04C995.329,1392.63 992.954,1375.35 990.79,1357.46C979.207,1366.84 967.256,1375.88 955.172,1384.36C942.358,1393.35 926.738,1403.57 908.985,1413.74ZM1071.62,1370.69C1103.59,1390.57 1134.6,1413.03 1161.42,1435.57C1177.43,1430.55 1193.29,1424.39 1208.95,1417.11C1214.74,1393.66 1216.73,1369.2 1214.82,1344.22C1205.13,1352.16 1194.89,1358.51 1184.3,1363.07C1155.88,1375.3 1130.03,1375.74 1107.49,1364.39C1103.32,1362.29 1099.31,1359.82 1095.45,1357.02C1088.19,1360.8 1080.21,1365.45 1071.62,1370.69ZM564.507,1258.06C563.355,1268.1 562.754,1278.21 562.742,1288.24C562.689,1329.89 572.307,1367.36 590.555,1396.6C601.967,1414.89 616.364,1429.47 633.606,1440.27C620.351,1408.86 613.567,1374.83 613.413,1338.96C590.137,1319.97 571.364,1293.88 564.507,1258.06ZM817.909,1426.51C821.958,1432.41 826.375,1438.02 831.153,1443.34C843.847,1438.72 856.109,1433.54 867.822,1428.05C871.812,1418.49 875.712,1408.18 879.462,1397.06C878.145,1395.68 876.854,1394.29 875.586,1392.87C871.913,1388.76 868.464,1384.45 865.245,1379.96C862.281,1380.87 859.301,1381.72 856.313,1382.52C842.896,1386.12 829.249,1388.68 815.402,1390.22C815.457,1402.61 816.293,1414.71 817.909,1426.51ZM820.161,1440.2C820.581,1442.38 821.03,1444.56 821.506,1446.72C822.572,1446.36 823.634,1446 824.695,1445.63C823.146,1443.85 821.634,1442.04 820.161,1440.2ZM959.372,1437.88C967.16,1440.37 975.292,1442.51 983.767,1444.29C991.191,1445.85 998.625,1447.18 1006.06,1448.26C1003.54,1437.92 1001.3,1427.05 999.277,1415.73C986.365,1423.41 972.991,1430.96 959.372,1437.88ZM1012.83,1449.18C1052.32,1454.14 1091.88,1452.33 1130.84,1443.74C1138.63,1442.02 1146.41,1440.03 1154.15,1437.77C1127.55,1415.69 1096.99,1393.77 1065.56,1374.41C1058.62,1378.72 1051.32,1383.35 1043.72,1388.17C1031.58,1395.86 1018.62,1404.08 1005.11,1412.24C1007.38,1425.18 1009.92,1437.54 1012.83,1449.18ZM736.291,1388.11C740.824,1396.57 745.894,1404.76 751.488,1412.63C764.905,1431.5 780.333,1445.19 797.931,1453.76C803.83,1452.22 809.671,1450.52 815.439,1448.69C813.986,1442.18 812.781,1435.57 811.823,1428.85C811.456,1428.31 811.092,1427.76 810.731,1427.21C803.601,1416.36 797.592,1404.55 792.709,1391.81C774.213,1392.36 755.388,1391.12 736.291,1388.11ZM1214.4,1421.57C1211.01,1434.53 1206.49,1447.18 1200.84,1459.46C1208.71,1453.83 1216.31,1447.78 1223.63,1441.31C1237.45,1429.08 1249.94,1415.62 1260.98,1401.15C1261.16,1399.28 1261.35,1397.39 1261.52,1395.5C1257.15,1398.28 1252.64,1401.04 1247.99,1403.77C1236.93,1410.27 1225.72,1416.21 1214.4,1421.57ZM807.293,1457.76C810.964,1459.12 814.724,1460.28 818.574,1461.23C817.988,1459.12 817.43,1457 816.899,1454.87C813.715,1455.88 810.518,1456.84 807.293,1457.76ZM835.853,1448.36C840.715,1453.34 845.92,1458.05 851.461,1462.48C855.697,1454.64 859.921,1446.09 864.074,1436.75C854.96,1440.86 845.532,1444.77 835.853,1448.36ZM642.914,1445.59C655.076,1451.9 668.494,1456.52 683.125,1459.42C691.842,1461.15 700.589,1462.3 709.327,1462.93C702.987,1451.98 697.385,1441.03 692.606,1430.21C683.694,1410.03 677.865,1390.64 675.226,1372.64C656.625,1366 637.227,1356.77 619.837,1343.94C620.641,1380.09 628.39,1414.27 642.914,1445.59ZM1167.12,1440.42C1175.97,1448.04 1184.31,1455.64 1192.03,1463.14C1198.15,1450.83 1203.09,1438.11 1206.83,1425.06C1193.72,1430.95 1180.47,1436.08 1167.12,1440.42ZM716.898,1463.36C741.213,1464.32 765.389,1461.43 788.75,1456.02C772.839,1446.92 758.632,1433.63 746.313,1416.31C739.613,1406.89 733.642,1397.01 728.427,1386.77C714.125,1384.16 699.681,1380.55 685.108,1375.96C684.093,1375.64 683.076,1375.31 682.052,1374.98C686.634,1402.23 698.611,1432.55 716.898,1463.36ZM872.732,1432.74C867.835,1444.27 862.809,1454.72 857.764,1464.15C868.085,1463.37 878.914,1461.5 890.274,1458.53C907.781,1453.96 925.536,1447.03 943.049,1438.8C928.279,1432.96 914.858,1425.75 902.848,1417.21C893.334,1422.5 883.267,1427.73 872.732,1432.74ZM825.604,1462.72C831.504,1463.77 837.614,1464.37 843.921,1464.52C838.755,1460.17 833.884,1455.57 829.313,1450.73C827.206,1451.47 825.084,1452.2 822.955,1452.91C823.771,1456.21 824.655,1459.48 825.604,1462.72ZM827.699,1469.5C828.854,1473.05 830.089,1476.56 831.407,1480.04C832.596,1483.18 833.847,1486.28 835.158,1489.33C838.965,1483.76 842.839,1477.65 846.726,1470.94C840.19,1470.92 833.856,1470.44 827.699,1469.5ZM1267.11,1403.58C1265.59,1418.05 1263.52,1431.83 1260.9,1444.9C1256.88,1464.92 1251.56,1483.36 1244.94,1500.19C1253.59,1492.78 1261.9,1484.69 1269.77,1475.98C1305.8,1436.11 1330.66,1385.88 1341.75,1330.58C1331.5,1341.2 1311.05,1360.87 1282.16,1381.55C1277.49,1389.11 1272.47,1396.46 1267.11,1403.58ZM1198.08,1469.12C1200.89,1471.96 1203.61,1474.78 1206.23,1477.57C1215.24,1487.2 1225.06,1498.78 1232.38,1510.29C1233.09,1509.75 1233.8,1509.21 1234.52,1508.66C1243.12,1489.34 1249.86,1467.61 1254.67,1443.65C1256.64,1433.87 1258.28,1423.68 1259.62,1413.09C1249.98,1424.84 1239.36,1435.87 1227.84,1446.06C1218.37,1454.44 1208.44,1462.13 1198.08,1469.12ZM1014.55,1455.78C1015.03,1457.57 1015.52,1459.34 1016.02,1461.09C1022.18,1482.66 1029.51,1500.07 1038.22,1513.63C1093.1,1511.47 1144.22,1495.96 1188.04,1468.11C1179.43,1459.72 1170.01,1451.19 1159.98,1442.66C1150.76,1445.46 1141.5,1447.89 1132.21,1449.94C1093.36,1458.5 1053.91,1460.46 1014.55,1455.78ZM861.868,1470.19C891.403,1490.51 929.225,1503.97 974.983,1510.37C993.916,1513.02 1012.58,1514.16 1030.86,1513.84C1022.69,1500.25 1015.77,1483.32 1009.91,1462.83C1009.17,1460.23 1008.44,1457.59 1007.74,1454.91C999.308,1453.75 990.877,1452.28 982.458,1450.5C971.534,1448.2 961.149,1445.33 951.324,1441.89C931.704,1451.43 911.674,1459.5 891.879,1464.68C881.404,1467.41 871.422,1469.25 861.868,1470.19ZM720.828,1469.83C732.603,1488.79 746.73,1507.87 762.964,1526.47C767.967,1532.2 774.51,1537.6 782.477,1542.64C792.162,1536.5 801.471,1528.89 810.377,1519.83C816.645,1513.45 823.607,1505.42 830.883,1495.4C828.959,1491.11 827.155,1486.74 825.468,1482.29C823.713,1477.65 822.098,1472.96 820.624,1468.2C818.336,1467.71 816.072,1467.15 813.833,1466.52C808.163,1464.94 802.66,1462.92 797.331,1460.45C772.593,1466.75 746.825,1470.41 720.828,1469.83ZM1193.69,1473.71C1186.76,1486.42 1178.56,1498.68 1169.12,1510.39C1156.71,1525.78 1142.39,1539.89 1126.48,1552.47C1143.68,1551.37 1161.41,1547.33 1179.13,1540.39C1195.7,1533.89 1211.89,1525 1227.26,1514.04C1221.25,1504.53 1212.62,1493.69 1201.59,1481.91C1199.05,1479.2 1196.42,1476.46 1193.69,1473.71ZM1042.47,1519.8C1053.9,1535.21 1067.55,1544.68 1083.85,1548.77C1094.08,1551.34 1104.73,1552.67 1115.65,1552.77C1133.96,1539.19 1150.29,1523.62 1164.18,1506.4C1171.52,1497.3 1178.08,1487.86 1183.86,1478.13C1141.91,1503.02 1093.84,1517.17 1042.47,1519.8ZM647.444,1454.84C653.463,1466.5 660.455,1477.74 668.409,1488.51C688.676,1515.96 714.775,1539.56 745.265,1558.58C755.995,1556 766.373,1551.9 776.366,1546.29C769.086,1541.41 763.015,1536.19 758.179,1530.65C740.979,1510.94 725.814,1490.28 713.243,1469.54C702.791,1468.98 692.334,1467.72 681.892,1465.65C669.579,1463.21 658.09,1459.6 647.444,1454.84ZM836.004,888.717C829.064,889.224 822.551,890.006 816.313,890.931C779.437,896.395 744.261,910.731 711.761,933.541C673.968,960.065 638.484,998.922 606.296,1049.03C565.451,1112.62 542.194,1187.31 539.04,1265.01C536.194,1335.11 550.044,1403.76 578.039,1458.32C593.874,1489.18 613.256,1513.87 635.648,1531.69C658.893,1550.2 684.206,1560.28 710.882,1561.66C719.536,1562.11 728.005,1561.68 736.275,1560.37C707.517,1541.57 682.784,1518.67 663.301,1492.28C653.441,1478.93 645.026,1464.89 638.068,1450.23C616.514,1438.62 598.81,1421.82 585.167,1399.96C566.288,1369.71 556.337,1331.08 556.392,1288.23C556.415,1270.21 558.297,1251.9 561.833,1234.21C559.871,1182.6 581.136,1122.85 621.904,1065.6C660.999,1010.7 712.049,966.656 761.966,944.766C767.544,942.319 773.049,940.177 778.473,938.34C785.594,930.168 793.324,922.358 801.638,914.938C812.185,905.527 823.7,896.757 836.004,888.717ZM1233.46,1525.36C1226,1539.54 1217.41,1552.3 1207.71,1563.63C1226.27,1556.76 1236.69,1548.84 1237.2,1541.13C1237.49,1536.78 1236.21,1531.48 1233.46,1525.36ZM788.575,1546.26C813.248,1560.08 849.284,1570.87 894.049,1577.86C893.733,1577.6 893.42,1577.34 893.105,1577.08C867.962,1556.33 848.125,1531.13 833.941,1501.95C827.205,1510.96 820.761,1518.32 814.906,1524.28C806.476,1532.86 797.69,1540.19 788.575,1546.26ZM1117.73,1559.12C1104.18,1569.02 1089.6,1577.85 1074.17,1585.49C1121.88,1582.86 1165.08,1576.68 1195.48,1567.67C1201.47,1561.52 1207.05,1554.88 1212.22,1547.75C1218.23,1539.46 1223.73,1530.47 1228.71,1520.78C1213.58,1531.33 1197.7,1539.93 1181.44,1546.3C1159.97,1554.72 1138.42,1559.02 1117.73,1559.12ZM906.806,1579.71C926.075,1582.32 946.808,1584.26 968.823,1585.48C998.443,1587.12 1028.57,1587.33 1057.44,1586.26C1075.11,1578.59 1091.78,1569.38 1107.19,1558.81C1098.69,1558.25 1090.38,1556.96 1082.31,1554.93C1063.26,1550.15 1047.65,1538.8 1034.87,1520.1C1015.02,1520.67 994.722,1519.54 974.104,1516.66C924.814,1509.77 884.452,1494.8 853.43,1472C848.299,1481.01 843.182,1489.01 838.187,1496.1C852.061,1525.76 871.84,1551.3 897.147,1572.18C900.296,1574.78 903.515,1577.29 906.806,1579.71ZM918.122,1587.51C932.521,1596.8 948.041,1604.48 964.343,1610.39C990.217,1607.83 1015.8,1602.02 1040.32,1593.09C1016.64,1593.54 992.389,1593.14 968.471,1591.82C951.053,1590.85 934.197,1589.41 918.122,1587.51ZM752.828,1563.15C796.646,1588.81 848.888,1605.31 905.568,1610.59C920.262,1611.96 935.066,1612.25 949.82,1611.49C933.667,1604.59 918.379,1595.96 904.298,1585.74C881.443,1582.59 860.414,1578.49 841.919,1573.55C817.69,1567.07 797.809,1559.23 782.451,1550.12C772.916,1555.8 763.034,1560.15 752.828,1563.15ZM978.616,1615.06C986.683,1617.42 994.907,1619.35 1003.26,1620.85C1043.13,1628.01 1084.82,1624.97 1123.81,1612.06C1147.36,1604.27 1168.1,1592.49 1185.82,1576.88C1152.42,1585.22 1107.4,1590.68 1058.89,1592.55C1056.99,1593.37 1055.08,1594.17 1053.16,1594.95C1029.21,1604.67 1004.11,1611.42 978.616,1615.06ZM1045.96,1630.98C1031.25,1630.98 1016.58,1629.69 1002.13,1627.1C988.924,1624.73 976.012,1621.29 963.535,1616.85C944.055,1618.69 924.431,1618.73 904.979,1616.91C845.007,1611.32 789.884,1593.35 744.168,1565.36C733.301,1567.72 722.089,1568.6 710.554,1568C682.528,1566.55 655.995,1556.01 631.693,1536.66C608.591,1518.27 588.638,1492.89 572.389,1461.22C543.902,1405.7 529.805,1335.93 532.694,1264.76C535.895,1185.92 559.499,1110.14 600.954,1045.6C633.589,994.794 669.643,955.342 708.113,928.342C741.429,904.96 777.52,890.26 815.382,884.649C825.962,883.081 836.417,882.236 846.734,882.009C879.726,862.286 917.687,847.607 957.567,839.449C1004.23,829.904 1075.19,827.696 1148.25,871.386C1224.19,916.809 1284.96,1001.34 1328.85,1122.64C1331.36,1129.58 1333.68,1136.5 1335.83,1143.4C1345.9,1148.61 1356.77,1154.46 1368.91,1161L1369.71,1161.43C1407.64,1181.87 1466.83,1198.23 1528.03,1205.19C1579.05,1210.98 1654.84,1213.01 1726.12,1189.72C1792.73,1167.95 1839.79,1129.05 1866,1074.08L1871.73,1076.81C1844.75,1133.41 1796.42,1173.43 1728.09,1195.75C1655.73,1219.4 1578.96,1217.37 1527.31,1211.5C1465.35,1204.45 1405.31,1187.83 1366.69,1167.02L1365.9,1166.6C1355.91,1161.21 1346.82,1156.31 1338.38,1151.88C1356.02,1212.77 1359.44,1272.27 1348.5,1329.15C1337.46,1386.63 1311.86,1438.87 1274.48,1480.24C1263.61,1492.27 1251.93,1503.14 1239.65,1512.71C1238.8,1514.59 1237.92,1516.45 1237.03,1518.29C1241.4,1526.6 1244,1534.62 1243.54,1541.55C1242.79,1552.92 1229.87,1562.93 1205.14,1571.28C1203.1,1571.97 1201,1572.64 1198.82,1573.3C1178.67,1593.7 1154.3,1608.66 1125.81,1618.09C1099.93,1626.66 1072.9,1630.98 1045.96,1630.98Z" style="fill:rgb(43,71,139);fill-rule:nonzero;"/>
    </g>
    <g transform="matrix(0.173119,0,0,0.173119,-30.8058,-51.4921)">
        <path d="M804.446,637.451C822.206,568.425 852.229,508.398 933.498,508.398C1004.77,508.398 1069.42,571.184 1064.72,648.559C1060.4,719.702 998.621,779.963 922.994,771.493C852.162,763.56 784.109,716.485 804.446,637.451Z" style="fill:rgb(175,205,251);fill-rule:nonzero;"/>
    </g>
    <g transform="matrix(0.173119,0,0,0.173119,-30.8058,-51.4921)">
        <path d="M928.319,736.072C923.072,736.072 919.036,734.601 916.215,731.659C913.392,728.719 911.981,725.061 911.981,720.688C911.981,718.463 912.34,716.394 913.055,714.486C913.769,712.577 914.823,710.908 916.215,709.477C917.605,708.046 919.316,706.933 921.343,706.138C923.371,705.344 925.696,704.945 928.319,704.945C930.943,704.945 933.27,705.344 935.297,706.138C937.324,706.933 939.032,708.046 940.424,709.477C941.814,710.908 942.889,712.577 943.645,714.486C944.399,716.394 944.778,718.463 944.778,720.688C944.778,725.061 943.347,728.719 940.484,731.659C937.622,734.601 933.567,736.072 928.319,736.072ZM941.081,683.597L914.009,683.597C914.009,677.953 914.346,673.043 915.023,668.869C915.696,664.694 916.811,660.878 918.361,657.42C919.911,653.961 921.919,650.682 924.383,647.581C926.847,644.48 929.869,641.181 933.449,637.683C936.149,635.058 938.674,632.574 941.02,630.228C943.364,627.884 945.433,625.479 947.222,623.014C949.012,620.549 950.422,617.925 951.455,615.142C952.49,612.359 953.005,609.259 953.005,605.84C953.005,598.367 951.157,592.662 947.462,588.727C943.763,584.79 938.337,582.823 931.182,582.823C928.319,582.823 925.536,583.222 922.834,584.015C920.13,584.811 917.705,586.084 915.559,587.832C913.413,589.581 911.684,591.808 910.371,594.51C909.059,597.215 908.404,600.474 908.404,604.29L879.424,604.29C879.502,596.817 880.872,590.237 883.537,584.552C886.2,578.868 889.858,574.098 894.51,570.241C899.16,566.385 904.606,563.484 910.848,561.534C917.088,559.589 923.866,558.614 931.182,558.614C939.212,558.614 946.366,559.647 952.649,561.714C958.93,563.782 964.256,566.803 968.629,570.777C973.001,574.754 976.321,579.602 978.588,585.327C980.854,591.052 981.986,597.533 981.986,604.767C981.986,610.014 981.152,614.904 979.482,619.436C977.813,623.968 975.586,628.223 972.804,632.195C970.019,636.172 966.839,639.989 963.263,643.646C959.685,647.304 955.987,650.921 952.172,654.498C947.798,658.475 944.876,662.828 943.406,667.557C941.934,672.288 941.157,677.634 941.081,683.597Z" style="fill:rgb(239,245,254);fill-rule:nonzero;"/>
    </g>
    <g transform="matrix(0.173119,0,0,0.173119,-30.8058,-51.4921)">
        <path d="M1287.18,476.195L1171.38,509.478L1242.35,445.137L1248.72,461.713L1278.17,462.921L1287.18,476.195Z" style="fill:rgb(234,190,150);fill-rule:nonzero;"/>
    </g>
    <g transform="matrix(0.173119,0,0,0.173119,-30.8058,-51.4921)">
        <path d="M1171.38,509.478L1262.64,445.117L1358.33,426.869L1171.38,509.478Z" style="fill:rgb(249,221,191);fill-rule:nonzero;"/>
    </g>
    <g transform="matrix(0.173119,0,0,0.173119,-30.8058,-51.4921)">
        <path d="M1242.35,445.137L1171.38,509.478L1220.46,417.521L1242.35,445.137Z" style="fill:rgb(249,221,191);fill-rule:nonzero;"/>
    </g>
    <g transform="matrix(0.173119,0,0,0.173119,-30.8058,-51.4921)">
        <path d="M2303.96,953.042L2424.65,970.229L2344.55,915.66L2340.48,933.161L2311.13,938.483L2303.96,953.042Z" style="fill:rgb(237,203,171);fill-rule:nonzero;"/>
    </g>
    <g transform="matrix(0.173119,0,0,0.173119,-30.8058,-51.4921)">
        <path d="M2424.65,970.229L2324.21,918.473L2225.77,913.545L2424.65,970.229Z" style="fill:rgb(249,221,191);fill-rule:nonzero;"/>
    </g>
    <g transform="matrix(0.173119,0,0,0.173119,-30.8058,-51.4921)">
        <path d="M2344.55,915.66L2424.65,970.229L2362.63,884.929L2344.55,915.66Z" style="fill:rgb(249,221,191);fill-rule:nonzero;"/>
    </g>
    <g transform="matrix(0.173119,0,0,0.173119,-30.8058,-51.4921)">
        <path d="M2268.47,787.901C2259.22,787.901 2249.81,788.145 2240.22,788.634C2132.53,794.125 2045.56,827.822 1981.73,888.787C1914.4,953.104 1873.24,1047.57 1859.39,1169.55C1849.3,1258.4 1878.67,1346.45 1942.08,1417.47C2016.25,1500.54 2127.68,1550.13 2240.15,1550.13C2373.21,1550.13 2473.58,1515.27 2538.48,1446.51C2569.25,1413.91 2591.83,1373.59 2605.6,1326.67C2619.11,1280.58 2624.26,1227.69 2620.89,1169.47C2617.71,1114.28 2608.82,1063.73 2594.48,1019.24C2578.77,970.487 2556.36,928.676 2527.9,894.971C2467.84,823.855 2380.64,787.901 2268.47,787.901ZM2240.15,1553.19C2126.82,1553.19 2014.54,1503.21 1939.8,1419.51C1875.8,1347.83 1846.16,1258.94 1856.35,1169.21L1857.87,1169.38L1856.35,1169.21C1870.28,1046.49 1911.76,951.4 1979.62,886.576C2043.99,825.09 2131.62,791.11 2240.07,785.58C2366.94,779.112 2464.57,815.25 2530.24,892.998C2558.96,927.009 2581.55,969.167 2597.39,1018.3C2611.81,1063.04 2620.74,1113.84 2623.95,1169.29C2627.33,1227.87 2622.14,1281.11 2608.53,1327.53C2594.63,1374.92 2571.81,1415.66 2540.71,1448.61C2475.21,1518 2374.08,1553.19 2240.15,1553.19Z" style="fill:rgb(43,71,139);fill-rule:nonzero;"/>
    </g>
    <g transform="matrix(0.173119,0,0,0.173119,-30.8058,-51.4921)">
        <path d="M2268.47,790.018C2259.3,790.018 2249.84,790.263 2240.33,790.748C2133.16,796.213 2046.64,829.713 1983.2,890.318C1916.23,954.284 1875.29,1048.31 1861.49,1169.79C1851.47,1258.04 1880.66,1345.5 1943.66,1416.06C2017.44,1498.68 2128.27,1548.01 2240.15,1548.01C2372.6,1548.01 2472.46,1513.37 2536.94,1445.06C2567.48,1412.71 2589.9,1372.67 2603.56,1326.07C2617.01,1280.22 2622.13,1227.57 2618.78,1169.59C2615.6,1114.58 2606.75,1064.21 2592.47,1019.89C2576.84,971.399 2554.57,929.829 2526.28,896.337C2466.7,825.789 2379.96,790.018 2268.47,790.018ZM2240.15,1555.3C2126.23,1555.3 2013.36,1505.06 1938.22,1420.92C1874.31,1349.34 1844.46,1260.69 1854.02,1171.07L1854.01,1171.07L1854.49,1166.87C1868.71,1044.66 1910.31,949.852 1978.16,885.045C2042.91,823.199 2130.99,789.022 2239.96,783.465C2367.54,776.961 2465.75,813.355 2531.85,891.632C2560.75,925.854 2583.48,968.255 2599.41,1017.66C2613.88,1062.56 2622.85,1113.53 2626.06,1169.17C2629.46,1227.99 2624.24,1281.47 2610.56,1328.12C2596.57,1375.84 2573.58,1416.87 2542.25,1450.07C2476.33,1519.9 2374.69,1555.3 2240.15,1555.3Z" style="fill:rgb(43,71,139);fill-rule:nonzero;"/>
    </g>
    <g transform="matrix(0.173119,0,0,0.173119,-30.8058,-51.4921)">
        <path d="M1864.28,1005.17L1865.58,1005.98C1818.26,1081.85 1806.92,1173.97 1833.63,1265.36C1864.87,1372.25 1944.14,1464.94 2045.68,1513.3C2165.81,1570.52 2271.42,1582.21 2359.58,1548.04C2401.38,1531.85 2439.1,1505.15 2471.71,1468.7C2503.72,1432.91 2531.11,1387.38 2553.12,1333.37C2573.97,1282.16 2587.68,1232.71 2593.87,1186.38C2600.65,1135.6 2598.4,1088.22 2587.2,1045.55C2561.6,948.096 2489.61,874.175 2373.21,825.842C2273.61,784.487 2180.61,777.511 2096.77,805.107C2008.32,834.219 1930.54,901.802 1865.58,1005.98L1864.28,1005.17ZM2253.79,1570.21C2190.15,1570.21 2120.11,1552.14 2044.36,1516.06C1942.05,1467.33 1862.17,1373.93 1830.69,1266.22C1803.73,1173.98 1815.2,1080.99 1862.98,1004.36C1928.33,899.56 2006.67,831.544 2095.81,802.202C2180.37,774.372 2274.09,781.375 2374.38,823.018C2491.71,871.736 2564.31,946.347 2590.16,1044.78C2601.46,1087.83 2603.73,1135.61 2596.9,1186.78C2590.68,1233.37 2576.9,1283.08 2555.95,1334.52C2533.81,1388.86 2506.24,1434.69 2473.98,1470.74C2441.06,1507.55 2402.94,1534.52 2360.68,1550.9C2327.44,1563.78 2291.75,1570.21 2253.79,1570.21Z" style="fill:rgb(43,71,139);fill-rule:nonzero;"/>
    </g>
    <g transform="matrix(0.173119,0,0,0.173119,-30.8058,-51.4921)">
        <path d="M1867.37,1007.1C1820.38,1082.46 1809.12,1173.96 1835.66,1264.77C1866.73,1371.08 1945.58,1463.28 2046.59,1511.39C2166.17,1568.35 2271.22,1580.02 2358.81,1546.07C2400.3,1529.99 2437.75,1503.49 2470.13,1467.29C2501.98,1431.68 2529.25,1386.35 2551.16,1332.57C2571.94,1281.53 2585.61,1232.25 2591.77,1186.1C2598.51,1135.6 2596.29,1088.49 2585.15,1046.09C2559.73,949.307 2488.15,875.863 2372.39,827.797C2273.28,786.642 2180.77,779.686 2097.43,807.118C2009.47,836.07 1932.07,903.353 1867.37,1007.1ZM2253.79,1572.33C2189.95,1572.33 2119.18,1554.04 2043.45,1517.97C1940.6,1468.98 1860.31,1375.09 1828.66,1266.81C1801.53,1173.99 1813.08,1080.38 1861.19,1003.24C1926.81,898.007 2005.52,829.692 2095.15,800.191C2180.2,772.197 2274.42,779.221 2375.19,821.063C2493.17,870.048 2566.18,945.135 2592.2,1044.24C2603.58,1087.56 2605.87,1135.62 2599,1187.06C2592.76,1233.83 2578.93,1283.71 2557.91,1335.32C2535.68,1389.88 2507.98,1435.92 2475.56,1472.16C2442.41,1509.22 2404.02,1536.37 2361.45,1552.87C2328.13,1565.78 2291.91,1572.33 2253.79,1572.33Z" style="fill:rgb(43,71,139);fill-rule:nonzero;"/>
    </g>
    <g transform="matrix(0.173119,0,0,0.173119,-30.8058,-51.4921)">
        <path d="M2268.71,774.689C2266.77,774.689 2264.84,774.706 2262.9,774.739C2166.52,776.394 2068.88,819.356 1972.7,902.433C1902.64,962.942 1863.17,1050.54 1861.54,1149.09C1859.64,1264.36 1909.59,1380.32 1995.15,1459.29C2096.38,1552.71 2197.21,1596.67 2294.86,1589.93C2341.16,1586.73 2386.65,1571.91 2430.06,1545.88C2472.7,1520.31 2513.75,1483.69 2552.07,1437.03C2588.4,1392.8 2617.13,1348.11 2637.45,1304.2C2659.73,1256.07 2672.04,1208.54 2674.05,1162.91C2678.64,1058.7 2630.13,963.53 2529.87,880.036C2445.9,810.116 2358.06,774.689 2268.71,774.689ZM2275.32,1593.77C2182.97,1593.77 2088.11,1549.39 1993,1461.61C1906.79,1382.05 1856.46,1265.2 1858.38,1149.04C1860.01,1049.58 1899.88,961.144 1970.63,900.037L1971.66,901.235L1970.63,900.037C2067.39,816.462 2165.71,773.241 2262.85,771.574C2354.95,769.989 2445.5,805.666 2531.89,877.603C2632.96,961.764 2681.85,1057.8 2677.22,1163.05C2675.19,1209.09 2662.78,1257.03 2640.33,1305.53C2619.89,1349.69 2591.02,1394.61 2554.52,1439.04C2515.96,1485.98 2474.64,1522.83 2431.69,1548.59C2387.84,1574.89 2341.88,1589.86 2295.08,1593.09C2288.51,1593.54 2281.92,1593.77 2275.32,1593.77Z" style="fill:rgb(43,71,139);fill-rule:nonzero;"/>
    </g>
    <g transform="matrix(0.173119,0,0,0.173119,-30.8058,-51.4921)">
        <path d="M2268.71,776.807C2266.78,776.807 2264.87,776.823 2262.94,776.856C2167.07,778.501 2069.88,821.291 1974.08,904.035C1904.49,964.145 1865.27,1051.19 1863.66,1149.13C1861.77,1263.81 1911.46,1379.17 1996.59,1457.73C2090.67,1544.57 2184.35,1588.48 2275.33,1588.48C2281.81,1588.48 2288.26,1588.26 2294.71,1587.82C2340.68,1584.64 2385.85,1569.92 2428.97,1544.06C2471.4,1518.61 2512.27,1482.15 2550.43,1435.69C2586.65,1391.6 2615.28,1347.06 2635.53,1303.31C2657.69,1255.44 2669.94,1208.17 2671.94,1162.82C2676.5,1059.31 2628.24,964.711 2528.51,881.663C2444.96,812.085 2357.55,776.807 2268.71,776.807ZM2275.32,1595.88C2182.46,1595.89 2086.99,1551.24 1991.57,1463.17C1904.92,1383.2 1854.34,1265.76 1856.26,1149.01C1857.9,1049.68 1897.43,961.277 1967.65,899.824L1967.64,899.819L1970.85,897.051L1970.85,897.054C2067.48,814.05 2165.7,771.125 2262.81,769.458C2355.44,767.852 2446.45,803.701 2533.25,875.977C2634.85,960.583 2684,1057.2 2679.33,1163.15C2677.29,1209.46 2664.81,1257.67 2642.25,1306.42C2621.73,1350.74 2592.77,1395.81 2556.15,1440.38C2517.45,1487.51 2475.94,1524.52 2432.78,1550.41C2388.64,1576.87 2342.36,1591.95 2295.22,1595.2C2288.64,1595.65 2281.94,1595.88 2275.32,1595.88Z" style="fill:rgb(43,71,139);fill-rule:nonzero;"/>
    </g>
    <g transform="matrix(0.173119,0,0,0.173119,-30.8058,-51.4921)">
        <path d="M2048.38,805.282L2048.83,806.799C1960.07,833.091 1888.03,896.663 1845.96,985.803C1796.77,1090.06 1794.53,1216.3 1839.98,1323.49C1893.75,1450.32 1967.54,1531.9 2059.3,1565.96C2102.81,1582.12 2150.36,1587.34 2200.65,1581.5C2250.03,1575.75 2302.52,1559.29 2356.65,1532.55C2407.97,1507.21 2452.55,1478.31 2489.16,1446.67C2529.28,1411.98 2560.07,1373.74 2580.69,1332.99C2627.79,1239.91 2622.77,1133.21 2565.79,1015.83C2517.03,915.405 2449.77,846.134 2365.87,809.941C2277.36,771.759 2170.69,770.701 2048.83,806.799L2048.38,805.282ZM2161.34,1586.98C2125.11,1586.98 2090.55,1580.95 2058.2,1568.93C1965.59,1534.55 1891.19,1452.39 1837.07,1324.73C1791.27,1216.72 1793.52,1089.51 1843.1,984.452C1885.55,894.485 1958.3,830.315 2047.93,803.764C2170.53,767.451 2277.92,768.551 2367.13,807.035C2451.74,843.536 2519.54,913.32 2568.64,1014.45C2626.08,1132.76 2631.08,1240.41 2583.52,1334.42C2562.71,1375.54 2531.66,1414.11 2491.23,1449.06C2454.42,1480.88 2409.61,1509.93 2358.05,1535.39C2303.59,1562.29 2250.76,1578.86 2201.01,1584.64C2187.59,1586.2 2174.36,1586.98 2161.34,1586.98Z" style="fill:rgb(43,71,139);fill-rule:nonzero;"/>
    </g>
    <g transform="matrix(0.173119,0,0,0.173119,-30.8058,-51.4921)">
        <path d="M2049.43,808.829C1961.26,834.948 1889.68,898.119 1847.88,986.707C1798.93,1090.43 1796.71,1216.02 1841.93,1322.67C1895.47,1448.93 1968.85,1530.12 2060.04,1563.98C2103.23,1580.02 2150.45,1585.2 2200.4,1579.39C2249.54,1573.68 2301.8,1557.28 2355.71,1530.65C2406.87,1505.39 2451.3,1476.59 2487.77,1445.06C2527.68,1410.56 2558.31,1372.53 2578.81,1332.03C2625.59,1239.58 2620.57,1133.51 2563.88,1016.76C2515.35,916.801 2448.45,847.872 2365.03,811.885C2276.99,773.903 2170.8,772.875 2049.43,808.829ZM2161.34,1589.1C2124.9,1589.1 2089.95,1582.98 2057.46,1570.92C1964.29,1536.32 1889.48,1453.77 1835.12,1325.56C1789.09,1217 1791.36,1089.15 1841.19,983.549C1883.9,893.029 1957.11,828.459 2047.33,801.734C2170.42,765.278 2278.29,766.408 2367.96,805.091C2453.06,841.799 2521.21,911.926 2570.54,1013.52C2628.29,1132.46 2633.29,1240.75 2585.41,1335.37C2564.48,1376.74 2533.25,1415.53 2492.61,1450.66C2455.67,1482.6 2410.71,1511.75 2358.99,1537.29C2304.32,1564.29 2251.25,1580.93 2201.26,1586.74C2187.82,1588.31 2174.39,1589.1 2161.34,1589.1Z" style="fill:rgb(43,71,139);fill-rule:nonzero;"/>
    </g>
    <g transform="matrix(0.173119,0,0,0.173119,-30.8058,-51.4921)">
        <path d="M1880.03,1169.38L1881.55,1169.55C1871.46,1258.4 1920,1337.71 1983.42,1408.73C2057.59,1491.79 2149.84,1550.13 2262.3,1550.13C2395.37,1550.13 2495.74,1515.27 2560.64,1446.51C2591.41,1413.91 2613.99,1373.59 2627.75,1326.67C2641.27,1280.58 2646.42,1227.69 2643.05,1169.47C2639.86,1114.28 2630.98,1063.73 2616.64,1019.24C2600.92,970.487 2578.52,928.676 2550.06,894.971C2485.04,817.991 2388.26,782.215 2262.38,788.634C2154.68,794.125 2067.72,827.822 2003.89,888.787C1936.56,953.104 1895.4,1047.57 1881.55,1169.55L1880.03,1169.38ZM2262.3,1553.19C2148.98,1553.19 2053.06,1493.69 1978.32,1409.99C1914.32,1338.31 1868.32,1258.94 1878.51,1169.21C1892.44,1046.49 1933.92,951.4 2001.78,886.576C2066.15,825.09 2153.78,791.11 2262.23,785.58C2389.11,779.112 2486.73,815.25 2552.39,892.998C2581.12,927.009 2603.71,969.167 2619.55,1018.3C2633.97,1063.04 2642.9,1113.84 2646.11,1169.29C2649.49,1227.87 2644.3,1281.11 2630.69,1327.53C2616.79,1374.92 2593.97,1415.66 2562.86,1448.61C2497.37,1518 2396.24,1553.19 2262.3,1553.19Z" style="fill:rgb(43,71,139);fill-rule:nonzero;"/>
    </g>
    <g transform="matrix(0.173119,0,0,0.173119,-30.8058,-51.4921)">
        <path d="M1904.54,1299.83C1921.08,1334.73 1945.78,1370.36 1979.9,1408.58C1994.45,1424.87 2009.45,1439.85 2024.84,1453.47C2010.24,1440.33 1995.89,1425.88 1981.84,1410.14C1947.32,1371.48 1921.69,1335.03 1904.54,1299.83ZM1883.65,1169.79C1875.13,1244.86 1907.33,1320.33 1985,1407.32C2068.36,1500.68 2161.66,1548.01 2262.3,1548.01C2394.76,1548.01 2494.62,1513.37 2559.1,1445.06C2589.64,1412.71 2612.06,1372.67 2625.72,1326.07C2639.17,1280.22 2644.29,1227.57 2640.94,1169.59C2637.76,1114.58 2628.91,1064.21 2614.62,1019.89C2598.99,971.397 2576.72,929.828 2548.44,896.337C2483.88,819.891 2387.68,784.359 2262.49,790.748C2155.31,796.213 2068.8,829.713 2005.35,890.318C1938.39,954.283 1897.44,1048.31 1883.65,1169.79ZM2262.3,1555.3C2208.14,1555.3 2155.17,1541.69 2104.85,1514.84C2059.56,1490.68 2016.46,1455.88 1976.74,1411.4C1940.92,1371.27 1915.38,1333.93 1898.67,1297.24C1878.83,1253.69 1871.55,1211.73 1876.41,1168.97C1890.4,1045.75 1932.09,950.221 2000.32,885.045C2065.07,823.199 2153.15,789.022 2262.12,783.465C2389.7,776.971 2487.9,813.355 2554.01,891.632C2582.91,925.854 2605.64,968.254 2621.56,1017.66C2636.04,1062.56 2645.01,1113.54 2648.22,1169.17C2651.62,1227.99 2646.4,1281.47 2632.72,1328.12C2618.73,1375.84 2595.74,1416.87 2564.4,1450.07C2498.49,1519.9 2396.85,1555.3 2262.3,1555.3Z" style="fill:rgb(43,71,139);fill-rule:nonzero;"/>
    </g>
    <g transform="matrix(0.173119,0,0,0.173119,-30.8058,-51.4921)">
        <path d="M2187.23,1340.36C2187.04,1340.69 2186.85,1341.03 2186.65,1341.38C2182.05,1349.37 2171.5,1368.95 2159.88,1390.38C2154.39,1400.55 2148.63,1411.14 2143.18,1421.1C2133.77,1438.28 2125.21,1453.59 2120.22,1461.68C2115.14,1469.91 2111.41,1475.68 2109.89,1478L2109.88,1478.01C2109.43,1478.72 2109.33,1479.56 2109.39,1480.39C2109.92,1487.65 2109.77,1494.85 2109.06,1501.95C2102.05,1571.67 2055.03,1609.03 2055.03,1609.03L2041.05,1611.1C2041.05,1611.1 2060.84,1537.81 2066.67,1496.38C2067.65,1489.36 2068.08,1483.66 2067.74,1479.95C2066.7,1469.16 2068.62,1453.31 2072.25,1435.11C2078.7,1402.78 2090.54,1363.09 2100.83,1331.32C2101.48,1329.29 2121.14,1258.18 2121.14,1258.18C2137.64,1272.6 2197.83,1278.55 2197.83,1278.55C2197.83,1278.55 2208.03,1303.36 2187.23,1340.36Z" style="fill:rgb(249,151,70);fill-rule:nonzero;"/>
    </g>
    <g transform="matrix(0.173119,0,0,0.173119,-30.8058,-51.4921)">
        <path d="M2011.72,1628.79L2070.06,1628.79C2070.06,1628.79 2071.46,1619.89 2068.41,1613.15C2065.49,1606.68 2061.33,1606.47 2067.88,1596.32C2064.17,1600.14 2052.25,1601.72 2043.82,1600.58C2042.79,1602.26 2037.16,1613.5 2033.7,1615.98C2029.89,1618.72 2012.89,1617.74 2011.72,1628.79Z" style="fill:rgb(35,88,165);fill-rule:nonzero;"/>
    </g>
    <g transform="matrix(0.173119,0,0,0.173119,-30.8058,-51.4921)">
        <path d="M2187.23,1340.36C2187.04,1340.69 2186.85,1341.03 2186.65,1341.38C2182.05,1349.37 2157.18,1395.3 2145.57,1416.73C2159.03,1361.34 2149.66,1305.95 2149.66,1305.95L2187.23,1340.36Z" style="fill:rgb(237,125,43);fill-rule:nonzero;"/>
    </g>
    <g transform="matrix(0.173119,0,0,0.173119,-30.8058,-51.4921)">
        <path d="M1962.04,1066.76C1962.04,1066.76 1959.73,1041.58 1987.86,1041.58C1987.86,1041.58 1979.34,1043.9 1974.93,1048.52C1974.93,1048.52 1992.87,1037.99 2012.39,1054.17C2031.92,1070.35 2019.78,1110.94 2025.72,1118.65C2031.66,1126.36 2054.78,1127.9 2051.95,1152.81C2049.13,1177.73 1978.58,1208.94 1983.11,1229.56C1983.11,1229.56 1955.46,1188.92 1975.23,1170.37C1975.23,1170.37 1965.59,1179.44 1964.61,1190.23C1964.61,1190.23 1962,1169.17 1975.4,1162.43C1987.26,1156.47 1996.98,1134.66 1995.95,1130.77C1994.92,1126.87 1962.04,1066.76 1962.04,1066.76Z" style="fill:rgb(32,45,79);fill-rule:nonzero;"/>
    </g>
    <g transform="matrix(0.173119,0,0,0.173119,-30.8058,-51.4921)">
        <path d="M2001.74,1172.47C2001.74,1172.47 1961.73,1273.45 1953.1,1269.71C1944.48,1265.97 1893.65,1249.83 1893.65,1249.83C1893.65,1249.83 1895.47,1264.22 1896.29,1264.88C1903.73,1270.77 1941.14,1299.63 1963.56,1301.1C1988.45,1302.73 2022.15,1229.41 2022.15,1229.41L2001.74,1172.47Z" style="fill:rgb(255,178,125);fill-rule:nonzero;"/>
    </g>
    <g transform="matrix(0.173119,0,0,0.173119,-30.8058,-51.4921)">
        <path d="M1970,1063.22C1969.62,1061.69 2003.32,1078.45 2005.03,1080.35C2020.84,1097.88 2016.33,1120.76 2007.29,1120.98C2001.49,1121.12 2002.61,1130.77 2002.61,1130.77L1937.99,1103.43C1937.99,1103.43 1945.77,1058.06 1970,1063.22Z" style="fill:rgb(32,45,79);fill-rule:nonzero;"/>
    </g>
    <g transform="matrix(0.173119,0,0,0.173119,-30.8058,-51.4921)">
        <path d="M1991.72,1174.57C1991.72,1174.57 1983.11,1183.49 1983.11,1210.16C1983.11,1210.16 1994.97,1228.88 2025.72,1233.62C2025.72,1233.62 1999.28,1174.56 1991.72,1174.57Z" style="fill:rgb(28,70,138);fill-rule:nonzero;"/>
    </g>
    <g transform="matrix(0.173119,0,0,0.173119,-30.8058,-51.4921)">
        <path d="M2141.75,1282.89L2141.55,1271.98C2163.29,1274.72 2216.51,1246 2216.51,1246C2216.51,1246 2239.26,1261.13 2242.37,1304.33C2243.89,1325.42 2253.5,1414.6 2254.57,1441.23C2254.95,1450.88 2255.08,1457.77 2255.13,1460.52L2255.12,1460.54C2255.14,1461.38 2255.53,1462.13 2256.05,1462.79C2260.55,1468.51 2264.45,1474.57 2267.83,1480.85C2301,1542.57 2283.66,1626.44 2283.66,1626.44L2275.95,1624.48C2275.95,1624.48 2247.9,1537.54 2229.57,1499.93C2226.46,1493.55 2223.63,1488.59 2221.26,1485.72C2214.37,1477.35 2207.1,1463.13 2199.94,1446.02C2186.39,1413.67 2141.75,1282.89 2141.75,1282.89Z" style="fill:rgb(249,151,70);fill-rule:nonzero;"/>
    </g>
    <g transform="matrix(0.173119,0,0,0.173119,-30.8058,-51.4921)">
        <path d="M2237.26,1628.79L2295.6,1628.79C2295.6,1628.79 2297,1619.89 2293.95,1613.15C2291.03,1606.68 2286.46,1603.73 2287.55,1595.9C2283.85,1599.72 2277.81,1603.99 2269.37,1602.86C2268.34,1604.53 2262.7,1613.5 2259.25,1615.98C2255.43,1618.72 2238.43,1617.74 2237.26,1628.79Z" style="fill:rgb(35,88,165);fill-rule:nonzero;"/>
    </g>
    <g transform="matrix(0.173119,0,0,0.173119,-30.8058,-51.4921)">
        <path d="M2029.66,1246.15C2037.5,1247.48 2028.38,1253.71 2039.16,1254.88C2054.5,1256.56 2070.34,1257.7 2078.64,1261.01C2081.66,1262.22 2083.69,1263.71 2084.32,1265.62C2087.92,1276.43 2103.77,1293.12 2103.77,1293.12C2205.36,1288.49 2216.51,1246 2216.51,1246C2150.58,1181.96 2089.95,1144.2 2043.66,1139.2C2035.74,1138.35 2025.72,1143.38 2018.59,1146.55C2002.37,1153.77 1991.72,1174.57 1991.72,1174.57C1991.72,1174.57 1999.88,1241.07 2029.66,1246.15Z" style="fill:rgb(28,70,138);fill-rule:nonzero;"/>
    </g>
    <g transform="matrix(0.173119,0,0,0.173119,-30.8058,-51.4921)">
        <path d="M2039.16,1254.88C2054.5,1256.56 2070.34,1257.7 2078.64,1261.01C2082.03,1210.35 2058.12,1172.23 2058.12,1172.23C2058.12,1172.23 2042.52,1235.71 2039.16,1254.88Z" style="fill:rgb(22,53,96);fill-rule:nonzero;"/>
    </g>
    <g transform="matrix(0.173119,0,0,0.173119,-30.8058,-51.4921)">
        <path d="M2025.92,1163.66C2025.92,1163.66 2064.5,1161.55 2071.36,1185.77C2078.21,1209.99 2058.5,1306.67 2054.25,1316.65C2046.51,1334.82 2008.85,1386.67 2008.85,1386.67L1998.47,1381.33C1998.47,1381.33 2020.12,1303.24 2025.72,1295.4C2034.52,1283.1 2014.38,1174.2 2025.92,1163.66Z" style="fill:rgb(255,178,125);fill-rule:nonzero;"/>
    </g>
    <g transform="matrix(0.173119,0,0,0.173119,-30.8058,-51.4921)">
        <path d="M2001.21,1374.09C2001.21,1374.09 1997.99,1385.47 1991.7,1391.76C1988.8,1394.66 1986.22,1403.38 1986.08,1407.87C1986.08,1407.87 1985.61,1411.58 1987.23,1411.22C1988.85,1410.86 1990.66,1402.8 1993.55,1403.2C1993.55,1403.2 1992.01,1412.2 1990.48,1414.73C1988.95,1417.27 1988.05,1425.11 1990.22,1426.06C1995.48,1428.38 2003.26,1418.46 2007.88,1412.24C2012.51,1406.01 2007.96,1380.76 2007.96,1380.76L2001.21,1374.09Z" style="fill:rgb(255,178,125);fill-rule:nonzero;"/>
    </g>
    <g transform="matrix(0.173119,0,0,0.173119,-30.8058,-51.4921)">
        <path d="M2078.97,1218.16C2078.87,1218.73 2042.46,1224.86 2019.69,1213.3C2019.69,1213.3 2000.66,1153.71 2027.85,1156.56C2055.04,1159.41 2071.13,1167.97 2071.82,1180.99C2072.5,1194 2078.97,1218.16 2078.97,1218.16Z" style="fill:rgb(28,70,138);fill-rule:nonzero;"/>
    </g>
    <g transform="matrix(0.173119,0,0,0.173119,-30.8058,-51.4921)">
        <path d="M2018.59,1146.55C2018.59,1146.55 2007.86,1186.57 1991.72,1174.57C1992.17,1172.64 1989.36,1167.02 1986.04,1161.32C1981.79,1154.03 1976.74,1146.58 1976.74,1146.58L1998.58,1127.45L1999.88,1126.3C2006.57,1137.98 2013.13,1142.57 2018.59,1146.55Z" style="fill:rgb(255,178,125);fill-rule:nonzero;"/>
    </g>
    <g transform="matrix(0.173119,0,0,0.173119,-30.8058,-51.4921)">
        <path d="M1976.74,1146.58C1976.74,1146.58 1981.79,1154.02 1986.03,1161.32C1999.61,1152.95 1999.62,1136.15 1998.58,1127.45L1976.74,1146.58Z" style="fill:rgb(237,152,95);fill-rule:nonzero;"/>
    </g>
    <g transform="matrix(0.173119,0,0,0.173119,-30.8058,-51.4921)">
        <path d="M1976.14,1156.17C1976.14,1156.17 2009.09,1137.83 1997.36,1117.49C1985.62,1097.14 1981.97,1081.07 1960.44,1091.92C1938.9,1102.77 1939.33,1112.87 1941.59,1120.61C1943.86,1128.36 1967.26,1160.42 1976.14,1156.17Z" style="fill:rgb(255,178,125);fill-rule:nonzero;"/>
    </g>
    <g transform="matrix(0.173119,0,0,0.173119,-30.8058,-51.4921)">
        <path d="M1936.02,1108.75C1937.53,1099.71 1942.12,1098.85 1945.32,1099.45C1957.49,1079.33 1977.37,1087.18 1977.37,1087.18C1987.99,1100.51 2003.35,1102.78 2003.35,1102.78C2003.35,1102.78 1999.52,1109.9 1983.77,1114.3C1978.95,1115.65 1973.49,1114.83 1968.22,1113.06C1979.16,1119.15 1990.59,1121.49 1990.59,1121.49C1969.82,1123.39 1950.07,1104.41 1948.02,1102.38C1947.06,1105.32 1945.38,1111.48 1946.39,1115.98C1947.75,1122.1 1953.19,1133.18 1949.87,1134.61C1949.87,1134.61 1933.76,1122.29 1936.02,1108.75Z" style="fill:rgb(32,45,79);fill-rule:nonzero;"/>
    </g>
    <g transform="matrix(0.173119,0,0,0.173119,-30.8058,-51.4921)">
        <path d="M1900.76,1254.42C1900.76,1254.42 1894.87,1257.03 1888.88,1250.93C1885.82,1247.81 1880.34,1246.12 1883.17,1244.45C1886.01,1242.78 1893.56,1246.21 1895.33,1246.81C1897.11,1247.42 1900.76,1254.42 1900.76,1254.42Z" style="fill:rgb(255,178,125);fill-rule:nonzero;"/>
    </g>
    <g transform="matrix(0.173119,0,0,0.173119,-30.8058,-51.4921)">
        <path d="M2121.42,585.21C2139.12,516.417 2169.04,456.593 2250.03,456.593C2321.07,456.593 2385.49,519.167 2380.81,596.279C2376.51,667.182 2314.93,727.238 2239.56,718.797C2168.97,710.891 2101.15,663.977 2121.42,585.21Z" style="fill:rgb(175,205,251);fill-rule:nonzero;"/>
    </g>
    <g transform="matrix(0.173119,0,0,0.173119,-30.8058,-51.4921)">
        <path d="M2249.41,690.012C2243.52,690.012 2238.96,688.359 2235.75,685.055C2232.54,681.753 2230.93,677.643 2230.93,672.732C2230.93,670.232 2231.35,667.909 2232.2,665.765C2233.05,663.624 2234.25,661.747 2235.82,660.139C2237.38,658.532 2239.3,657.282 2241.58,656.389C2243.85,655.499 2246.47,655.05 2249.41,655.05C2252.36,655.05 2254.97,655.499 2257.25,656.389C2259.53,657.282 2261.45,658.532 2263.01,660.139C2264.57,661.747 2265.78,663.624 2266.63,665.765C2267.47,667.909 2267.9,670.232 2267.9,672.732C2267.9,677.643 2266.29,681.753 2263.08,685.055C2259.86,688.359 2255.31,690.012 2249.41,690.012ZM2262.94,630.671L2234.95,630.671L2231.86,493.099L2266.16,493.099L2262.94,630.671Z" style="fill:rgb(239,245,254);fill-rule:nonzero;"/>
    </g>
    <g transform="matrix(0.173119,0,0,0.173119,-30.8058,-51.4921)">
        <path d="M1278.52,727.229C1318.26,572.766 1385.44,438.438 1567.31,438.438C1726.8,438.438 1871.46,578.94 1860.95,752.085C1851.28,911.288 1713.04,1046.14 1543.8,1027.18C1385.29,1009.43 1233.01,904.092 1278.52,727.229Z" style="fill:rgb(175,205,251);fill-rule:nonzero;"/>
    </g>
    <g transform="matrix(0.173119,0,0,0.173119,-30.8058,-51.4921)">
        <path d="M1689.9,709.461C1690.07,739.145 1679.65,766.39 1662.2,787.642C1647.17,805.941 1638.71,828.752 1638.71,852.437L1638.71,886.572C1638.71,896.227 1635.18,905.108 1629.35,911.975C1622.11,920.52 1611.32,925.964 1599.31,925.964L1536.27,925.964C1514.6,925.964 1496.88,908.237 1496.88,886.572L1496.88,852.495C1496.88,828.858 1488.53,806.036 1473.5,787.79C1456.13,766.697 1445.69,739.665 1445.69,710.199C1445.69,651.906 1486.54,603.149 1541.18,591.009C1542.73,590.661 1544.3,590.348 1545.88,590.064C1546.71,589.911 1547.55,589.77 1548.4,589.633C1554.71,588.618 1561.19,588.092 1567.79,588.092C1635.14,588.092 1689.5,642.116 1689.9,709.461Z" style="fill:rgb(249,221,191);fill-rule:nonzero;"/>
    </g>
    <g transform="matrix(0.173119,0,0,0.173119,-30.8058,-51.4921)">
        <path d="M1599.09,925.965L1598.95,927.015L1597.22,940.292L1596.76,943.79L1596.76,943.819L1596.3,947.34L1594.58,960.612L1594.12,964.109L1594.11,964.139L1593.66,967.666L1593.4,969.61C1592.53,976.344 1584.83,981.489 1575.62,981.489L1554.87,981.489C1552.68,981.489 1550.58,981.199 1548.63,980.665C1546.87,980.185 1545.25,979.503 1543.79,978.656L1543.68,978.59C1542.5,977.897 1541.45,977.091 1540.54,976.196C1538.68,974.364 1537.45,972.159 1537.1,969.735L1536.37,964.589L1535.9,961.347L1535.9,961.341L1535.89,961.27L1535.89,961.264L1535.44,958.093L1533.68,945.787L1533.21,942.557L1533.2,942.486L1532.75,939.296L1530.84,925.965L1599.09,925.965Z" style="fill:rgb(237,125,43);fill-rule:nonzero;"/>
    </g>
    <g transform="matrix(0.173119,0,0,0.173119,-30.8058,-51.4921)">
        <path d="M1599.09,925.965L1579.13,925.965C1560.21,931.437 1541.44,936.843 1532.75,939.296L1533.2,942.486L1533.21,942.557L1533.68,945.787C1540.72,943.837 1557.62,938.994 1598.95,927.015L1599.09,925.965Z" style="fill:rgb(249,151,70);fill-rule:nonzero;"/>
    </g>
    <g transform="matrix(0.173119,0,0,0.173119,-30.8058,-51.4921)">
        <path d="M1535.89,961.264L1535.89,961.27L1535.9,961.341L1535.9,961.347L1536.37,964.589C1544.51,962.302 1561.31,957.482 1596.3,947.34L1596.76,943.819L1596.76,943.79L1597.22,940.292C1575.11,946.694 1548.35,954.424 1535.44,958.093L1535.89,961.264Z" style="fill:rgb(249,151,70);fill-rule:nonzero;"/>
    </g>
    <g transform="matrix(0.173119,0,0,0.173119,-30.8058,-51.4921)">
        <path d="M1543.68,978.59L1543.79,978.656C1545.25,979.503 1546.87,980.185 1548.63,980.665C1558.23,977.915 1572.47,973.801 1593.66,967.666L1594.11,964.139L1594.12,964.109L1594.58,960.612C1575.66,966.089 1553.95,972.361 1540.54,976.196C1541.45,977.091 1542.5,977.897 1543.68,978.59Z" style="fill:rgb(249,151,70);fill-rule:nonzero;"/>
    </g>
    <g transform="matrix(0.173119,0,0,0.173119,-30.8058,-51.4921)">
        <path d="M1543.18,926.427L1516.71,770.209L1522.16,769.287L1548.62,925.504L1543.18,926.427Z" style="fill:rgb(237,125,43);fill-rule:nonzero;"/>
    </g>
    <g transform="matrix(0.173119,0,0,0.173119,-30.8058,-51.4921)">
        <path d="M1589.94,926.462L1584.51,925.469L1612.65,771.715L1618.09,772.709L1589.94,926.462Z" style="fill:rgb(237,125,43);fill-rule:nonzero;"/>
    </g>
    <g transform="matrix(0.173119,0,0,0.173119,-30.8058,-51.4921)">
        <path d="M1600.64,776.974C1597.73,779.764 1595.76,783.339 1595.91,786.093C1596.02,788.091 1597.22,789.521 1599.46,790.343C1600.7,790.798 1601.54,790.465 1602.13,789.307C1603.42,786.741 1602.87,781.248 1600.64,776.974ZM1538.95,775.907C1536.04,778.51 1534.4,782.183 1534.03,785.542C1533.72,788.394 1534.42,790.71 1535.73,791.176C1537.86,791.931 1539.42,791.451 1540.35,789.744C1542.05,786.64 1541.43,780.674 1538.95,775.907ZM1559.85,781.203C1558.32,783.11 1557.12,785.119 1556.48,787.009C1555.21,790.746 1556.25,793.274 1559.57,794.525C1560.9,795.028 1562.67,795.427 1563.52,794.463C1564.84,792.973 1564.07,788.747 1561.65,784.186C1561.11,783.176 1560.51,782.173 1559.85,781.203ZM1584.02,781.324C1580.71,786.149 1578.38,791.606 1578.92,794.532C1579.09,795.462 1579.54,795.98 1580.35,796.163C1583.62,796.906 1585.64,795.951 1586.33,793.321C1587.13,790.285 1586.08,785.541 1584.02,781.324ZM1582.36,798.085C1581.66,798.085 1580.87,797.995 1579.98,797.793C1578.5,797.457 1577.57,796.434 1577.27,794.833C1576.64,791.382 1579.35,785.05 1583.15,779.686C1581.17,776.217 1578.52,773.354 1575.74,772.515C1571.64,771.271 1565.35,775.057 1560.97,779.893C1561.77,781.028 1562.5,782.211 1563.13,783.403C1565.37,787.642 1566.98,793.063 1564.78,795.567C1563.96,796.496 1562.29,797.339 1558.98,796.089C1554.84,794.528 1553.35,791.023 1554.9,786.472C1555.65,784.241 1557.05,781.923 1558.82,779.77C1555.42,775.344 1550.89,771.981 1546.42,772.544C1544.03,772.846 1541.99,773.682 1540.29,774.859C1543.14,780.177 1543.8,786.926 1541.82,790.547C1540.47,793.014 1538.11,793.794 1535.17,792.751C1533.07,792.001 1531.96,789.101 1532.37,785.361C1532.78,781.534 1534.7,777.34 1538.1,774.431C1537.21,773.047 1536.15,771.819 1534.92,770.869C1527.23,764.893 1520.86,771.305 1520.59,771.583L1519.39,770.42C1519.47,770.341 1527.09,762.667 1535.95,769.549C1537.29,770.593 1538.46,771.921 1539.43,773.415C1541.32,772.13 1543.58,771.219 1546.21,770.886C1551.22,770.256 1556.22,773.79 1559.93,778.493C1564.7,773.313 1571.49,769.485 1576.23,770.915C1579.22,771.821 1582.04,774.709 1584.2,778.268C1586.21,775.661 1588.45,773.389 1590.63,771.947C1594.12,769.637 1596.39,770.167 1597.68,771.017C1599,771.888 1600.13,773.06 1601.07,774.405C1602.12,773.572 1603.22,772.86 1604.31,772.315C1608.35,770.302 1612.06,770.451 1614.76,772.731L1613.68,774.007C1610.77,771.546 1607.03,772.83 1605.05,773.812C1603.97,774.353 1602.92,775.039 1601.95,775.822C1604.64,780.674 1605.16,786.997 1603.62,790.058C1602.65,791.983 1600.92,792.655 1598.89,791.913C1595.24,790.576 1594.35,788.061 1594.24,786.186C1594.04,782.601 1596.53,778.52 1599.77,775.513C1598.94,774.261 1597.93,773.182 1596.76,772.414C1595.18,771.375 1593.06,772.345 1591.55,773.341C1589.38,774.779 1587.1,777.147 1585.09,779.835C1587.6,784.605 1588.9,790.164 1587.95,793.749C1587.49,795.488 1586.16,798.084 1582.36,798.085Z" style="fill:rgb(237,125,43);fill-rule:nonzero;"/>
    </g>
    <g transform="matrix(0.173119,0,0,0.173119,-30.8058,-51.4921)">
        <path d="M1630.82,635.048C1640.86,644.504 1639.6,661.906 1626.69,665.778C1616.96,668.697 1602.44,664.799 1595.26,652.374C1588.09,639.949 1591.4,629.736 1600.2,624.655C1609,619.573 1620.38,625.21 1630.82,635.048Z" style="fill:rgb(255,240,227);fill-rule:nonzero;"/>
    </g>
    <g transform="matrix(0.173119,0,0,0.173119,-30.8058,-51.4921)">
        <path d="M1565.11,565.128L1563.94,565.128C1561.8,565.128 1560.06,563.38 1560.06,561.243L1560.06,513.129C1560.06,510.992 1561.8,509.244 1563.94,509.244L1565.11,509.244C1567.25,509.244 1569,510.992 1569,513.129L1569,561.243C1569,563.38 1567.25,565.128 1565.11,565.128Z" style="fill:rgb(255,240,227);fill-rule:nonzero;"/>
    </g>
    <g transform="matrix(0.173119,0,0,0.173119,-30.8058,-51.4921)">
        <path d="M1710.66,621.075L1710.01,619.962C1708.96,618.14 1709.59,615.787 1711.41,614.735L1735,601.114C1736.83,600.062 1739.18,600.692 1740.23,602.515L1740.88,603.628C1741.93,605.451 1741.3,607.803 1739.47,608.855L1715.88,622.476C1714.06,623.528 1711.71,622.898 1710.66,621.075Z" style="fill:rgb(255,240,227);fill-rule:nonzero;"/>
    </g>
    <g transform="matrix(0.173119,0,0,0.173119,-30.8058,-51.4921)">
        <path d="M1726.77,688.364C1726.77,685.905 1728.78,683.894 1731.24,683.894L1790.9,683.894C1793.36,683.894 1795.37,685.905 1795.37,688.364C1795.37,690.822 1793.36,692.833 1790.9,692.833L1731.24,692.833C1728.78,692.833 1726.77,690.822 1726.77,688.364Z" style="fill:rgb(255,240,227);fill-rule:nonzero;"/>
    </g>
    <g transform="matrix(0.173119,0,0,0.173119,-30.8058,-51.4921)">
        <path d="M1643.39,585.296C1641.13,584.331 1640.07,581.692 1641.04,579.431L1672.7,505.188C1673.67,502.928 1676.31,501.867 1678.57,502.831C1680.83,503.795 1681.89,506.435 1680.93,508.696L1649.26,582.938C1648.29,585.199 1645.65,586.26 1643.39,585.296Z" style="fill:rgb(255,240,227);fill-rule:nonzero;"/>
    </g>
    <g transform="matrix(0.173119,0,0,0.173119,-30.8058,-51.4921)">
        <path d="M1424.38,621.075L1425.02,619.962C1426.07,618.14 1425.44,615.787 1423.62,614.735L1400.03,601.114C1398.21,600.062 1395.85,600.692 1394.8,602.515L1394.16,603.628C1393.11,605.451 1393.74,607.803 1395.56,608.855L1419.15,622.476C1420.97,623.528 1423.33,622.898 1424.38,621.075Z" style="fill:rgb(255,240,227);fill-rule:nonzero;"/>
    </g>
    <g transform="matrix(0.173119,0,0,0.173119,-30.8058,-51.4921)">
        <path d="M1408.26,688.364C1408.26,685.905 1406.25,683.894 1403.79,683.894L1344.13,683.894C1341.67,683.894 1339.66,685.905 1339.66,688.364C1339.66,690.822 1341.67,692.833 1344.13,692.833L1403.79,692.833C1406.25,692.833 1408.26,690.822 1408.26,688.364Z" style="fill:rgb(255,240,227);fill-rule:nonzero;"/>
    </g>
    <g transform="matrix(0.173119,0,0,0.173119,-30.8058,-51.4921)">
        <path d="M1491.64,585.296C1493.9,584.331 1494.96,581.692 1494,579.431L1462.33,505.188C1461.37,502.928 1458.73,501.867 1456.46,502.831C1454.2,503.795 1453.14,506.435 1454.11,508.696L1485.78,582.938C1486.74,585.199 1489.38,586.26 1491.64,585.296Z" style="fill:rgb(255,240,227);fill-rule:nonzero;"/>
    </g>
    <g transform="matrix(0.173119,0,0,0.173119,-30.8058,-51.4921)">
        <path d="M1449.75,938.896C1449.81,937.207 1451.12,919.004 1478.84,918.053C1478.84,918.053 1465.21,919.679 1462.85,925.672C1462.85,925.672 1472.14,918.266 1479.7,920.648C1487.26,923.03 1491.7,936.276 1491.74,940.633C1491.79,944.99 1487.59,959.034 1482.79,960.229C1480.97,960.681 1478.88,960.56 1476.98,960.235C1478.25,962.229 1479.51,964.428 1480.7,966.883C1491.77,989.595 1480.36,1011.79 1470.99,1009.34C1464.98,1007.77 1463.28,1018.02 1463.28,1018.02L1404.92,970.769C1404.92,970.769 1426.36,926.414 1449.75,938.896Z" style="fill:rgb(44,58,100);fill-rule:nonzero;"/>
    </g>
    <g transform="matrix(0.173119,0,0,0.173119,-30.8058,-51.4921)">
        <path d="M1429.43,1607.98L1441.82,1612.59C1441.82,1612.59 1495.67,1537.91 1502.3,1472.21C1503.48,1460.48 1503.09,1449.12 1500.53,1438.62C1500.53,1438.62 1501.05,1435.61 1501.97,1430.3C1502.4,1427.82 1502.92,1424.84 1503.52,1421.42C1505.27,1411.38 1507.68,1397.66 1510.43,1382.04C1516.77,1346.08 1524.98,1300.11 1531.35,1266.32L1528.01,1265.24L1491.87,1253.58L1484.4,1229.86L1457.49,1222.78C1457.49,1222.78 1451.48,1234.54 1446.11,1290.09C1445.12,1297.38 1444.21,1305.41 1443.54,1314.13C1441.44,1340.72 1441.29,1373.72 1446.1,1411.44C1447.33,1421.09 1448.89,1431.06 1450.82,1441.3C1452.24,1448.81 1452.45,1459.04 1451.86,1470.79C1449.14,1524.5 1429.43,1607.98 1429.43,1607.98Z" style="fill:rgb(28,70,138);fill-rule:nonzero;"/>
    </g>
    <g transform="matrix(0.173119,0,0,0.173119,-30.8058,-51.4921)">
        <path d="M1443.54,1314.13L1501.97,1430.3C1502.4,1427.82 1502.92,1424.84 1503.52,1421.42C1505.27,1411.38 1507.68,1397.66 1510.43,1382.04C1516.77,1346.08 1524.98,1300.11 1531.35,1266.32L1528.01,1265.24L1491.87,1253.58L1484.4,1229.86L1449.46,1210.48C1449.46,1210.48 1449.45,1215.89 1446.41,1275C1445.42,1282.28 1444.21,1305.41 1443.54,1314.13Z" style="fill:rgb(22,53,96);fill-rule:nonzero;"/>
    </g>
    <g transform="matrix(0.173119,0,0,0.173119,-30.8058,-51.4921)">
        <path d="M1469.24,1237.69L1470.6,1226.08C1493.26,1232.1 1556.44,1203.95 1556.44,1203.95C1556.44,1203.95 1575.77,1228.56 1572.89,1274.83C1571.48,1297.41 1568.91,1393.36 1566.23,1421.75C1565.26,1432.04 1564.41,1439.37 1564.06,1442.29L1564.05,1442.32C1563.95,1443.21 1564.26,1444.05 1564.71,1444.83C1568.66,1451.54 1571.94,1458.52 1574.62,1465.67C1600.97,1535.88 1570.56,1622.34 1570.56,1622.34L1562.67,1619.16C1562.67,1619.16 1545.37,1522.94 1531.31,1480.43C1528.92,1473.22 1526.64,1467.55 1524.54,1464.17C1518.43,1454.3 1512.75,1438.18 1507.61,1419.01C1497.88,1382.76 1490.04,1335.61 1484.83,1299.21C1480.39,1268.38 1469.24,1237.69 1469.24,1237.69Z" style="fill:rgb(28,70,138);fill-rule:nonzero;"/>
    </g>
    <g transform="matrix(0.173119,0,0,0.173119,-30.8058,-51.4921)">
        <path d="M1308.43,1195.84L1306.67,1209.17C1306.67,1209.17 1314.7,1208.1 1316.01,1208.01C1320.14,1207.73 1332.36,1206.94 1343.71,1205.72C1360.78,1204.03 1373.15,1203.63 1381.22,1198.66C1393.51,1191.16 1413.68,1168.17 1426.81,1145.19C1427.19,1144.63 1427.47,1144.06 1427.75,1143.5C1434.6,1131.3 1439.38,1119.2 1439.76,1109.54C1440.04,1103.63 1439.38,1098.56 1438.17,1094.16C1436.57,1088.34 1433.94,1083.74 1431.22,1080.27C1430.85,1079.71 1430.47,1079.15 1429.91,1078.68C1425.41,1073.33 1421,1071.08 1421,1071.08C1418.75,1070.14 1411.27,1079.21 1408.73,1081.93L1406.62,1088.22C1404.55,1090.38 1381.89,1163.23 1371.67,1174.58C1367.26,1179.46 1346.72,1187.12 1328.01,1192.31C1315.86,1195.68 1308.43,1195.84 1308.43,1195.84Z" style="fill:rgb(242,161,107);fill-rule:nonzero;"/>
    </g>
    <g transform="matrix(0.173119,0,0,0.173119,-30.8058,-51.4921)">
        <path d="M1425.95,1096.98C1433.06,1100.28 1441.65,1102.52 1452.05,1103.09C1491.01,1105.23 1499.86,1071.07 1501.47,1048.4C1495.85,1046.36 1490.93,1046.56 1488.1,1046.71C1485.84,1046.83 1483.49,1047.04 1481.42,1047.28C1480.43,1047.39 1479.45,1047.12 1478.67,1046.51C1473.76,1042.66 1466.29,1030.99 1461.79,1012.62L1460.11,1013.4L1432,1026.62C1432,1026.62 1434.98,1035.77 1437.19,1044.52C1438.14,1048.32 1438.95,1052.04 1439.3,1054.92C1439.63,1057.64 1438.09,1060.24 1435.57,1061.31L1435.56,1061.34C1435.28,1062.06 1429.17,1077.64 1425.95,1096.98Z" style="fill:rgb(255,178,125);fill-rule:nonzero;"/>
    </g>
    <g transform="matrix(0.173119,0,0,0.173119,-30.8058,-51.4921)">
        <path d="M1564.58,1216.63C1564.26,1231.05 1462.77,1243.82 1445.31,1234.15C1445.31,1234.15 1440.78,1212.3 1435.01,1187.75C1433.27,1180.36 1431.42,1172.74 1429.56,1165.38C1425.17,1148.1 1420.65,1132.34 1417.18,1124.86C1416.82,1124.08 1416.5,1123.32 1416.2,1122.54C1408.42,1101.92 1422.99,1079.88 1412.93,1073.36C1412.93,1073.36 1418.89,1067.86 1435.57,1061.31L1435.56,1061.34C1435.3,1062.32 1433.81,1076 1436.67,1081.36C1442.31,1091.94 1464.36,1086.41 1474.41,1073.35C1480.31,1065.71 1484.87,1057.98 1486.95,1050.75C1487.41,1049.12 1488.1,1046.71 1488.1,1046.71C1488.1,1046.71 1506.69,1044.19 1517.14,1048.42C1517.14,1048.42 1513.01,1057.39 1511.5,1067.27C1511.35,1068.21 1511.24,1069.16 1511.14,1070.1C1510.94,1072.09 1510.88,1074.09 1510.99,1076.02C1511.14,1078.6 1512.47,1080.87 1514.58,1083.11C1516.51,1085.15 1519.12,1087.16 1522.07,1089.32C1524.01,1090.71 1526.08,1092.18 1528.22,1093.77C1528.41,1105.42 1527.59,1124.56 1529.75,1144.99C1530.29,1150.18 1532.01,1155.13 1534.72,1159.52C1535.8,1161.28 1537.03,1162.93 1538.4,1164.48C1549.39,1176.79 1564.95,1214.95 1564.58,1216.63Z" style="fill:rgb(249,151,70);fill-rule:nonzero;"/>
    </g>
    <g transform="matrix(0.173119,0,0,0.173119,-30.8058,-51.4921)">
        <path d="M1432,1026.62C1432,1026.62 1434.99,1035.76 1437.19,1044.53C1453.62,1039.94 1458.61,1022.67 1460.12,1013.41L1432,1026.62Z" style="fill:rgb(237,152,95);fill-rule:nonzero;"/>
    </g>
    <g transform="matrix(0.173119,0,0,0.173119,-30.8058,-51.4921)">
        <path d="M1428.54,1036.3C1428.54,1036.3 1467.85,1027.2 1461.81,1002.81C1455.77,978.408 1456.77,960.802 1431.41,965.58C1406.06,970.358 1403.5,980.872 1403.54,989.505C1403.58,998.14 1418.15,1038.04 1428.54,1036.3Z" style="fill:rgb(255,178,125);fill-rule:nonzero;"/>
    </g>
    <g transform="matrix(0.173119,0,0,0.173119,-30.8058,-51.4921)">
        <path d="M1401.33,975.654C1405.55,966.811 1410.53,967.283 1413.64,968.851C1432.12,951.757 1450.24,965.722 1450.24,965.722C1457.21,982.571 1472.33,989.456 1472.33,989.456C1472.33,989.456 1466.29,995.64 1448.78,995.504C1443.43,995.462 1438.06,993.007 1433.16,989.624C1442.6,999.128 1453.67,1004.91 1453.67,1004.91C1431.75,1000.72 1417.06,975.351 1415.55,972.656C1413.69,975.397 1410.14,981.233 1409.84,986.161C1409.44,992.858 1411.74,1005.86 1407.91,1006.36C1407.91,1006.36 1394.99,988.916 1401.33,975.654Z" style="fill:rgb(44,58,100);fill-rule:nonzero;"/>
    </g>
    <g transform="matrix(0.173119,0,0,0.173119,-30.8058,-51.4921)">
        <path d="M1412.93,1073.35C1412.93,1073.35 1409.44,1075.36 1403.06,1094.86C1403.06,1094.86 1410.37,1103.93 1419.28,1103.09C1419.28,1103.09 1420.47,1075.58 1412.93,1073.35Z" style="fill:rgb(249,151,70);fill-rule:nonzero;"/>
    </g>
    <g transform="matrix(0.173119,0,0,0.173119,-30.8058,-51.4921)">
        <path d="M1524.69,1628.79L1587.13,1628.79C1587.13,1628.79 1588.62,1619.27 1585.36,1612.05C1582.24,1605.13 1577.34,1601.98 1578.51,1593.59C1574.55,1597.68 1568.08,1602.25 1559.05,1601.04C1557.95,1602.83 1551.92,1612.43 1548.22,1615.08C1544.14,1618.01 1525.95,1616.97 1524.69,1628.79Z" style="fill:rgb(35,88,165);fill-rule:nonzero;"/>
    </g>
    <g transform="matrix(0.173119,0,0,0.173119,-30.8058,-51.4921)">
        <path d="M1390.63,1628.79L1453.07,1628.79C1453.07,1628.79 1455.4,1618.83 1451.3,1612.05C1447.68,1606.06 1449.07,1602.64 1451.75,1597.68C1448.93,1598.84 1445.27,1599.89 1441.24,1599.66C1438.13,1599.48 1434.84,1598.07 1431.95,1596.4C1429.27,1599.46 1417.76,1612.5 1414.16,1615.08C1410.08,1618.01 1391.89,1616.97 1390.63,1628.79Z" style="fill:rgb(35,88,165);fill-rule:nonzero;"/>
    </g>
    <g transform="matrix(0.173119,0,0,0.173119,-30.8058,-51.4921)">
        <path d="M1334.24,1151.98C1334.24,1151.98 1328.77,1144.6 1325.34,1143.05C1321.92,1141.51 1318.68,1131.98 1316.79,1134.89C1315.63,1136.67 1318.55,1143.26 1317.81,1144.75C1317.06,1146.24 1309.51,1143.09 1308.19,1140.98C1307.3,1139.56 1299.52,1130.17 1299.34,1134.5C1299.16,1138.83 1305.96,1155.44 1309.31,1157.56C1312.66,1159.68 1325.34,1162.53 1325.34,1162.53L1334.24,1151.98Z" style="fill:rgb(255,178,125);fill-rule:nonzero;"/>
    </g>
    <g transform="matrix(0.173119,0,0,0.173119,-30.8058,-51.4921)">
        <path d="M1504.41,1111.49C1490.29,1146.03 1435.95,1188.81 1435.95,1188.81L1435.01,1187.75C1433.27,1180.36 1431.42,1172.74 1429.56,1165.38L1487.44,1111.49L1504.41,1111.49Z" style="fill:rgb(237,125,43);fill-rule:nonzero;"/>
    </g>
    <g transform="matrix(0.173119,0,0,0.173119,-30.8058,-51.4921)">
        <path d="M1327.11,1152.68L1325.34,1162.53C1325.34,1162.53 1356.4,1169.63 1363.25,1171.13L1363.33,1171.17C1375.16,1173.52 1388.5,1175.94 1400.13,1177.16C1408.34,1177.95 1415.69,1178.13 1421.08,1177.41C1421.63,1177.35 1422.08,1177.25 1422.67,1177.11C1435.97,1174.46 1457.63,1158.61 1477.34,1140.01C1480.07,1137.44 1482.72,1134.84 1485.32,1132.32C1494.84,1122.86 1503.43,1113.18 1509.95,1104.41C1513.89,1099.21 1517.18,1094.31 1519.35,1090.05C1520.14,1088.55 1520.89,1087.14 1521.44,1085.74C1532.64,1060.95 1521.94,1051.89 1521.94,1051.89C1521.72,1051.69 1521.51,1051.48 1521.21,1051.24C1519.23,1049.92 1516.35,1050.35 1512.75,1052.1C1508.25,1054.26 1502.55,1058.56 1496.22,1064.01C1486.3,1072.77 1426.81,1145.19 1412.93,1147.95C1400.88,1150.34 1327.11,1152.68 1327.11,1152.68Z" style="fill:rgb(255,178,125);fill-rule:nonzero;"/>
    </g>
    <g transform="matrix(0.173119,0,0,0.173119,-30.8058,-51.4921)">
        <path d="M1515.65,1047.88C1515.65,1047.88 1527.78,1051.28 1528.84,1063.98C1529.89,1076.68 1528.24,1115.98 1528.24,1115.98C1528.24,1115.98 1488.62,1104.62 1472.48,1080.38C1472.48,1080.38 1501.58,1048.19 1515.65,1047.88Z" style="fill:rgb(249,151,70);fill-rule:nonzero;"/>
    </g>
</svg>
